<svg width="2997" height="2794" viewBox="0 0 2997 2794" fill="none" xmlns="http://www.w3.org/2000/svg">
<g clip-path="url(#clip0_2558_34563)">
<path d="M1362.63 524.934C1378.47 522.797 1394.7 520.863 1411.36 519.137L1411.41 519.634C1419.65 518.78 1427.98 517.977 1436.43 517.225C1445.1 516.454 1453.64 515.768 1462.06 515.164L1462.03 514.666C1479.38 513.423 1496.2 512.532 1512.51 511.981L1512.52 512.481C1529.94 511.893 1546.77 511.695 1563.05 511.871L1563.06 511.372C1580.51 511.561 1597.33 512.181 1613.55 513.214L1613.51 513.713C1630.92 514.821 1647.63 516.406 1663.69 518.445L1663.75 517.949C1681.11 520.152 1697.71 522.885 1713.61 526.121L1713.51 526.611C1730.68 530.103 1747.03 534.181 1762.64 538.81L1762.78 538.331C1779.45 543.272 1795.27 548.842 1810.33 554.998L1810.15 555.46C1826.21 562.024 1841.42 569.256 1855.87 577.105L1856.11 576.666C1871.21 584.867 1885.49 593.742 1899.07 603.233L1898.78 603.642C1912.72 613.385 1925.92 623.778 1938.51 634.759L1938.84 634.383C1951.57 645.484 1963.67 657.185 1975.29 669.422L1974.93 669.766C1986.46 681.917 1997.52 694.597 2008.22 707.745L2008.61 707.43C2019.16 720.385 2029.37 733.792 2039.36 747.59L2038.96 747.883C2048.73 761.374 2058.3 775.241 2067.78 789.427L2068.19 789.149C2077.44 802.981 2086.6 817.115 2095.79 831.499L2095.37 831.768C2103.87 845.078 2112.4 858.603 2121.03 872.303L2122.45 874.549L2122.87 874.283C2131.73 888.343 2140.72 902.583 2149.91 916.958L2149.49 917.228C2158.47 931.259 2167.65 945.419 2177.12 959.668L2177.53 959.391C2186.73 973.229 2196.2 987.149 2206.02 1001.11L2205.61 1001.4C2215.19 1015.02 2225.11 1028.69 2235.43 1042.36L2235.83 1042.06C2245.83 1055.3 2256.21 1068.54 2267.04 1081.76L2266.65 1082.08C2271.98 1088.58 2277.41 1095.07 2282.96 1101.55C2288.31 1107.8 2293.6 1114.01 2298.84 1120.19L2299.22 1119.87C2309.88 1132.45 2320.3 1144.88 2330.48 1157.19L2330.09 1157.51C2340.64 1170.26 2350.93 1182.88 2360.95 1195.38L2361.34 1195.07C2371.67 1207.96 2381.72 1220.73 2391.48 1233.39L2391.08 1233.69C2401.17 1246.79 2410.95 1259.77 2420.4 1272.65L2420.8 1272.36C2430.58 1285.69 2440.02 1298.92 2449.1 1312.08L2448.69 1312.36C2458.08 1325.97 2467.09 1339.49 2475.71 1352.96L2476.13 1352.69C2485.02 1366.59 2493.51 1380.43 2501.56 1394.24L2501.13 1394.49C2509.45 1408.75 2517.31 1422.98 2524.7 1437.21L2525.14 1436.98C2532.73 1451.59 2539.83 1466.2 2546.42 1480.85L2545.96 1481.05C2552.7 1496.01 2558.9 1511.01 2564.55 1526.07L2565.02 1525.9C2570.77 1541.22 2575.96 1556.61 2580.57 1572.12L2580.09 1572.26C2584.73 1587.86 2588.78 1603.57 2592.24 1619.44L2592.72 1619.33C2596.17 1635.17 2599.01 1651.15 2601.25 1667.33L2600.75 1667.4C2602.95 1683.36 2604.56 1699.51 2605.55 1715.88L2606.05 1715.85C2607.02 1731.88 2607.41 1748.13 2607.19 1764.63L2606.69 1764.62C2606.49 1780.58 2605.71 1796.77 2604.37 1813.23L2604.87 1813.27C2603.57 1829.17 2601.73 1845.31 2599.35 1861.73L2598.85 1861.66C2596.57 1877.4 2593.78 1893.4 2590.48 1909.68L2590.97 1909.78C2587.81 1925.35 2584.18 1941.18 2580.07 1957.29L2579.59 1957.16C2577.59 1964.98 2575.49 1972.86 2573.27 1980.82C2570.95 1989.06 2568.48 1997.22 2565.83 2005.3L2566.31 2005.45C2560.97 2021.77 2554.97 2037.72 2548.35 2053.31L2547.89 2053.11C2541.19 2068.87 2533.84 2084.24 2525.88 2099.2L2526.32 2099.44C2518.29 2114.54 2509.63 2129.24 2500.38 2143.49L2499.96 2143.22C2490.67 2157.54 2480.79 2171.41 2470.34 2184.83L2470.73 2185.13C2460.25 2198.59 2449.2 2211.58 2437.62 2224.09L2437.26 2223.75C2425.69 2236.24 2413.59 2248.24 2400.99 2259.73L2401.33 2260.1C2388.76 2271.57 2375.7 2282.52 2362.17 2292.95L2361.87 2292.56C2348.41 2302.93 2334.5 2312.78 2320.16 2322.08L2320.44 2322.5C2306.19 2331.74 2291.53 2340.45 2276.49 2348.59L2276.25 2348.15C2261.33 2356.22 2246.03 2363.74 2230.38 2370.69L2230.59 2371.14C2215.09 2378.02 2199.26 2384.34 2183.11 2390.07L2182.95 2389.6C2166.98 2395.27 2150.72 2400.38 2134.17 2404.89L2134.3 2405.37C2117.98 2409.83 2101.38 2413.71 2084.55 2417L2084.45 2416.5C2067.84 2419.75 2051 2422.42 2033.95 2424.49L2034.01 2424.99C2017.23 2427.03 2000.26 2428.49 1983.11 2429.36L1983.08 2428.86C1966.21 2429.72 1949.17 2430 1931.98 2429.69L1931.97 2430.19C1915.08 2429.88 1898.05 2429.01 1880.9 2427.54L1880.95 2427.05C1864.15 2425.61 1847.24 2423.62 1830.24 2421.04L1830.16 2421.54C1813.47 2419.01 1796.69 2415.92 1779.85 2412.26L1779.96 2411.78C1763.48 2408.2 1746.95 2404.07 1730.37 2399.39L1730.23 2399.87C1714.03 2395.29 1697.78 2390.18 1681.52 2384.52L1681.68 2384.04C1673.65 2381.25 1665.62 2378.32 1657.59 2375.26C1649.38 2372.14 1641.24 2369.13 1633.18 2366.24L1633.01 2366.71C1616.44 2360.78 1600.15 2355.35 1584.14 2350.37L1584.29 2349.89C1567.4 2344.63 1550.82 2339.88 1534.52 2335.58L1534.4 2336.07C1517.35 2331.57 1500.62 2327.58 1484.19 2324.03L1484.29 2323.54C1467.05 2319.82 1450.14 2316.59 1433.54 2313.78L1433.46 2314.27C1416.1 2311.34 1399.09 2308.87 1382.38 2306.8L1382.44 2306.3C1364.96 2304.13 1347.82 2302.39 1330.99 2301L1330.95 2301.5C1313.45 2300.05 1296.28 2298.98 1279.42 2298.19L1279.45 2297.69C1261.93 2296.87 1244.74 2296.36 1227.85 2296.05L1227.84 2296.55C1210.3 2296.22 1193.08 2296.12 1176.14 2296.11L1176.14 2295.61C1161.31 2295.61 1146.69 2295.68 1132.26 2295.75C1129.66 2295.77 1127.06 2295.78 1124.47 2295.79L1124.47 2296.29C1106.99 2296.38 1089.79 2296.44 1072.81 2296.34L1072.81 2295.84C1055.38 2295.73 1038.18 2295.46 1021.18 2294.85L1021.16 2295.35C1003.8 2294.74 986.628 2293.78 969.598 2292.33L969.641 2291.83C952.432 2290.36 935.367 2288.38 918.39 2285.72L918.312 2286.21C901.365 2283.55 884.504 2280.22 867.673 2276.04L867.794 2275.56C851.314 2271.46 834.865 2266.56 818.392 2260.7L818.225 2261.17C802.357 2255.52 786.468 2248.97 770.511 2241.39L770.725 2240.94C763.059 2237.3 755.378 2233.42 747.675 2229.28L747.439 2229.72L747.675 2229.28C740.373 2225.37 733.105 2221.36 725.88 2217.23L725.633 2217.67C711.249 2209.45 697.033 2200.81 683.05 2191.76L683.321 2191.34C669.39 2182.33 655.69 2172.91 642.283 2163.09L641.988 2163.5C628.563 2153.67 615.432 2143.46 602.657 2132.87L602.975 2132.49C590.155 2121.87 577.693 2110.87 565.654 2099.51L565.311 2099.87C553.171 2088.42 541.46 2076.61 530.242 2064.45L530.609 2064.11C519.289 2051.84 508.473 2039.22 498.228 2026.26L497.836 2026.57C487.469 2013.46 477.685 2000.02 468.553 1986.24L468.97 1985.97C459.745 1972.06 451.188 1957.82 443.368 1943.27L442.928 1943.51C435.028 1928.81 427.881 1913.81 421.558 1898.5L422.02 1898.31C415.672 1882.95 410.158 1867.29 405.551 1851.35L405.071 1851.49C400.467 1835.56 396.768 1819.35 394.049 1802.9L394.541 1802.81C391.856 1786.56 390.128 1770.06 389.428 1753.33L388.929 1753.35C388.244 1736.97 388.543 1720.37 389.895 1703.57L390.393 1703.61C391.698 1687.38 393.988 1670.96 397.321 1654.36L396.832 1654.27C400.033 1638.33 404.197 1622.24 409.376 1606.01L409.851 1606.16C414.762 1590.77 420.588 1575.25 427.374 1559.61L426.916 1559.41C433.344 1544.6 440.633 1529.69 448.822 1514.68L449.26 1514.92C453.2 1507.7 457.348 1500.46 461.709 1493.2C465.989 1486.07 470.199 1478.95 474.341 1471.84L473.91 1471.59C482.273 1457.24 490.362 1442.93 498.207 1428.68L498.644 1428.92C506.651 1414.36 514.403 1399.87 521.931 1385.43L521.488 1385.2C529.165 1370.48 536.61 1355.82 543.855 1341.24L544.302 1341.46C551.691 1326.59 558.872 1311.8 565.881 1297.1L565.43 1296.89C572.574 1281.9 579.538 1267.01 586.361 1252.23L586.815 1252.43C593.77 1237.36 600.577 1222.4 607.277 1207.55L606.821 1207.35C613.649 1192.22 620.365 1177.22 627.009 1162.35L627.465 1162.56C628.695 1159.81 629.922 1157.06 631.148 1154.32C636.67 1141.96 642.148 1129.71 647.607 1117.55L647.151 1117.35C653.949 1102.22 660.717 1087.24 667.501 1072.45L667.955 1072.66C674.871 1057.58 681.805 1042.68 688.804 1027.99L688.353 1027.77C695.496 1012.78 702.708 997.989 710.041 983.426L710.487 983.651C717.948 968.835 725.535 954.252 733.303 939.919L732.864 939.681C740.759 925.115 748.841 910.806 757.169 896.774L757.598 897.029C766.034 882.814 774.721 868.883 783.72 855.256L783.303 854.98C792.398 841.207 801.812 827.743 811.607 814.606L812.007 814.905C821.837 801.721 832.051 788.868 842.711 776.366L842.331 776.042C852.964 763.571 864.042 751.448 875.627 739.693L875.982 740.043C887.433 728.424 899.379 717.164 911.881 706.281L911.553 705.905C923.821 695.226 936.624 684.912 950.019 674.978L950.317 675.379C963.28 665.766 976.799 656.509 990.925 647.626L990.659 647.203C1004.29 638.633 1018.48 630.409 1033.28 622.548L1033.52 622.989C1047.69 615.461 1062.43 608.265 1077.77 601.413L1077.57 600.957C1092.21 594.416 1107.4 588.189 1123.17 582.287L1123.35 582.754C1138.35 577.142 1153.87 571.823 1169.96 566.808L1169.81 566.331C1185.11 561.56 1200.92 557.064 1217.25 552.851L1217.38 553.334C1232.91 549.328 1248.92 545.577 1265.44 542.089L1265.33 541.6C1281.08 538.274 1297.29 535.186 1313.97 532.343L1314.05 532.835C1329.83 530.146 1346.04 527.675 1362.69 525.429L1362.63 524.934Z" fill="#CFD0FA" fill-opacity="0.6" stroke="#231F20" stroke-width="0.998954" stroke-dasharray="49.95 49.95"/>
<path fill-rule="evenodd" clip-rule="evenodd" d="M1401.01 367.534L1400.96 367.036C1409.4 366.175 1417.94 365.359 1426.58 364.59C1435.09 363.834 1443.49 363.148 1451.78 362.531L1451.86 363.529C1443.57 364.145 1435.17 364.831 1426.67 365.586M1401.01 367.534L1401.06 368.031C1409.5 367.17 1418.04 366.355 1426.67 365.586M1351.35 372.749C1334.17 374.965 1317.39 377.383 1300.99 380L1301.15 380.988C1317.53 378.372 1334.31 375.955 1351.48 373.741L1351.35 372.749ZM1251.29 388.769L1251.48 389.75C1234.68 393.006 1218.32 396.488 1202.38 400.19L1202.16 399.216C1218.11 395.511 1234.48 392.027 1251.29 388.769ZM1153.5 411.548L1153.76 412.512C1137.12 417.098 1120.97 421.946 1105.29 427.048L1104.98 426.097C1120.68 420.99 1136.84 416.138 1153.5 411.548ZM1057.36 442.906L1057.71 443.841C1041.68 449.966 1026.17 456.384 1011.15 463.087L1010.75 462.173C1025.78 455.463 1041.3 449.038 1057.36 442.906ZM965.343 484.073L965.803 484.961C950.633 492.852 936.012 501.066 921.903 509.593L921.386 508.736C935.514 500.199 950.154 491.974 965.343 484.073ZM879.14 536.227L879.712 537.047C865.78 546.797 852.385 556.888 839.484 567.305L838.857 566.527C851.775 556.095 865.188 545.991 879.14 536.227ZM800.748 599.526L801.427 600.259C789.042 611.746 777.141 623.571 765.675 635.717L764.949 635.03C776.43 622.868 788.347 611.028 800.748 599.526ZM731.502 672.782L732.269 673.422C721.522 686.332 711.169 699.555 701.158 713.076L700.355 712.48C710.377 698.945 720.742 685.707 731.502 672.782ZM671.386 753.794L672.217 754.349C662.957 768.272 653.982 782.472 645.245 796.932L644.39 796.414C653.134 781.943 662.117 767.731 671.386 753.794ZM619.111 840.078L619.983 840.564C611.876 855.15 603.95 869.97 596.158 885.01L595.271 884.55C603.067 869.502 610.998 854.673 619.111 840.078ZM2141.26 654.258L2140.44 654.829C2130.9 641.106 2121.24 627.682 2111.37 614.596L2112.16 613.993C2122.05 627.091 2131.71 640.526 2141.26 654.258ZM2081.3 575.173L2080.54 575.817C2069.85 563.109 2058.84 550.803 2047.43 538.943L2048.15 538.25C2059.58 550.127 2070.6 562.449 2081.3 575.173ZM2012.38 503.875L2011.72 504.624C1999.44 493.743 1986.65 483.349 1973.27 473.486L1973.86 472.68C1987.27 482.562 2000.08 492.975 2012.38 503.875ZM1932.61 445.172L1932.09 446.03C1918.2 437.688 1903.68 429.864 1888.47 422.594L1888.9 421.692C1904.14 428.975 1918.68 436.814 1932.61 445.172ZM1843.34 402.414L1842.99 403.351C1827.95 397.759 1812.28 392.65 1795.91 388.054L1796.18 387.092C1812.57 391.695 1828.27 396.812 1843.34 402.414ZM1747.88 375.458L1747.68 376.438C1731.96 373.244 1715.66 370.473 1698.73 368.146L1698.87 367.155C1715.82 369.485 1732.14 372.259 1747.88 375.458ZM1649.55 361.792L1649.47 362.789C1633.5 361.486 1617.01 360.541 1599.98 359.968L1600.01 358.968C1617.06 359.543 1633.56 360.488 1649.55 361.792ZM1550.54 358.345L1550.55 359.345C1534.55 359.464 1518.1 359.884 1501.19 360.614L1501.14 359.615C1518.07 358.885 1534.53 358.464 1550.54 358.345Z" fill="#231F20"/>
<path d="M1443.22 619.144C1963.71 572.91 1964.55 866.707 2199.19 1140.75C2433.83 1414.79 2546.55 1610.16 2458.4 1925.81C2369.84 2241.46 2009.04 2418.49 1640.51 2278.11C1271.97 2137.72 1060.83 2272.64 828.293 2147.81C595.752 2023.4 402.459 1774.02 572.876 1490.31C828.293 1065.1 801.429 676.306 1443.22 619.144Z" fill="#4547EB"/>
<path d="M1443.22 619.144C1963.71 572.91 1964.55 866.707 2199.19 1140.75C2433.83 1414.79 2546.55 1610.16 2458.4 1925.81C2369.84 2241.46 2009.04 2418.49 1640.51 2278.11C1271.97 2137.72 1060.83 2272.64 828.293 2147.81C595.752 2023.4 402.459 1774.02 572.876 1490.31C828.293 1065.1 801.429 676.306 1443.22 619.144Z" fill="url(#paint0_linear_2558_34563)"/>
<path d="M1374.69 715.322C1390.49 712.985 1406.8 710.909 1423.65 709.099L1423.7 709.596C1431.9 708.716 1440.22 707.899 1448.67 707.146C1457.16 706.392 1465.5 705.739 1473.68 705.184L1473.65 704.686C1490.74 703.528 1507.17 702.802 1522.99 702.489L1523 702.988C1540.17 702.648 1556.62 702.795 1572.38 703.408L1572.4 702.908C1589.7 703.58 1606.19 704.812 1621.91 706.573L1621.86 707.069C1638.97 708.985 1655.18 711.529 1670.58 714.661L1670.68 714.171C1687.6 717.612 1703.53 721.763 1718.58 726.574L1718.43 727.049C1734.78 732.272 1750.09 738.272 1764.5 744.983L1764.72 744.531C1780.12 751.703 1794.5 759.688 1808.02 768.405L1807.75 768.825C1821.82 777.894 1834.96 787.757 1847.36 798.326L1847.68 797.946C1860.27 808.678 1872.1 820.135 1883.37 832.225L1883 832.565C1894.16 844.542 1904.76 857.14 1915.01 870.271L1915.4 869.963C1925.42 882.811 1935.09 896.166 1944.59 909.942L1944.18 910.225C1953.4 923.602 1962.47 937.378 1971.54 951.474L1971.96 951.204C1980.38 964.283 1988.79 977.636 1997.34 991.201C1997.73 991.809 1998.11 992.417 1998.49 993.025L1998.07 993.291C2006.73 1007.03 2015.54 1020.98 2024.62 1035.09L2025.04 1034.82C2033.83 1048.46 2042.87 1062.24 2052.31 1076.11L2051.89 1076.39C2061.02 1089.81 2070.51 1103.31 2080.46 1116.83L2080.87 1116.53C2090.49 1129.6 2100.55 1142.68 2111.15 1155.74L2110.76 1156.05C2115.92 1162.42 2121.22 1168.78 2126.65 1175.12C2132.01 1181.38 2137.29 1187.59 2142.5 1193.76L2142.89 1193.43C2153.61 1206.13 2164.04 1218.64 2174.14 1230.99L2173.76 1231.31C2184.27 1244.16 2194.44 1256.84 2204.27 1269.39L2204.66 1269.08C2214.9 1282.16 2224.76 1295.09 2234.22 1307.9L2233.82 1308.19C2243.69 1321.56 2253.14 1334.8 2262.14 1347.95L2262.55 1347.67C2271.94 1361.39 2280.84 1375 2289.24 1388.56L2288.81 1388.82C2297.55 1402.92 2305.74 1416.96 2313.37 1430.98L2313.81 1430.74C2321.73 1445.29 2329.04 1459.82 2335.73 1474.38L2335.27 1474.59C2342.15 1489.57 2348.36 1504.58 2353.89 1519.69L2354.36 1519.52C2359.99 1534.91 2364.91 1550.4 2369.09 1566.05L2368.61 1566.17C2372.81 1581.87 2376.27 1597.73 2378.97 1613.82L2379.46 1613.74C2382.13 1629.66 2384.05 1645.8 2385.2 1662.22L2384.71 1662.26C2385.82 1678.22 2386.21 1694.44 2385.85 1710.99L2386.35 1711C2386 1726.92 2384.96 1743.14 2383.2 1759.69L2382.7 1759.64C2381.03 1775.41 2378.7 1791.49 2375.71 1807.92L2376.21 1808.01C2373.37 1823.59 2369.94 1839.5 2365.89 1855.76L2365.41 1855.64C2363.47 1863.43 2361.39 1871.31 2359.16 1879.27C2356.9 1887.34 2354.44 1895.31 2351.78 1903.17L2352.26 1903.33C2346.87 1919.27 2340.7 1934.79 2333.77 1949.84L2333.32 1949.63C2326.31 1964.86 2318.55 1979.62 2310.06 1993.88L2310.49 1994.13C2301.92 2008.52 2292.63 2022.39 2282.65 2035.71L2282.25 2035.41C2272.25 2048.77 2261.56 2061.58 2250.24 2073.8L2250.61 2074.14C2239.28 2086.37 2227.31 2098.02 2214.76 2109.06L2214.43 2108.68C2201.94 2119.66 2188.87 2130.02 2175.26 2139.75L2175.55 2140.15C2162.03 2149.82 2147.98 2158.85 2133.45 2167.21L2133.2 2166.78C2118.82 2175.05 2103.98 2182.67 2088.71 2189.61L2088.92 2190.06C2073.83 2196.92 2058.32 2203.1 2042.44 2208.59L2042.28 2208.12C2026.64 2213.53 2010.65 2218.26 1994.34 2222.28L1994.45 2222.76C1978.39 2226.72 1962.01 2230 1945.38 2232.56L1945.3 2232.07C1928.97 2234.58 1912.38 2236.41 1895.57 2237.52L1895.6 2238.02C1879.13 2239.11 1862.44 2239.52 1845.59 2239.21L1845.59 2238.71C1829.11 2238.41 1812.47 2237.44 1795.69 2235.76L1795.64 2236.26C1779.22 2234.61 1762.68 2232.3 1746.04 2229.29L1746.13 2228.8C1729.94 2225.88 1713.67 2222.29 1697.33 2218.03L1697.2 2218.52C1681.27 2214.36 1665.28 2209.57 1649.26 2204.11L1649.43 2203.64C1641.57 2200.96 1633.71 2198.12 1625.84 2195.13C1617.39 2191.91 1609.03 2188.85 1600.76 2185.94L1600.6 2186.42C1583.31 2180.34 1566.42 2174.94 1549.9 2170.14L1550.04 2169.66C1532.47 2164.55 1515.32 2160.11 1498.55 2156.27L1498.44 2156.75C1480.63 2152.67 1463.26 2149.24 1446.28 2146.37L1446.37 2145.88C1428.36 2142.83 1410.8 2140.42 1393.65 2138.5L1393.6 2138.99C1375.49 2136.97 1357.84 2135.5 1340.59 2134.44L1340.62 2133.94C1322.47 2132.83 1304.77 2132.17 1287.46 2131.79L1287.45 2132.29C1269.32 2131.89 1251.61 2131.81 1234.27 2131.83L1234.27 2131.33C1224.43 2131.34 1214.7 2131.39 1205.08 2131.44C1196.99 2131.48 1188.98 2131.52 1181.04 2131.54L1181.04 2132.04C1163 2132.08 1145.3 2132.01 1127.86 2131.57L1127.87 2131.07C1109.93 2130.62 1092.26 2129.79 1074.78 2128.3L1074.74 2128.8C1057 2127.28 1039.46 2125.09 1022.01 2121.93L1022.09 2121.44C1004.83 2118.31 987.654 2114.24 970.48 2108.95L970.333 2109.43C953.804 2104.34 937.273 2098.11 920.658 2090.51L920.866 2090.06C912.941 2086.43 904.998 2082.49 897.025 2078.21L896.789 2078.65L897.025 2078.21C889.51 2074.19 882.042 2070.02 874.632 2065.72L874.381 2066.15C859.638 2057.58 845.129 2048.44 830.962 2038.78L831.243 2038.37C817.114 2028.73 803.325 2018.56 789.984 2007.9L789.672 2008.29C776.265 1997.57 763.308 1986.35 750.91 1974.65L751.252 1974.29C738.742 1962.49 726.802 1950.21 715.542 1937.48L715.168 1937.81C703.752 1924.9 693.033 1911.53 683.129 1897.73L683.535 1897.44C673.498 1883.45 664.299 1869.02 656.057 1854.19L655.62 1854.43C647.265 1839.39 639.891 1823.93 633.625 1808.08L634.09 1807.9C627.8 1791.99 622.627 1775.7 618.699 1759.05L618.213 1759.16C614.308 1742.62 611.63 1725.72 610.304 1708.51L610.802 1708.47C609.509 1691.7 609.502 1674.62 610.897 1657.28L610.399 1657.24C611.74 1640.58 614.372 1623.67 618.398 1606.55L618.884 1606.66C622.674 1590.54 627.702 1574.23 634.053 1557.74L633.587 1557.56C639.525 1542.15 646.617 1526.59 654.933 1510.9L655.375 1511.14C659.309 1503.72 663.517 1496.27 668.007 1488.79C672.293 1481.65 676.491 1474.53 680.605 1467.42L680.173 1467.17C688.516 1452.75 696.517 1438.38 704.224 1424.09L704.664 1424.32C712.568 1409.66 720.162 1395.07 727.496 1380.57L727.05 1380.34C734.579 1365.45 741.834 1350.66 748.869 1335.97L749.32 1336.19C756.519 1321.16 763.489 1306.24 770.286 1291.46L769.833 1291.25C776.784 1276.14 783.555 1261.16 790.209 1246.35L790.665 1246.55C795.067 1236.75 799.418 1227.01 803.735 1217.35C806.12 1212.02 808.495 1206.7 810.863 1201.41L810.407 1201.21C817.212 1186.01 823.959 1171 830.718 1156.21L831.172 1156.42C838.095 1141.27 845.031 1126.35 852.058 1111.69L851.607 1111.47C858.806 1096.45 866.101 1081.69 873.574 1067.23L874.018 1067.46C881.647 1052.69 889.462 1038.23 897.552 1024.1L897.118 1023.85C905.369 1009.44 913.905 995.372 922.82 981.68L923.239 981.952C932.259 968.099 941.667 954.63 951.561 941.574L951.163 941.272C961.107 928.15 971.542 915.444 982.566 903.186L982.938 903.52C993.862 891.373 1005.37 879.666 1017.54 868.429L1017.2 868.062C1029.15 857.037 1041.75 846.464 1055.09 836.371L1055.39 836.769C1068.22 827.054 1081.75 817.784 1096.04 808.984L1095.77 808.558C1109.44 800.142 1123.81 792.155 1138.94 784.619L1139.17 785.066C1153.5 777.932 1168.52 771.201 1184.3 764.894L1184.12 764.43C1198.88 758.528 1214.31 752.995 1230.44 747.849L1230.59 748.325C1245.75 743.489 1261.54 738.994 1277.99 734.853L1277.87 734.368C1293.32 730.477 1309.37 726.897 1326.04 723.64L1326.13 724.13C1341.78 721.071 1357.99 718.297 1374.76 715.816L1374.69 715.322Z" stroke="white" stroke-opacity="0.4" stroke-width="0.998954" stroke-dasharray="49.95 49.95"/>
<path d="M1387.36 906.944C1402.89 904.298 1419.11 902.005 1436.06 900.078L1436.12 900.574C1444.23 899.652 1452.52 898.814 1460.97 898.061C1469.16 897.334 1477.16 896.732 1484.97 896.251L1484.94 895.753C1501.68 894.724 1517.58 894.254 1532.69 894.314L1532.69 894.813C1549.48 894.879 1565.3 895.6 1580.24 896.932L1580.28 896.434C1597.11 897.935 1612.82 900.211 1627.54 903.203L1627.44 903.692C1643.96 907.05 1659.22 911.311 1673.41 916.39L1673.58 915.919C1689.27 921.534 1703.65 928.147 1716.95 935.646L1716.71 936.081C1730.93 944.093 1743.92 953.118 1755.98 963.017L1756.3 962.631C1768.65 972.771 1780.02 983.826 1790.73 995.646L1790.36 995.981C1800.92 1007.64 1810.83 1020.04 1820.39 1033.05L1820.79 1032.75C1830.05 1045.34 1838.98 1058.49 1847.85 1072.08L1847.43 1072.35C1855.69 1084.99 1863.9 1098.01 1872.28 1111.3L1873.13 1112.65L1873.55 1112.38C1881.86 1125.56 1890.35 1139.01 1899.23 1152.61L1898.81 1152.89C1907.33 1165.95 1916.21 1179.16 1925.64 1192.44L1926.05 1192.15C1935.07 1204.85 1944.59 1217.61 1954.78 1230.34L1954.39 1230.65C1959.31 1236.8 1964.38 1242.95 1969.63 1249.08C1975 1255.35 1980.28 1261.55 1985.45 1267.71L1985.84 1267.38C1996.61 1280.19 2006.97 1292.76 2016.89 1305.13L2016.5 1305.44C2026.97 1318.5 2036.95 1331.34 2046.42 1344.01L2046.82 1343.71C2056.85 1357.13 2066.3 1370.37 2075.15 1383.5L2074.74 1383.78C2084.08 1397.63 2092.76 1411.36 2100.74 1425.04L2101.17 1424.79C2109.58 1439.2 2117.22 1453.56 2124.04 1467.95L2123.59 1468.17C2130.68 1483.12 2136.89 1498.12 2142.18 1513.25L2142.66 1513.08C2148.07 1528.55 2152.52 1544.16 2155.98 1560.03L2155.49 1560.14C2158.92 1575.91 2161.37 1591.94 2162.78 1608.33L2163.27 1608.28C2164.64 1624.17 2165.04 1640.4 2164.44 1657.07L2163.94 1657.05C2163.36 1672.82 2161.88 1688.98 2159.47 1705.61L2159.96 1705.68C2157.7 1721.23 2154.63 1737.19 2150.71 1753.63L2150.23 1753.51C2148.37 1761.29 2146.33 1769.18 2144.09 1777.18C2141.91 1784.98 2139.47 1792.65 2136.8 1800.18L2137.27 1800.35C2131.84 1815.67 2125.42 1830.45 2118.09 1844.64L2117.65 1844.41C2110.23 1858.77 2101.88 1872.53 2092.68 1885.62L2093.09 1885.91C2083.81 1899.1 2073.67 1911.63 2062.73 1923.43L2062.36 1923.09C2051.45 1934.86 2039.75 1945.92 2027.34 1956.2L2027.66 1956.58C2015.31 1966.81 2002.26 1976.27 1988.59 1984.92L1988.32 1984.5C1974.82 1993.04 1960.71 2000.78 1946.06 2007.67L1946.27 2008.12C1931.81 2014.92 1916.84 2020.9 1901.42 2026L1901.26 2025.53C1886.15 2030.52 1870.61 2034.68 1854.7 2037.96L1854.8 2038.45C1839.21 2041.66 1823.27 2044.03 1807.05 2045.5L1807 2045C1791.19 2046.44 1775.11 2047.03 1758.81 2046.74L1758.8 2047.23C1742.93 2046.95 1726.85 2045.82 1710.63 2043.82L1710.69 2043.33C1694.97 2041.39 1679.12 2038.63 1663.17 2035.02L1663.06 2035.51C1647.62 2032.01 1632.1 2027.72 1616.54 2022.59L1616.7 2022.12C1609.13 2019.63 1601.54 2016.94 1593.96 2014.05C1586.56 2011.23 1579.25 2008.58 1572.03 2006.08L1571.87 2006.55C1556.65 2001.28 1541.84 1996.7 1527.4 1992.72L1527.53 1992.24C1511.99 1987.96 1496.89 1984.37 1482.18 1981.37L1482.08 1981.86C1466.32 1978.65 1451.02 1976.1 1436.13 1974.09L1436.2 1973.6C1420.31 1971.45 1404.89 1969.91 1389.88 1968.81L1389.85 1969.31C1373.89 1968.15 1358.39 1967.48 1343.29 1967.1L1343.3 1966.61C1327.36 1966.21 1311.86 1966.15 1296.72 1966.19L1296.72 1966.69C1290.47 1966.7 1284.29 1966.73 1278.16 1966.76C1268.69 1966.81 1259.37 1966.86 1250.15 1966.84L1250.15 1966.34C1234.33 1966.32 1218.85 1966.11 1203.61 1965.41L1203.59 1965.91C1187.92 1965.19 1172.49 1963.95 1157.21 1961.86L1157.27 1961.36C1141.99 1959.27 1126.85 1956.32 1111.72 1952.18L1111.59 1952.66C1097 1948.67 1082.43 1943.57 1067.77 1937.06L1067.98 1936.6C1061.02 1933.51 1054.05 1930.11 1047.05 1926.35L1046.81 1926.79L1047.05 1926.35C1039.17 1922.13 1031.35 1917.7 1023.63 1913.07L1023.37 1913.49C1008.01 1904.27 993.019 1894.23 978.625 1883.44L978.925 1883.04C964.51 1872.24 950.694 1860.68 937.698 1848.42L937.355 1848.79C924.169 1836.35 911.825 1823.21 900.553 1809.42L900.94 1809.1C889.464 1795.06 879.101 1780.35 870.096 1765.03L869.666 1765.28C860.486 1749.67 852.714 1733.43 846.605 1716.64L847.074 1716.47C840.952 1699.64 836.505 1682.25 833.991 1664.38L833.497 1664.44C831.038 1646.96 830.425 1629.01 831.9 1610.67L832.398 1610.71C833.787 1593.45 837.028 1575.83 842.326 1557.92L841.848 1557.78C846.707 1541.35 853.293 1524.67 861.761 1507.78L862.207 1508.01C866.139 1500.17 870.477 1492.29 875.238 1484.36C879.527 1477.22 883.698 1470.1 887.761 1462.99L887.327 1462.75C895.645 1448.2 903.508 1433.73 911.003 1419.36L911.446 1419.59C919.184 1404.76 926.53 1390.04 933.576 1375.46L933.126 1375.24C940.407 1360.17 947.368 1345.25 954.113 1330.51L954.568 1330.72C961.535 1315.49 968.273 1300.46 974.893 1285.66L974.437 1285.45C975.173 1283.81 975.909 1282.16 976.643 1280.52C982.716 1266.94 988.702 1253.55 994.688 1240.39L995.143 1240.59C1002.07 1225.37 1009 1210.44 1016.06 1195.86L1015.61 1195.64C1022.9 1180.6 1030.34 1165.92 1038.07 1151.65L1038.51 1151.89C1046.46 1137.24 1054.71 1123.03 1063.45 1109.3L1063.03 1109.04C1071.93 1095.05 1081.34 1081.56 1091.41 1068.64L1091.8 1068.94C1101.89 1056 1112.65 1043.61 1124.26 1031.84L1123.9 1031.49C1135.3 1019.93 1147.52 1008.96 1160.72 998.636L1161.02 999.03C1173.64 989.161 1187.15 979.879 1201.7 971.23L1201.45 970.8C1215.1 962.684 1229.68 955.123 1245.28 948.155L1245.49 948.611C1259.94 942.16 1275.28 936.218 1291.6 930.813L1291.44 930.339C1306.39 925.392 1322.15 920.895 1338.81 916.871L1338.93 917.356C1354.32 913.64 1370.47 910.327 1387.44 907.436L1387.36 906.944Z" stroke="white" stroke-opacity="0.4" stroke-width="0.998954" stroke-dasharray="49.95 49.95"/>
<path d="M1873.38 1676.44L1873.85 1676.63C1867.38 1692.3 1859.14 1706.92 1849.37 1720.33L1848.96 1720.04C1839.12 1733.55 1827.72 1745.83 1815.01 1756.71L1815.33 1757.09C1802.72 1767.9 1788.82 1777.33 1773.87 1785.22L1773.64 1784.78C1759.07 1792.47 1743.51 1798.7 1727.19 1803.32L1727.32 1803.8C1711.52 1808.27 1695 1811.23 1677.96 1812.54L1677.92 1812.04C1661.66 1813.29 1644.93 1813.04 1627.9 1811.16L1627.85 1811.66C1611.67 1809.88 1595.23 1806.63 1578.68 1801.82L1578.82 1801.34C1570.91 1799.04 1562.98 1796.39 1555.03 1793.36C1546.08 1789.95 1537.35 1786.94 1528.85 1784.3L1528.7 1784.77C1509.75 1778.88 1491.87 1774.76 1474.9 1771.89L1474.98 1771.4C1455.54 1768.11 1437.27 1766.46 1419.92 1765.65L1419.9 1766.15C1401.47 1765.29 1384.07 1765.38 1367.37 1765.46C1366.44 1765.46 1365.51 1765.47 1364.57 1765.47L1364.57 1764.97C1345.38 1765.07 1327.14 1765.08 1309.32 1763.56L1309.28 1764.06C1290.99 1762.5 1273.15 1759.31 1255.23 1752.94L1255.4 1752.46C1247.03 1749.49 1238.65 1745.81 1230.19 1741.27L1230.19 1741.27C1222.4 1737.1 1214.73 1732.59 1207.24 1727.74L1206.97 1728.16C1192.01 1718.48 1177.8 1707.5 1164.93 1695.36L1165.28 1695C1152.16 1682.64 1140.46 1669.08 1130.8 1654.53L1130.39 1654.81C1120.42 1639.78 1112.63 1623.68 1107.72 1606.7L1108.2 1606.57C1103.35 1589.81 1101.32 1572.21 1102.79 1553.94L1102.3 1553.9C1103.63 1537.25 1107.87 1520.05 1115.51 1502.44L1115.97 1502.64C1119.36 1494.83 1123.43 1486.93 1128.21 1478.97C1132.83 1471.28 1137.22 1463.62 1141.41 1456.01L1140.97 1455.77C1149.72 1439.88 1157.61 1424.16 1164.97 1408.72L1165.42 1408.94C1173.23 1392.57 1180.43 1376.52 1187.42 1360.9L1186.96 1360.7C1187.4 1359.72 1187.84 1358.74 1188.27 1357.76C1195.21 1342.25 1201.94 1327.18 1208.87 1312.65L1209.32 1312.87C1217.1 1296.54 1225.1 1280.91 1233.87 1266.14L1233.44 1265.89C1242.55 1250.54 1252.49 1236.11 1263.85 1222.79L1264.23 1223.12C1275.44 1209.97 1288.04 1197.92 1302.6 1187.12L1302.3 1186.72C1315.68 1176.81 1330.71 1167.95 1347.84 1160.3L1348.04 1160.76C1362.95 1154.11 1379.44 1148.36 1397.83 1143.62L1397.71 1143.14C1413.55 1139.05 1430.79 1135.71 1449.61 1133.17L1449.68 1133.67C1458.12 1132.53 1466.88 1131.55 1475.98 1130.74C1484.63 1129.97 1492.92 1129.44 1500.87 1129.13L1500.85 1128.63C1519.05 1127.93 1535.5 1128.39 1550.43 1129.92L1550.38 1130.41C1568.59 1132.27 1584.54 1135.69 1598.72 1140.45L1598.88 1139.98C1615.84 1145.67 1630.27 1153.28 1642.97 1162.42L1642.68 1162.83C1656.24 1172.58 1667.82 1184.09 1678.43 1196.88L1678.81 1196.57C1689.08 1208.96 1698.42 1222.55 1707.72 1236.91L1707.3 1237.18C1711.55 1243.75 1715.79 1250.48 1720.11 1257.33L1720.38 1257.75C1724.79 1264.75 1729.29 1271.87 1733.95 1279.08L1734.37 1278.81C1743.04 1292.2 1752.3 1305.87 1762.74 1319.55L1762.34 1319.86C1767.27 1326.32 1772.45 1332.78 1777.96 1339.21C1784.43 1346.76 1790.66 1354.16 1796.65 1361.43L1797.03 1361.12C1810.03 1376.9 1821.89 1392.11 1832.51 1407L1832.1 1407.29C1843.97 1423.94 1854.28 1440.18 1862.88 1456.39L1863.33 1456.16C1872.74 1473.89 1880.12 1491.59 1885.28 1509.75L1884.8 1509.89C1890.03 1528.29 1892.97 1547.15 1893.43 1566.99L1893.93 1566.98C1894.36 1585.25 1892.68 1604.34 1888.75 1624.64C1886.97 1633.81 1884.74 1643.22 1882.03 1652.91L1881.55 1652.77C1881.55 1652.77 1881.55 1652.77 1881.55 1652.77C1879.27 1660.9 1876.54 1668.79 1873.38 1676.44Z" stroke="white" stroke-opacity="0.4" stroke-width="0.998954" stroke-dasharray="49.95 49.95"/>
<path d="M1424.22 1318.08C1435.86 1312.86 1449.48 1308.77 1465.67 1306.01L1465.75 1306.5C1472.44 1305.36 1479.57 1304.44 1487.18 1303.76C1496.03 1302.97 1504.12 1302.68 1511.53 1302.86L1511.54 1302.36C1531.5 1302.82 1546.61 1306.6 1558.74 1312.78L1558.52 1313.23C1573.63 1320.93 1584.11 1332.41 1593.65 1345.94L1594.06 1345.65C1598.5 1351.94 1602.73 1358.67 1607.12 1365.65C1611.37 1372.42 1615.78 1379.43 1620.68 1386.52L1620.27 1386.81C1624.72 1393.25 1629.58 1399.77 1635.09 1406.23C1639.92 1411.88 1644.48 1417.36 1648.75 1422.71L1649.14 1422.4C1658.84 1434.53 1667.1 1446.02 1673.71 1457.39L1673.28 1457.64C1680.86 1470.67 1686.26 1483.53 1689.18 1497.02L1689.67 1496.92C1692.55 1510.23 1693.04 1524.16 1690.82 1539.47L1690.33 1539.4C1689.36 1546.07 1687.88 1553 1685.86 1560.26C1683.61 1568.29 1680.47 1575.86 1676.54 1582.9L1676.98 1583.14C1668.91 1597.59 1657.56 1609.79 1643.9 1619.1L1643.62 1618.68C1630.43 1627.66 1615.07 1633.93 1598.41 1636.88L1598.5 1637.37C1583.04 1640.12 1566.48 1640.02 1549.5 1636.6L1549.6 1636.11C1541.81 1634.55 1533.92 1632.28 1526.02 1629.26C1519.31 1626.69 1512.85 1624.59 1506.64 1622.87L1506.51 1623.36C1491.96 1619.33 1478.72 1617.41 1466.42 1616.51L1466.46 1616.01C1454.85 1615.16 1444.08 1615.22 1433.86 1615.27C1431.11 1615.28 1428.39 1615.29 1425.71 1615.29L1425.71 1615.79C1411.62 1615.77 1398.45 1615.25 1385.34 1611.64L1385.47 1611.16C1379.23 1609.45 1373.01 1607.04 1366.7 1603.64L1366.7 1603.64C1360.99 1600.57 1355.39 1597.12 1350.04 1593.31L1349.75 1593.72C1338.95 1586.03 1329.15 1576.91 1321.39 1566.64L1321.79 1566.34C1313.76 1555.72 1307.93 1543.88 1305.44 1531.15L1304.95 1531.25C1302.57 1519.06 1303.24 1506.04 1307.95 1492.48L1308.42 1492.64C1310.43 1486.84 1313.19 1480.94 1316.78 1474.95C1320.59 1468.59 1324.08 1462.27 1327.33 1456.02L1326.89 1455.79C1333.87 1442.36 1339.76 1429.24 1345.35 1416.68L1345.81 1416.89C1346.03 1416.39 1346.25 1415.9 1346.47 1415.4C1352.39 1402.13 1358.01 1389.51 1364.31 1377.85L1363.87 1377.61C1370.91 1364.59 1378.78 1352.74 1388.85 1342.49L1389.21 1342.84C1398.64 1333.22 1410 1325.01 1424.42 1318.54L1424.22 1318.08Z" stroke="white" stroke-opacity="0.4" stroke-width="0.998954" stroke-dasharray="49.95 49.95"/>
<path fill-rule="evenodd" clip-rule="evenodd" d="M932 2412.49L932.014 2411.49C948.174 2411.72 964.499 2411.78 981.024 2411.77L981.025 2412.77C964.497 2412.78 948.166 2412.72 932 2412.49ZM1030.02 2412.58C1046.13 2412.5 1062.46 2412.43 1079.01 2412.45L1079.01 2411.45C1062.45 2411.43 1046.13 2411.5 1030.01 2411.58L1030.02 2412.58ZM1128.03 2412.85L1128.05 2411.85C1144.14 2412.12 1160.46 2412.53 1177.03 2413.16L1176.99 2414.16C1160.43 2413.53 1144.12 2413.12 1128.03 2412.85ZM1225.93 2416.68L1226 2415.68C1242.06 2416.73 1258.35 2418.04 1274.92 2419.65L1274.82 2420.65C1258.27 2419.04 1241.98 2417.73 1225.93 2416.68ZM1323.43 2426.21L1323.56 2425.22C1339.48 2427.32 1355.65 2429.74 1372.07 2432.52L1371.91 2433.5C1355.5 2430.73 1339.34 2428.31 1323.43 2426.21ZM1420.17 2442.58L1420.37 2441.6C1436.05 2444.85 1451.96 2448.45 1468.12 2452.43L1467.88 2453.4C1451.74 2449.43 1435.83 2445.83 1420.17 2442.58ZM1515.19 2465.98L1515.46 2465.01C1530.86 2469.41 1546.49 2474.16 1562.34 2479.3L1562.04 2480.25C1546.19 2475.11 1530.58 2470.37 1515.19 2465.98ZM1608.38 2496.15L1608.72 2495.21C1616.4 2497.99 1624.13 2500.86 1631.92 2503.83C1639.8 2506.83 1647.67 2509.72 1655.54 2512.5L1655.21 2513.44C1647.33 2510.66 1639.45 2507.76 1631.56 2504.76C1623.78 2501.79 1616.05 2498.92 1608.38 2496.15ZM1702.9 2528.95L1703.18 2527.99C1719.34 2532.8 1735.46 2537.15 1751.54 2541.04L1751.3 2542.02C1735.21 2538.12 1719.07 2533.76 1702.9 2528.95ZM1800.32 2552.53C1816.88 2555.63 1833.38 2558.25 1849.81 2560.41L1849.94 2559.42C1833.53 2557.26 1817.05 2554.65 1800.5 2551.55L1800.32 2552.53ZM1899.68 2565.56L1899.76 2564.56C1916.55 2565.82 1933.25 2566.6 1949.83 2566.9L1949.81 2567.9C1933.21 2567.6 1916.5 2566.82 1899.68 2565.56ZM1999.97 2567.36L1999.93 2566.36C2016.73 2565.69 2033.39 2564.53 2049.9 2562.89L2049.99 2563.88C2033.47 2565.52 2016.79 2566.69 1999.97 2567.36ZM2099.7 2557.42L2099.55 2556.44C2116.12 2553.77 2132.52 2550.62 2148.71 2546.98L2148.92 2547.96C2132.72 2551.6 2116.3 2554.76 2099.7 2557.42ZM2197.52 2535.45L2197.24 2534.49C2213.36 2529.79 2229.24 2524.62 2244.87 2518.96L2245.21 2519.91C2229.56 2525.56 2213.66 2530.75 2197.52 2535.45ZM2291.78 2501.34L2291.39 2500.43C2306.75 2493.72 2321.83 2486.53 2336.6 2478.89L2337.05 2479.78C2322.27 2487.43 2307.17 2494.62 2291.78 2501.34ZM2380.82 2455.24L2380.3 2454.39C2394.63 2445.71 2408.62 2436.57 2422.24 2427L2422.82 2427.81C2409.17 2437.4 2395.17 2446.55 2380.82 2455.24ZM2462.82 2397.58L2462.19 2396.8C2475.18 2386.25 2487.78 2375.27 2499.96 2363.87L2500.64 2364.6C2488.45 2376.02 2475.83 2387.01 2462.82 2397.58ZM2536.03 2329.04L2535.3 2328.36C2546.65 2316.11 2557.56 2303.46 2568.01 2290.41L2568.78 2291.04C2558.33 2304.1 2547.4 2316.77 2536.03 2329.04ZM2598.7 2250.75C2608.15 2237 2617.12 2222.87 2625.59 2208.4L2624.72 2207.89C2616.27 2222.35 2607.32 2236.45 2597.87 2250.19L2598.7 2250.75ZM2649.31 2164.17L2648.41 2163.73C2655.73 2148.79 2662.53 2133.52 2668.8 2117.94L2669.72 2118.31C2663.45 2133.91 2656.64 2149.2 2649.31 2164.17ZM2686.73 2071.12L2685.77 2070.82C2688.32 2062.87 2690.72 2054.85 2692.99 2046.76C2695.33 2038.38 2697.56 2030.07 2699.68 2021.81L2700.65 2022.06C2698.53 2030.32 2696.3 2038.64 2693.95 2047.03C2691.68 2055.13 2689.27 2063.16 2686.73 2071.12ZM2712.34 1972.14C2715.95 1954.98 2719.07 1938.1 2721.71 1921.47L2720.72 1921.31C2718.08 1937.93 2714.97 1954.79 2711.36 1971.93L2712.34 1972.14Z" fill="#231F20"/>
<g filter="url(#filter0_dddddd_2558_34563)">
<path fill-rule="evenodd" clip-rule="evenodd" d="M2130.59 1213.52C2223.93 1213.52 2299.59 1137.86 2299.59 1044.52C2299.59 951.183 2223.93 875.52 2130.59 875.52C2037.25 875.52 1961.59 951.183 1961.59 1044.52C1961.59 1137.86 2037.25 1213.52 2130.59 1213.52ZM2130.59 1216.52C2225.58 1216.52 2302.59 1139.51 2302.59 1044.52C2302.59 949.527 2225.58 872.52 2130.59 872.52C2035.6 872.52 1958.59 949.527 1958.59 1044.52C1958.59 1139.51 2035.6 1216.52 2130.59 1216.52Z" fill="#231F20"/>
</g>
<g filter="url(#filter1_dddddd_2558_34563)">
<path d="M1458.02 1156.16L1458.02 1156.15C1477.19 1136.76 1487.39 1126.68 1494.59 1121.68C1498.15 1119.21 1500.87 1118.06 1503.49 1117.61C1506.15 1117.16 1508.84 1117.39 1512.44 1117.94L1512.48 1117.94L1512.51 1117.95C1520.81 1118.82 1577.88 1127.16 1638.98 1136.4L1638.99 1136.4L1750.15 1152.65L1750.94 1152.77L1751.51 1152.21L1770.84 1133.32C1770.84 1133.32 1770.84 1133.32 1770.84 1133.32M1458.02 1156.16L1800.04 1116.35C1790.81 1114.15 1785.54 1116.79 1769.72 1132.17L1770.84 1133.32M1458.02 1156.16L1417.62 1196.55V1219.17V1242.02V1243.63H1416.02H1392.73H1370.55L1244.92 1369.27C1203.84 1410.57 1172.11 1443.29 1150.43 1466.67C1139.6 1478.36 1131.28 1487.7 1125.58 1494.6C1122.73 1498.05 1120.54 1500.87 1119.03 1503.06C1118.27 1504.15 1117.69 1505.07 1117.28 1505.81C1116.86 1506.58 1116.67 1507.07 1116.61 1507.34L1116.6 1507.37L1116.59 1507.41C1115.77 1510.51 1115.33 1515.18 1115.33 1520.28C1115.33 1525.37 1115.76 1530.76 1116.62 1535.25L1116.62 1535.28L1116.63 1535.31C1117.13 1538.51 1118.54 1542.16 1122.22 1547.64C1125.92 1553.14 1131.84 1560.39 1141.27 1570.78C1160.14 1591.56 1192.84 1624.71 1249.31 1681.18C1305.78 1737.66 1338.92 1770.36 1359.7 1789.23C1370.1 1798.66 1377.35 1804.58 1382.84 1808.28C1388.32 1811.96 1391.97 1813.37 1395.17 1813.87L1395.2 1813.88L1395.23 1813.88C1399.72 1814.74 1405.11 1815.17 1410.19 1815.17C1415.3 1815.17 1419.97 1814.74 1423.07 1813.91L1423.1 1813.9L1423.14 1813.89C1423.41 1813.83 1423.9 1813.64 1424.67 1813.22C1425.41 1812.81 1426.32 1812.23 1427.42 1811.48C1429.6 1809.96 1432.42 1807.77 1435.88 1804.92C1442.78 1799.22 1452.11 1790.91 1463.8 1780.06C1487.18 1758.39 1519.9 1726.65 1561.2 1685.57L1686.83 1559.93V1537.75V1514.46V1512.85H1688.43H1711.72H1733.9L1774.73 1472.02L1815.03 1431.72L1803.72 1353.88C1803.72 1353.87 1803.72 1353.87 1803.72 1353.87C1800.28 1331.18 1796.37 1304.92 1792.85 1281.31C1789.62 1259.63 1786.72 1240.18 1784.83 1227.76L1784.83 1227.76L1777.8 1179.86L1777.68 1179.06L1778.25 1178.49L1797.13 1159.61C1797.13 1159.61 1797.13 1159.6 1797.14 1159.6C1804.84 1151.68 1809.17 1146.57 1811.35 1142.36C1813.45 1138.32 1813.56 1135.11 1812.54 1130.79C1810.92 1124.35 1806.1 1119.53 1799.66 1117.91M1458.02 1156.16L1799.66 1117.91M1770.84 1133.32C1778.77 1125.61 1783.88 1121.28 1788.09 1119.1C1792.13 1117 1795.34 1116.89 1799.66 1117.91M1770.84 1133.32L1799.66 1117.91M1578.79 1275.02L1578.79 1275.02C1580.64 1267.85 1586.65 1258.29 1593.56 1250C1597.03 1245.83 1600.79 1241.92 1604.44 1238.74C1608.07 1235.57 1611.69 1233.05 1614.89 1231.75L1614.89 1231.74C1623.31 1228.33 1634.34 1227.12 1645.05 1227.9C1655.75 1228.68 1666.36 1231.46 1673.91 1236.26C1708.63 1257.47 1713.6 1306.64 1683.37 1334.17C1674.28 1342.59 1666.16 1348.04 1657.39 1350.78C1648.59 1353.52 1639.3 1353.49 1627.94 1351.26C1611.81 1348.3 1597.52 1337.1 1588.28 1322.82C1579.03 1308.53 1574.7 1290.93 1578.79 1275.02ZM1469.48 1260.7L1469.48 1260.71L1469.49 1260.71C1478.74 1270.84 1484.45 1278.97 1486.59 1285.87C1487.68 1289.36 1487.87 1292.59 1487.1 1295.62C1486.33 1298.65 1484.64 1301.34 1482.18 1303.8C1476.21 1309.77 1468.54 1311.27 1460.03 1308.65C1451.63 1306.06 1442.39 1299.46 1432.86 1289.26L1432.85 1289.25L1432.84 1289.25C1423.6 1279.12 1417.89 1270.99 1415.74 1264.09C1414.66 1260.6 1414.47 1257.37 1415.23 1254.34C1416 1251.31 1417.69 1248.62 1420.15 1246.16C1426.12 1240.19 1433.8 1238.69 1442.3 1241.31C1450.7 1243.9 1459.94 1250.5 1469.48 1260.7ZM1503.66 1352.73L1503.65 1352.71L1503.65 1352.69C1501.94 1345.61 1505.13 1338.26 1510.23 1333.21C1515.32 1328.18 1522.67 1325.1 1529.74 1327.02C1530.59 1327.19 1531.55 1327.62 1532.54 1328.16C1533.58 1328.74 1534.79 1329.52 1536.11 1330.46C1538.75 1332.33 1541.97 1334.91 1545.53 1337.97C1552.66 1344.1 1561.26 1352.27 1569.63 1360.86C1578.22 1369.67 1586.26 1378.37 1592.33 1385.37C1595.36 1388.87 1597.91 1391.97 1599.79 1394.44C1600.73 1395.68 1601.52 1396.78 1602.12 1397.71C1602.69 1398.6 1603.16 1399.44 1603.4 1400.13C1605.41 1405.94 1602.84 1412.99 1598.7 1418.39C1594.54 1423.8 1588.31 1428.19 1582.1 1428.19C1581.08 1428.19 1579.95 1427.87 1578.8 1427.4C1577.62 1426.92 1576.29 1426.23 1574.86 1425.38C1572 1423.68 1568.58 1421.26 1564.84 1418.34C1557.34 1412.5 1548.42 1404.58 1539.74 1396.21C1531.06 1387.83 1522.61 1378.98 1516.06 1371.26C1512.79 1367.41 1509.98 1363.82 1507.85 1360.7C1505.76 1357.63 1504.23 1354.88 1503.66 1352.73ZM1442.36 1353.15L1442.36 1353.16L1442.37 1353.16C1461.39 1365.39 1470.36 1387.29 1469.75 1408.55C1469.13 1429.82 1458.91 1450.75 1439.16 1460.96L1439.16 1460.96C1384.31 1489.29 1325.09 1434.43 1351.29 1379.31C1358.94 1363.11 1375.55 1348.7 1391.44 1344.61C1398.14 1342.77 1407.85 1343.03 1417.28 1344.64C1426.72 1346.25 1436.18 1349.26 1442.36 1353.15ZM1669.75 1460.98L1669.75 1460.99L1669.76 1461C1679.96 1470.53 1686.56 1479.77 1689.15 1488.17C1691.77 1496.68 1690.27 1504.35 1684.3 1510.33C1681.84 1512.79 1679.15 1514.48 1676.12 1515.24C1673.09 1516.01 1669.86 1515.82 1666.37 1514.73C1659.47 1512.59 1651.34 1506.88 1641.22 1497.63L1641.21 1497.63L1641.2 1497.62C1631 1488.08 1624.4 1478.85 1621.81 1470.44C1619.19 1461.94 1620.69 1454.26 1626.66 1448.29C1629.13 1445.83 1631.81 1444.14 1634.84 1443.37C1637.87 1442.61 1641.1 1442.8 1644.59 1443.88C1651.49 1446.03 1659.62 1451.74 1669.75 1460.98ZM1461.33 1672.17L1461.33 1672.17C1449.11 1692.31 1426.64 1701.63 1404.86 1700.73C1383.08 1699.84 1361.71 1688.71 1351.73 1667.63C1347.05 1657.81 1344.66 1648.79 1344.6 1639.76C1344.55 1630.74 1346.82 1621.82 1351.29 1612.21L1351.29 1612.2C1367.53 1577.93 1410.36 1565.76 1442.36 1586.49C1455.76 1594.89 1464.64 1609.47 1468.12 1625.29C1471.59 1641.11 1469.71 1658.36 1461.33 1672.17ZM1561.78 1475.24C1565.72 1476.36 1569.19 1478.12 1571.05 1480.49C1575.02 1485.23 1575.48 1492.65 1573.83 1499.05C1572.18 1505.43 1568.2 1511.57 1562.38 1513.36C1560.28 1514.05 1554.12 1515.5 1545.08 1517.48C1535.96 1519.47 1523.79 1522.04 1509.6 1524.96C1481.23 1530.81 1444.78 1538.12 1408.53 1545.26C1372.28 1552.4 1336.21 1559.38 1308.61 1564.57C1294.81 1567.17 1283.12 1569.32 1274.57 1570.82C1270.3 1571.57 1266.8 1572.16 1264.22 1572.56C1261.72 1572.95 1259.92 1573.19 1259.16 1573.19C1247.99 1573.19 1241.58 1564.4 1240.53 1555.18C1239.48 1545.97 1243.68 1535.64 1254.27 1532.27C1259.44 1530.58 1279.49 1526.11 1306.72 1520.37C1334.02 1514.62 1368.68 1507.56 1403.18 1500.69C1437.68 1493.82 1472.01 1487.15 1498.65 1482.16C1511.98 1479.67 1523.38 1477.6 1531.93 1476.14C1540.38 1474.69 1546.19 1473.81 1548.21 1473.75C1552.98 1473.52 1557.77 1474.09 1561.78 1475.24Z" fill="white" stroke="black" stroke-width="3.21554"/>
<path d="M1629.56 1274.1C1624.28 1278.06 1622.09 1284.21 1623.4 1292.56C1624.72 1303.98 1626.92 1305.74 1638.78 1307.06C1650.65 1308.38 1654.16 1306.62 1658.56 1297.39C1662.51 1287.72 1662.07 1284.65 1655.48 1277.18C1646.25 1267.07 1640.54 1266.19 1629.56 1274.1Z" fill="white"/>
<path d="M1395.81 1390.55C1379.11 1401.97 1392.73 1430.09 1412.94 1424.82C1426.12 1421.75 1431.84 1408.56 1424.81 1395.82C1419.97 1387.03 1405.03 1384.39 1395.81 1390.55Z" fill="white"/>
<path d="M1395.81 1623.44C1379.11 1634.86 1392.73 1662.98 1412.94 1657.71C1426.12 1654.64 1431.84 1641.45 1424.81 1628.71C1419.97 1619.92 1405.03 1617.29 1395.81 1623.44Z" fill="white"/>
</g>
<g clip-path="url(#clip1_2558_34563)" filter="url(#filter2_dddd_2558_34563)">
<path d="M923.118 824.713C921.212 829.931 923.874 835.657 929.091 837.563L1152.93 919.332C1158.14 921.238 1163.87 918.576 1165.78 913.359L1275.39 613.311C1277.29 608.094 1274.63 602.367 1269.41 600.461L1045.58 518.692C1040.36 516.786 1034.63 519.448 1032.73 524.666L923.118 824.713Z" fill="white"/>
<path d="M931.376 840.508L1155.21 922.277C1161.86 924.706 1169.16 921.227 1171.55 914.68L1281.16 614.632C1283.59 607.983 1280.11 600.682 1273.57 598.291L1049.73 516.522C1043.08 514.092 1035.78 517.571 1033.39 524.118L923.78 824.166C921.35 830.816 924.829 838.116 931.376 840.508ZM1271.7 603.406C1275.48 604.788 1277.43 608.979 1276.05 612.764L1166.44 912.811C1165.05 916.597 1160.86 918.544 1157.08 917.162L933.245 835.393C929.46 834.01 927.512 829.82 928.895 826.035L1038.51 525.987C1039.89 522.202 1044.08 520.254 1047.86 521.637L1271.7 603.406Z" fill="#231F20"/>
<path d="M1168.46 735.563L1197.41 746.139C1200.89 747.41 1204.7 745.554 1205.93 742.179L1216.25 713.943C1217.52 710.465 1215.66 706.657 1212.29 705.423L1183.34 694.847C1179.86 693.577 1176.05 695.432 1174.82 698.808L1164.5 727.043C1163.17 730.382 1164.98 734.292 1168.46 735.563ZM1210.46 710.436C1211.07 710.66 1211.39 711.359 1211.17 711.973L1200.86 740.208C1200.63 740.821 1199.93 741.146 1199.32 740.922L1170.37 730.346C1169.75 730.121 1169.43 729.423 1169.65 728.809L1179.97 700.574C1180.19 699.96 1180.89 699.636 1181.5 699.86L1210.46 710.436Z" fill="#231F20"/>
<path d="M1116.59 716.615L1145.55 727.191C1149.02 728.462 1152.83 726.606 1154.07 723.23L1164.38 694.995C1165.65 691.517 1163.8 687.708 1160.42 686.475L1131.47 675.899C1127.99 674.628 1124.18 676.484 1122.95 679.86L1112.63 708.095C1111.3 711.433 1113.12 715.344 1116.59 716.615ZM1158.49 691.451C1159.1 691.675 1159.42 692.373 1159.2 692.987L1148.89 721.222C1148.66 721.836 1147.96 722.16 1147.35 721.936L1118.4 711.36C1117.78 711.136 1117.46 710.437 1117.68 709.824L1128 681.589C1128.22 680.975 1128.92 680.65 1129.54 680.874L1158.49 691.451Z" fill="#231F20"/>
<path d="M1064.63 697.63L1093.58 708.207C1097.06 709.477 1100.87 707.622 1102.1 704.246L1112.41 676.011C1113.68 672.533 1111.83 668.724 1108.45 667.491L1079.5 656.915C1076.02 655.644 1072.22 657.499 1070.98 660.875L1060.67 689.11C1059.43 692.486 1061.15 696.36 1064.63 697.63ZM1106.62 672.504C1107.24 672.728 1107.56 673.426 1107.34 674.04L1097.02 702.275C1096.8 702.889 1096.1 703.213 1095.49 702.989L1066.53 692.413C1065.92 692.189 1065.6 691.49 1065.82 690.877L1076.13 662.642C1076.36 662.028 1077.06 661.703 1077.67 661.927L1106.62 672.504Z" fill="#231F20"/>
<path d="M1012.76 678.683L1041.71 689.259C1045.19 690.53 1049 688.675 1050.23 685.299L1060.55 657.064C1061.82 653.585 1059.96 649.777 1056.59 648.544L1027.63 637.967C1024.16 636.697 1020.35 638.552 1019.11 641.928L1008.8 670.163C1007.46 673.502 1009.28 677.412 1012.76 678.683ZM1054.75 653.556C1055.37 653.781 1055.69 654.479 1055.47 655.093L1045.15 683.328C1044.93 683.941 1044.23 684.266 1043.62 684.042L1014.67 673.466C1014.05 673.242 1013.73 672.543 1013.95 671.929L1024.27 643.694C1024.49 643.081 1025.19 642.756 1025.8 642.98L1054.75 653.556Z" fill="#231F20"/>
<path d="M1150.79 783.95L1179.74 794.526C1183.22 795.796 1187.03 793.941 1188.26 790.565L1198.58 762.33C1199.85 758.852 1197.99 755.043 1194.62 753.81L1165.66 743.234C1162.19 741.963 1158.38 743.819 1157.14 747.195L1146.83 775.43C1145.46 778.87 1147.31 782.679 1150.79 783.95ZM1192.75 758.925C1193.36 759.149 1193.69 759.848 1193.46 760.462L1183.15 788.697C1182.92 789.31 1182.22 789.635 1181.61 789.411L1152.66 778.835C1152.04 778.61 1151.72 777.912 1151.94 777.298L1162.26 749.063C1162.48 748.449 1163.18 748.125 1163.8 748.349L1192.75 758.925Z" fill="#231F20"/>
<path d="M1098.92 765.002L1127.87 775.578C1131.35 776.849 1135.16 774.994 1136.39 771.618L1146.7 743.383C1147.98 739.905 1146.12 736.096 1142.74 734.863L1113.79 724.287C1110.31 723.016 1106.51 724.871 1105.27 728.247L1094.96 756.482C1093.59 759.923 1095.44 763.732 1098.92 765.002ZM1140.77 739.941C1141.39 740.165 1141.71 740.863 1141.49 741.477L1131.17 769.712C1130.95 770.326 1130.25 770.65 1129.64 770.426L1100.69 759.85C1100.07 759.626 1099.75 758.927 1099.97 758.314L1110.29 730.079C1110.51 729.465 1111.21 729.14 1111.82 729.364L1140.77 739.941Z" fill="#231F20"/>
<path d="M1046.95 746.017L1075.9 756.593C1079.38 757.864 1083.18 756.008 1084.42 752.633L1094.73 724.398C1096 720.919 1094.15 717.111 1090.77 715.878L1061.82 705.301C1058.34 704.031 1054.53 705.886 1053.3 709.262L1042.99 737.497C1041.72 740.975 1043.47 744.746 1046.95 746.017ZM1088.9 720.993C1089.52 721.217 1089.84 721.915 1089.62 722.529L1079.3 750.764C1079.08 751.378 1078.38 751.702 1077.77 751.478L1048.81 740.902C1048.2 740.678 1047.88 739.979 1048.1 739.366L1058.42 711.131C1058.64 710.517 1059.34 710.192 1059.95 710.416L1088.9 720.993Z" fill="#231F20"/>
<path d="M995.087 727.072L1024.04 737.648C1027.52 738.918 1031.32 737.063 1032.56 733.687L1042.87 705.452C1044.14 701.974 1042.29 698.165 1038.91 696.932L1009.96 686.356C1006.48 685.085 1002.67 686.941 1001.44 690.317L991.126 718.552C989.753 721.993 991.609 725.801 995.087 727.072ZM1037.04 702.047C1037.66 702.271 1037.98 702.97 1037.76 703.584L1027.44 731.819C1027.22 732.432 1026.52 732.757 1025.91 732.533L996.956 721.957C996.342 721.732 996.017 721.034 996.241 720.42L1006.56 692.185C1006.78 691.572 1007.48 691.247 1008.09 691.471L1037.04 702.047Z" fill="#231F20"/>
<path d="M1133.07 832.441L1162.02 843.017C1165.5 844.288 1169.31 842.432 1170.54 839.056L1180.86 810.821C1182.13 807.343 1180.27 803.535 1176.9 802.301L1147.95 791.725C1144.47 790.455 1140.66 792.31 1139.43 795.686L1129.11 823.921C1127.78 827.259 1129.59 831.17 1133.07 832.441ZM1175.07 807.314C1175.68 807.538 1176 808.237 1175.78 808.851L1165.46 837.085C1165.24 837.699 1164.54 838.024 1163.93 837.8L1134.98 827.223C1134.36 826.999 1134.04 826.301 1134.26 825.687L1144.58 797.452C1144.8 796.838 1145.5 796.514 1146.11 796.738L1175.07 807.314Z" fill="#231F20"/>
<path d="M1081.21 813.495L1110.16 824.072C1113.64 825.342 1117.45 823.487 1118.68 820.111L1129 791.876C1130.27 788.398 1128.41 784.589 1125.03 783.356L1096.08 772.78C1092.61 771.509 1088.8 773.365 1087.56 776.741L1077.25 804.976C1075.91 808.314 1077.73 812.225 1081.21 813.495ZM1123.1 788.331C1123.72 788.556 1124.04 789.254 1123.82 789.868L1113.5 818.103C1113.28 818.717 1112.58 819.041 1111.96 818.817L1083.01 808.241C1082.4 808.017 1082.08 807.318 1082.3 806.704L1092.61 778.469C1092.84 777.856 1093.54 777.531 1094.15 777.755L1123.1 788.331Z" fill="#231F20"/>
<path d="M1029.24 794.51L1058.19 805.086C1061.67 806.357 1065.48 804.502 1066.71 801.126L1077.03 772.891C1078.3 769.412 1076.44 765.604 1073.06 764.371L1044.11 753.795C1040.64 752.524 1036.83 754.379 1035.59 757.755L1025.28 785.99C1024.05 789.366 1025.76 793.24 1029.24 794.51ZM1071.23 769.383C1071.85 769.608 1072.17 770.306 1071.95 770.92L1061.63 799.155C1061.41 799.769 1060.71 800.093 1060.1 799.869L1031.15 789.293C1030.53 789.069 1030.21 788.37 1030.43 787.756L1040.75 759.522C1040.97 758.908 1041.67 758.583 1042.28 758.807L1071.23 769.383Z" fill="#231F20"/>
<path d="M959.693 823.949L988.644 834.525C992.123 835.796 995.931 833.941 997.165 830.565L1025.16 753.941C1026.43 750.463 1024.57 746.655 1021.2 745.421L992.244 734.845C988.766 733.575 984.957 735.43 983.724 738.806L955.733 815.429C954.397 818.768 956.215 822.679 959.693 823.949ZM1019.36 750.434C1019.98 750.658 1020.3 751.357 1020.08 751.971L992.087 828.594C991.863 829.208 991.164 829.532 990.55 829.308L961.599 818.732C960.986 818.508 960.661 817.809 960.885 817.195L988.877 740.572C989.101 739.958 989.799 739.634 990.413 739.858L1019.36 750.434Z" fill="#231F20"/>
<path d="M1115.39 880.83L1144.34 891.406C1147.82 892.676 1151.63 890.821 1152.86 887.445L1163.18 859.21C1164.45 855.732 1162.59 851.923 1159.22 850.69L1130.27 840.114C1126.79 838.843 1122.98 840.699 1121.75 844.075L1111.43 872.31C1110.1 875.648 1111.92 879.559 1115.39 880.83ZM1157.39 855.703C1158 855.927 1158.33 856.625 1158.1 857.239L1147.79 885.474C1147.56 886.088 1146.86 886.413 1146.25 886.188L1117.3 875.612C1116.69 875.388 1116.36 874.69 1116.59 874.076L1126.9 845.841C1127.12 845.227 1127.82 844.902 1128.44 845.127L1157.39 855.703Z" fill="#231F20"/>
<path d="M1063.52 861.879L1092.48 872.456C1095.95 873.726 1099.76 871.871 1101 868.495L1111.31 840.26C1112.58 836.782 1110.73 832.973 1107.35 831.74L1078.4 821.164C1074.92 819.893 1071.11 821.748 1069.88 825.124L1059.56 853.359C1058.23 856.698 1060.05 860.609 1063.52 861.879ZM1105.42 836.715C1106.03 836.939 1106.35 837.638 1106.13 838.252L1095.82 866.487C1095.59 867.1 1094.89 867.425 1094.28 867.201L1065.33 856.625C1064.71 856.401 1064.39 855.702 1064.61 855.088L1074.93 826.853C1075.15 826.239 1075.85 825.915 1076.46 826.139L1105.42 836.715Z" fill="#231F20"/>
<path d="M1011.55 842.895L1040.5 853.471C1043.98 854.742 1047.79 852.886 1049.02 849.511L1059.34 821.275C1060.61 817.797 1058.75 813.989 1055.38 812.755L1026.43 802.179C1022.95 800.909 1019.14 802.764 1017.91 806.14L1007.59 834.375C1006.36 837.751 1008.08 841.624 1011.55 842.895ZM1053.55 817.768C1054.16 817.992 1054.49 818.691 1054.26 819.305L1043.95 847.54C1043.72 848.153 1043.02 848.478 1042.41 848.254L1013.46 837.678C1012.85 837.453 1012.52 836.755 1012.75 836.141L1023.06 807.906C1023.28 807.292 1023.98 806.968 1024.6 807.192L1053.55 817.768Z" fill="#231F20"/>
<path d="M1033.98 623.127L1216.9 689.948C1220.89 691.405 1225.22 689.392 1226.67 685.403L1248.05 626.887C1249.51 622.897 1247.49 618.567 1243.5 617.11L1060.59 550.289C1056.6 548.832 1052.27 550.844 1050.81 554.834L1029.44 613.35C1028.02 617.238 1030.1 621.707 1033.98 623.127ZM1241.64 622.225C1242.76 622.636 1243.35 623.893 1242.93 625.018L1221.56 683.534C1221.15 684.659 1219.89 685.244 1218.76 684.833L1035.85 618.012C1034.73 617.601 1034.14 616.344 1034.55 615.219L1055.93 556.703C1056.34 555.577 1057.6 554.993 1058.72 555.404L1241.64 622.225Z" fill="#231F20"/>
</g>
<g filter="url(#filter3_dddddd_2558_34563)">
<path d="M2302.59 1044.52C2302.59 1139.51 2225.58 1216.52 2130.59 1216.52C2035.6 1216.52 1958.59 1139.51 1958.59 1044.52C1958.59 949.527 2035.6 872.52 2130.59 872.52C2225.58 872.52 2302.59 949.527 2302.59 1044.52Z" fill="white"/>
<path d="M2301.59 1044.52C2301.59 1138.96 2225.03 1215.52 2130.59 1215.52C2036.15 1215.52 1959.59 1138.96 1959.59 1044.52C1959.59 950.079 2036.15 873.52 2130.59 873.52C2225.03 873.52 2301.59 950.079 2301.59 1044.52Z" stroke="black" stroke-width="2"/>
</g>
<path d="M2155.84 1074.82L2153.09 1069.29C2151.06 1065.23 2150.05 1061.06 2150.06 1056.8C2150.1 1052.51 2151.26 1048.5 2153.53 1044.77C2155.81 1041.04 2159.3 1037.99 2164.01 1035.65C2168.87 1033.23 2173.45 1032.25 2177.77 1032.7C2182.07 1033.11 2185.9 1034.61 2189.28 1037.19C2192.69 1039.76 2195.41 1043.09 2197.45 1047.19L2200.21 1052.72C2202.24 1056.79 2203.25 1060.95 2203.24 1065.22C2203.23 1069.48 2202.09 1073.49 2199.82 1077.22C2197.58 1080.94 2194.06 1083.99 2189.28 1086.37C2184.5 1088.75 2179.93 1089.72 2175.58 1089.29C2171.23 1088.86 2167.35 1087.36 2163.94 1084.79C2160.57 1082.21 2157.87 1078.89 2155.84 1074.82ZM2166.46 1062.63L2169.21 1068.16C2170.56 1070.86 2172.44 1073.01 2174.86 1074.62C2177.28 1076.23 2180.13 1076.22 2183.41 1074.58C2186.73 1072.93 2188.44 1070.69 2188.57 1067.86C2188.71 1064.98 2188.1 1062.17 2186.74 1059.43L2183.98 1053.9C2182.62 1051.17 2180.78 1048.97 2178.46 1047.31C2176.13 1045.62 2173.25 1045.63 2169.83 1047.33C2166.62 1048.93 2164.92 1051.2 2164.73 1054.15C2164.52 1057.07 2165.1 1059.9 2166.46 1062.63ZM2072.6 1041.35L2069.84 1035.81C2067.8 1031.72 2066.8 1027.52 2066.84 1023.24C2066.88 1018.96 2068.04 1014.97 2070.34 1011.27C2072.61 1007.53 2076.11 1004.49 2080.82 1002.14C2085.64 999.744 2090.2 998.77 2094.52 999.22C2098.85 999.619 2102.71 1001.11 2106.08 1003.69C2109.46 1006.27 2112.17 1009.61 2114.21 1013.71L2116.96 1019.24C2119.01 1023.34 2120.02 1027.53 2120.02 1031.79C2120.03 1036.01 2118.89 1039.97 2116.6 1043.66C2114.3 1047.36 2110.78 1050.4 2106.04 1052.76C2101.22 1055.16 2096.64 1056.16 2092.31 1055.76C2088.01 1055.35 2084.16 1053.86 2080.75 1051.29C2077.34 1048.73 2074.62 1045.41 2072.6 1041.35ZM2083.31 1029.1L2086.07 1034.63C2087.43 1037.37 2089.31 1039.55 2091.69 1041.17C2094.1 1042.74 2096.94 1042.71 2100.22 1041.08C2103.5 1039.45 2105.2 1037.21 2105.32 1034.38C2105.46 1031.5 2104.85 1028.69 2103.49 1025.96L2100.73 1020.42C2099.37 1017.69 2097.53 1015.5 2095.21 1013.84C2092.88 1012.14 2090.02 1012.14 2086.64 1013.82C2083.39 1015.44 2081.69 1017.72 2081.53 1020.65C2081.38 1023.59 2081.97 1026.4 2083.31 1029.1ZM2118.15 1118.16L2138.02 977.295L2150.83 970.915L2130.96 1111.78L2118.15 1118.16Z" fill="black"/>
<g filter="url(#filter4_dddddd_2558_34563)">
<path d="M2303 1772C2303 1840.48 2358.52 1896 2427 1896C2495.48 1896 2551 1840.48 2551 1772C2551 1703.52 2495.48 1648 2427 1648C2358.52 1648 2303 1703.52 2303 1772Z" fill="white"/>
<path d="M2303.72 1772C2303.72 1840.09 2358.91 1895.28 2427 1895.28C2495.09 1895.28 2550.28 1840.09 2550.28 1772C2550.28 1703.91 2495.09 1648.72 2427 1648.72C2358.91 1648.72 2303.72 1703.91 2303.72 1772Z" stroke="black" stroke-width="1.44186"/>
</g>
<path d="M2420.15 1798.78L2420.15 1794.33C2420.15 1791.05 2419.46 1788.04 2418.08 1785.29C2416.68 1782.54 2414.65 1780.32 2411.98 1778.64C2409.31 1776.97 2406.08 1776.13 2402.28 1776.13C2398.37 1776.13 2395.1 1776.97 2392.46 1778.64C2389.82 1780.3 2387.82 1782.5 2386.48 1785.25C2385.1 1788 2384.41 1791.02 2384.41 1794.33L2384.41 1798.78C2384.41 1802.06 2385.1 1805.07 2386.48 1807.82C2387.85 1810.57 2389.87 1812.78 2392.54 1814.46C2395.18 1816.14 2398.43 1816.98 2402.28 1816.98C2406.13 1816.98 2409.39 1816.14 2412.06 1814.46C2414.73 1812.78 2416.75 1810.57 2418.13 1807.82C2419.47 1805.07 2420.15 1802.06 2420.15 1798.78ZM2409.38 1794.33L2409.38 1798.78C2409.38 1800.96 2408.85 1802.95 2407.81 1804.77C2406.76 1806.58 2404.92 1807.49 2402.28 1807.49C2399.61 1807.49 2397.78 1806.59 2396.79 1804.81C2395.77 1802.99 2395.26 1800.98 2395.26 1798.78L2395.26 1794.33C2395.26 1792.12 2395.75 1790.12 2396.71 1788.3C2397.67 1786.46 2399.53 1785.54 2402.28 1785.54C2404.87 1785.54 2406.7 1786.46 2407.77 1788.3C2408.84 1790.12 2409.38 1792.12 2409.38 1794.33ZM2463.11 1750.42L2463.11 1745.96C2463.11 1742.66 2462.4 1739.64 2461 1736.88C2459.6 1734.13 2457.56 1731.93 2454.89 1730.28C2452.22 1728.6 2448.99 1727.76 2445.2 1727.76C2441.32 1727.76 2438.06 1728.6 2435.42 1730.28C2432.75 1731.93 2430.74 1734.13 2429.39 1736.88C2428.04 1739.64 2427.37 1742.66 2427.37 1745.96L2427.37 1750.42C2427.37 1753.72 2428.06 1756.75 2429.43 1759.5C2430.78 1762.22 2432.79 1764.41 2435.46 1766.06C2438.13 1767.71 2441.37 1768.53 2445.2 1768.53C2449.07 1768.53 2452.35 1767.71 2455.02 1766.06C2457.66 1764.41 2459.67 1762.21 2461.04 1759.46C2462.42 1756.71 2463.11 1753.69 2463.11 1750.42ZM2452.25 1745.96L2452.25 1750.42C2452.25 1752.62 2451.74 1754.63 2450.73 1756.44C2449.68 1758.23 2447.84 1759.13 2445.2 1759.13C2442.55 1759.13 2440.74 1758.23 2439.75 1756.44C2438.73 1754.63 2438.22 1752.62 2438.22 1750.42L2438.22 1745.96C2438.22 1743.76 2438.7 1741.75 2439.67 1739.94C2440.63 1738.09 2442.47 1737.17 2445.2 1737.17C2447.81 1737.17 2449.64 1738.09 2450.68 1739.94C2451.73 1741.78 2452.25 1743.79 2452.25 1745.96ZM2458.4 1814.63L2400.3 1730.12L2389.98 1730.12L2448.08 1814.63L2458.4 1814.63Z" fill="black"/>
<g filter="url(#filter5_dddddd_2558_34563)">
<path d="M401 1338C401 1428.02 473.978 1501 564 1501C654.022 1501 727 1428.02 727 1338C727 1247.98 654.022 1175 564 1175C473.978 1175 401 1247.98 401 1338Z" fill="white"/>
<path d="M401.948 1338C401.948 1427.5 474.501 1500.05 564 1500.05C653.499 1500.05 726.052 1427.5 726.052 1338C726.052 1248.5 653.499 1175.95 564 1175.95C474.501 1175.95 401.948 1248.5 401.948 1338Z" stroke="black" stroke-width="1.89535"/>
</g>
<path d="M554.994 1372.67L554.994 1366.81C554.994 1362.5 554.09 1358.54 552.282 1354.93C550.438 1351.31 547.762 1348.4 544.254 1346.19C540.746 1343.99 536.497 1342.89 531.506 1342.89C526.371 1342.89 522.068 1343.99 518.596 1346.19C515.125 1348.36 512.503 1351.26 510.731 1354.87C508.923 1358.49 508.019 1362.47 508.019 1366.81L508.019 1372.67C508.019 1376.97 508.923 1380.93 510.731 1384.54C512.539 1388.16 515.197 1391.07 518.705 1393.28C522.176 1395.48 526.444 1396.59 531.506 1396.59C536.569 1396.59 540.855 1395.48 544.362 1393.28C547.87 1391.07 550.528 1388.16 552.336 1384.54C554.108 1380.93 554.994 1376.97 554.994 1372.67ZM540.836 1366.81L540.836 1372.67C540.836 1375.52 540.149 1378.14 538.775 1380.53C537.401 1382.92 534.978 1384.11 531.506 1384.11C527.999 1384.11 525.594 1382.94 524.292 1380.59C522.954 1378.2 522.285 1375.56 522.285 1372.67L522.285 1366.81C522.285 1363.91 522.918 1361.27 524.184 1358.89C525.449 1356.46 527.89 1355.25 531.506 1355.25C534.906 1355.25 537.311 1356.46 538.721 1358.89C540.131 1361.27 540.836 1363.91 540.836 1366.81ZM611.462 1309.09L611.462 1303.23C611.462 1298.89 610.54 1294.92 608.696 1291.3C606.851 1287.68 604.175 1284.79 600.668 1282.62C597.16 1280.41 592.911 1279.31 587.92 1279.31C582.821 1279.31 578.536 1280.41 575.064 1282.62C571.557 1284.79 568.917 1287.68 567.145 1291.3C565.373 1294.92 564.487 1298.89 564.487 1303.23L564.487 1309.09C564.487 1313.43 565.391 1317.41 567.199 1321.03C568.971 1324.61 571.611 1327.48 575.119 1329.65C578.626 1331.82 582.894 1332.9 587.92 1332.9C593.019 1332.9 597.322 1331.82 600.83 1329.65C604.302 1327.48 606.942 1324.59 608.75 1320.97C610.558 1317.35 611.462 1313.39 611.462 1309.09ZM597.196 1303.23L597.196 1309.09C597.196 1311.98 596.527 1314.62 595.189 1317.01C593.815 1319.36 591.392 1320.54 587.92 1320.54C584.449 1320.54 582.062 1319.36 580.76 1317.01C579.422 1314.62 578.753 1311.98 578.753 1309.09L578.753 1303.23C578.753 1300.34 579.386 1297.7 580.652 1295.31C581.917 1292.89 584.34 1291.68 587.92 1291.68C591.356 1291.68 593.76 1292.89 595.135 1295.31C596.509 1297.74 597.196 1300.38 597.196 1303.23ZM605.278 1393.5L528.903 1282.4L515.342 1282.4L591.717 1393.5L605.278 1393.5Z" fill="black"/>
<g filter="url(#filter6_dddddd_2558_34563)">
<path d="M494.999 1624.02C494.999 1674.84 536.196 1716.03 587.015 1716.03C637.834 1716.03 679.031 1674.84 679.031 1624.02C679.031 1573.2 637.834 1532 587.015 1532C536.196 1532 494.999 1573.2 494.999 1624.02Z" fill="white"/>
<path d="M495.534 1624.02C495.534 1674.54 536.491 1715.5 587.015 1715.5C637.539 1715.5 678.496 1674.54 678.496 1624.02C678.496 1573.49 637.539 1532.53 587.015 1532.53C536.491 1532.53 495.534 1573.49 495.534 1624.02Z" stroke="black" stroke-width="1.06995"/>
</g>
<path d="M581.931 1643.04L581.931 1639.73C581.931 1637.3 581.421 1635.07 580.4 1633.02C579.359 1630.98 577.848 1629.34 575.868 1628.09C573.888 1626.85 571.489 1626.23 568.672 1626.23C565.773 1626.23 563.344 1626.85 561.384 1628.09C559.424 1629.32 557.944 1630.95 556.944 1632.99C555.923 1635.03 555.413 1637.28 555.413 1639.73L555.413 1643.04C555.413 1645.47 555.923 1647.7 556.944 1649.74C557.965 1651.78 559.465 1653.43 561.446 1654.67C563.405 1655.92 565.814 1656.54 568.672 1656.54C571.53 1656.54 573.949 1655.92 575.93 1654.67C577.91 1653.43 579.41 1651.78 580.431 1649.74C581.431 1647.7 581.931 1645.47 581.931 1643.04ZM573.939 1639.73L573.939 1643.04C573.939 1644.65 573.551 1646.13 572.776 1647.48C572 1648.82 570.632 1649.5 568.672 1649.5C566.692 1649.5 565.334 1648.83 564.6 1647.51C563.844 1646.16 563.467 1644.67 563.467 1643.04L563.467 1639.73C563.467 1638.1 563.824 1636.61 564.538 1635.26C565.253 1633.89 566.631 1633.21 568.672 1633.21C570.591 1633.21 571.949 1633.89 572.745 1635.26C573.541 1636.61 573.939 1638.1 573.939 1639.73ZM613.808 1607.15L613.808 1603.84C613.808 1601.39 613.288 1599.15 612.247 1597.1C611.206 1595.06 609.695 1593.43 607.715 1592.21C605.735 1590.96 603.336 1590.34 600.519 1590.34C597.64 1590.34 595.221 1590.96 593.261 1592.21C591.281 1593.43 589.791 1595.06 588.791 1597.1C587.79 1599.15 587.29 1601.39 587.29 1603.84L587.29 1607.15C587.29 1609.6 587.801 1611.84 588.821 1613.89C589.822 1615.91 591.312 1617.53 593.292 1618.75C595.272 1619.98 597.681 1620.59 600.519 1620.59C603.397 1620.59 605.826 1619.98 607.807 1618.75C609.766 1617.53 611.257 1615.9 612.277 1613.85C613.298 1611.81 613.808 1609.58 613.808 1607.15ZM605.755 1603.84L605.755 1607.15C605.755 1608.78 605.377 1610.27 604.622 1611.62C603.846 1612.95 602.478 1613.61 600.519 1613.61C598.559 1613.61 597.212 1612.95 596.477 1611.62C595.721 1610.27 595.344 1608.78 595.344 1607.15L595.344 1603.84C595.344 1602.21 595.701 1600.72 596.415 1599.37C597.13 1598 598.498 1597.32 600.519 1597.32C602.458 1597.32 603.816 1598 604.591 1599.37C605.367 1600.74 605.755 1602.23 605.755 1603.84ZM610.318 1654.8L567.202 1592.08L559.547 1592.08L602.662 1654.8L610.318 1654.8Z" fill="black"/>
<g filter="url(#filter7_dddddd_2558_34563)">
<path d="M1998 741.5C1998 784.302 2032.7 819 2075.5 819C2118.3 819 2153 784.302 2153 741.5C2153 698.698 2118.3 664 2075.5 664C2032.7 664 1998 698.698 1998 741.5Z" fill="white"/>
<path d="M1998.45 741.5C1998.45 784.053 2032.95 818.549 2075.5 818.549C2118.05 818.549 2152.55 784.053 2152.55 741.5C2152.55 698.947 2118.05 664.451 2075.5 664.451C2032.95 664.451 1998.45 698.947 1998.45 741.5Z" stroke="black" stroke-width="0.901163"/>
</g>
<path d="M2064.25 754.895L2065.49 752.402C2066.41 750.57 2066.86 748.694 2066.86 746.771C2066.84 744.841 2066.32 743.035 2065.29 741.353C2064.27 739.67 2062.69 738.3 2060.57 737.242C2058.38 736.153 2056.32 735.71 2054.37 735.913C2052.44 736.101 2050.71 736.776 2049.19 737.939C2047.65 739.095 2046.42 740.596 2045.5 742.443L2044.26 744.936C2043.35 746.768 2042.89 748.644 2042.9 750.567C2042.9 752.489 2043.41 754.292 2044.44 755.974C2045.45 757.649 2047.03 759.023 2049.18 760.096C2051.34 761.169 2053.4 761.609 2055.36 761.413C2057.32 761.218 2059.07 760.543 2060.6 759.387C2062.12 758.224 2063.34 756.727 2064.25 754.895ZM2059.47 749.4L2058.23 751.894C2057.62 753.109 2056.77 754.08 2055.68 754.804C2054.59 755.528 2053.31 755.523 2051.83 754.787C2050.34 754.043 2049.56 753.033 2049.51 751.757C2049.44 750.457 2049.72 749.192 2050.33 747.961L2051.57 745.467C2052.19 744.236 2053.02 743.247 2054.06 742.5C2055.11 741.737 2056.41 741.739 2057.95 742.505C2059.39 743.226 2060.16 744.251 2060.25 745.582C2060.34 746.896 2060.08 748.169 2059.47 749.4ZM2101.76 739.811L2103 737.318C2103.92 735.471 2104.37 733.582 2104.36 731.652C2104.34 729.722 2103.81 727.924 2102.78 726.257C2101.75 724.574 2100.18 723.204 2098.06 722.146C2095.89 721.065 2093.83 720.626 2091.88 720.829C2089.93 721.009 2088.19 721.68 2086.67 722.843C2085.15 724.007 2083.93 725.512 2083.01 727.359L2081.77 729.852C2080.85 731.699 2080.39 733.583 2080.39 735.506C2080.39 737.405 2080.9 739.188 2081.94 740.855C2082.97 742.522 2084.55 743.889 2086.69 744.954C2088.86 746.035 2090.92 746.486 2092.88 746.306C2094.82 746.119 2096.55 745.447 2098.09 744.291C2099.62 743.136 2100.85 741.642 2101.76 739.811ZM2096.93 734.293L2095.69 736.786C2095.08 738.018 2094.23 738.999 2093.16 739.731C2092.07 740.44 2090.79 740.427 2089.32 739.691C2087.84 738.955 2087.07 737.949 2087.02 736.672C2086.95 735.373 2087.23 734.108 2087.84 732.876L2089.08 730.383C2089.7 729.152 2090.52 728.163 2091.57 727.415C2092.62 726.652 2093.91 726.651 2095.43 727.41C2096.9 728.138 2097.66 729.163 2097.73 730.486C2097.8 731.808 2097.54 733.077 2096.93 734.293ZM2081.24 774.42L2072.28 710.95L2066.51 708.075L2075.46 771.545L2081.24 774.42Z" fill="black"/>
<g clip-path="url(#clip2_2558_34563)" filter="url(#filter8_dddddd_2558_34563)">
<path d="M1974.64 2520.39L1956.37 2174.01L1732.11 2008.24L1731.31 2008.4L1658.2 2338.31L1974.64 2520.39Z" fill="white" stroke="#231F20" stroke-width="3.87653"/>
<path d="M1788.21 1990.06L1787.85 1990.47L1787.34 1990.64L1733.86 2008L1956.58 2173.54L2062.28 2106.33L1817.03 1956.51L1788.21 1990.06Z" fill="white" stroke="#231F20" stroke-width="3.87653"/>
<path d="M1956.58 2173.54L2062.28 2106.33L1818.84 1957.62L1827.62 2078.04L1956.58 2173.54Z" fill="white" stroke="#231F20" stroke-width="3.87653"/>
<path d="M1992.57 2128L2022.09 2460.92L2118.94 2449.29L2062.66 2108.93L1992.57 2128Z" fill="white" stroke="#231F20" stroke-width="3.87653"/>
<path d="M1957.35 2174.16L1976.81 2518.63L2021.31 2462.24L1992.2 2128.24L1991.58 2128.34L1957.35 2174.16Z" fill="white" stroke="#231F20" stroke-width="3.87653"/>
<path d="M1784.8 2046.42V1991.43L1733.29 2007.47L1784.8 2046.42Z" fill="white" stroke="#231F20" stroke-width="3.87653"/>
<path d="M1749.27 2129.8L1749.24 2129.77L1749.21 2129.75C1742.9 2122.94 1738.05 2112.91 1738.05 2104.22C1738.05 2098.51 1740.12 2093.93 1743.96 2091.7C1747.81 2089.47 1752.76 2089.98 1757.69 2092.96C1762.62 2095.7 1767.02 2100.53 1770.18 2106.03C1773.34 2111.55 1775.37 2117.93 1775.37 2123.89C1775.37 2128.27 1774.13 2131.84 1771.78 2134.25C1769.44 2136.67 1766.2 2137.7 1762.71 2137.43C1760.25 2137.4 1757.9 2136.23 1756.03 2135.3C1755.97 2135.27 1755.91 2135.24 1755.85 2135.21L1755.69 2135.13L1755.55 2135.02L1755.52 2135C1753.51 2133.5 1751.39 2131.92 1749.27 2129.8ZM1757.71 2117.18L1757.79 2117.23L1757.87 2117.29C1758.13 2117.48 1758.28 2117.51 1758.34 2117.51C1758.39 2117.51 1758.45 2117.51 1758.55 2117.44C1758.77 2117.31 1759.13 2116.9 1759.33 2116.14C1759.28 2115.35 1758.94 2114.26 1758.28 2113.15C1757.57 2111.97 1756.64 2110.97 1755.72 2110.42C1754.9 2109.93 1754.55 2110.13 1754.5 2110.16C1754.39 2110.23 1754.09 2110.51 1754.09 2111.28C1754.09 2113.51 1755.65 2115.96 1757.71 2117.18Z" fill="white" stroke="#231F20" stroke-width="3.87653"/>
<path d="M1907.21 2205.59C1909.75 2207.1 1911.78 2206.09 1911.78 2203.06C1911.78 2200.54 1909.75 2197.01 1907.21 2195.5C1904.68 2193.99 1902.65 2195.5 1902.65 2198.02C1903.16 2200.54 1905.19 2204.07 1907.21 2205.59Z" fill="#F7F7F7"/>
<path d="M1900.27 2216.54L1900.25 2216.51L1900.22 2216.48C1893.9 2209.68 1889.06 2199.65 1889.06 2190.96C1889.06 2185.25 1891.13 2180.67 1894.97 2178.44C1898.82 2176.21 1903.77 2176.72 1908.69 2179.7C1913.63 2182.44 1918.03 2187.27 1921.18 2192.77C1924.35 2198.29 1926.38 2204.67 1926.38 2210.63C1926.38 2215.01 1925.14 2218.58 1922.79 2220.99C1920.44 2223.41 1917.21 2224.44 1913.72 2224.16C1911.26 2224.14 1908.91 2222.97 1907.04 2222.04C1906.98 2222.01 1906.92 2221.98 1906.86 2221.94L1906.7 2221.87L1906.56 2221.76L1906.53 2221.74C1904.52 2220.24 1902.4 2218.65 1900.27 2216.54ZM1904.59 2198.02C1904.59 2200.25 1906.15 2202.69 1908.21 2203.92C1909.03 2204.41 1909.38 2204.22 1909.43 2204.18C1909.54 2204.12 1909.84 2203.83 1909.84 2203.06C1909.84 2202.26 1909.49 2201.09 1908.78 2199.89C1908.07 2198.71 1907.14 2197.71 1906.22 2197.16C1905.76 2196.89 1905.41 2196.78 1905.18 2196.75C1905.07 2196.74 1905 2196.74 1904.96 2196.75C1904.92 2196.75 1904.9 2196.76 1904.9 2196.77C1904.89 2196.77 1904.88 2196.78 1904.87 2196.8C1904.85 2196.82 1904.81 2196.86 1904.77 2196.95C1904.69 2197.13 1904.59 2197.47 1904.59 2198.02Z" fill="white" stroke="#231F20" stroke-width="3.87653"/>
<path d="M1906.02 2221.74C1905.06 2221.02 1904.07 2220.28 1903.07 2219.48V2270.64V2270.65L1903.07 2270.66C1902.81 2296.69 1894.86 2316.29 1881.67 2326.57C1868.35 2336.95 1850.24 2337.4 1830.75 2326.28L1830.74 2326.28L1830.73 2326.27C1811.32 2314.94 1793.86 2294.18 1781.28 2269.83C1768.68 2245.46 1760.86 2217.29 1760.86 2190.96V2136.99C1759.21 2136.55 1757.39 2135.93 1755.28 2134.67C1754.25 2134.15 1753.14 2133.43 1752.06 2132.58V2183.4C1752.06 2212.78 1761.08 2244.62 1775.66 2272.39C1790.24 2300.16 1810.29 2323.66 1832.18 2336.54C1854.26 2349.13 1873.92 2348.55 1888.01 2338.17C1902.21 2327.7 1911.36 2306.86 1911.36 2277.7V2223.95C1909.58 2223.56 1907.93 2222.73 1906.54 2222.04C1906.47 2222.01 1906.41 2221.98 1906.35 2221.95L1906.19 2221.87L1906.05 2221.76L1906.02 2221.74Z" fill="white" stroke="#231F20" stroke-width="3.87653"/>
</g>
</g>
<defs>
<filter id="filter0_dddddd_2558_34563" x="1878.59" y="872.52" width="504" height="648" filterUnits="userSpaceOnUse" color-interpolation-filters="sRGB">
<feFlood flood-opacity="0" result="BackgroundImageFix"/>
<feColorMatrix in="SourceAlpha" type="matrix" values="0 0 0 0 0 0 0 0 0 0 0 0 0 0 0 0 0 0 127 0" result="hardAlpha"/>
<feOffset dy="6.19865"/>
<feGaussianBlur stdDeviation="1.1069"/>
<feColorMatrix type="matrix" values="0 0 0 0 0 0 0 0 0 0 0 0 0 0 0 0 0 0 0.030926 0"/>
<feBlend mode="normal" in2="BackgroundImageFix" result="effect1_dropShadow_2558_34563"/>
<feColorMatrix in="SourceAlpha" type="matrix" values="0 0 0 0 0 0 0 0 0 0 0 0 0 0 0 0 0 0 127 0" result="hardAlpha"/>
<feOffset dy="14.8962"/>
<feGaussianBlur stdDeviation="2.66004"/>
<feColorMatrix type="matrix" values="0 0 0 0 0 0 0 0 0 0 0 0 0 0 0 0 0 0 0.0444282 0"/>
<feBlend mode="normal" in2="effect1_dropShadow_2558_34563" result="effect2_dropShadow_2558_34563"/>
<feColorMatrix in="SourceAlpha" type="matrix" values="0 0 0 0 0 0 0 0 0 0 0 0 0 0 0 0 0 0 127 0" result="hardAlpha"/>
<feOffset dy="28.0483"/>
<feGaussianBlur stdDeviation="5.00862"/>
<feColorMatrix type="matrix" values="0 0 0 0 0 0 0 0 0 0 0 0 0 0 0 0 0 0 0.055 0"/>
<feBlend mode="normal" in2="effect2_dropShadow_2558_34563" result="effect3_dropShadow_2558_34563"/>
<feColorMatrix in="SourceAlpha" type="matrix" values="0 0 0 0 0 0 0 0 0 0 0 0 0 0 0 0 0 0 127 0" result="hardAlpha"/>
<feOffset dy="50.0333"/>
<feGaussianBlur stdDeviation="8.93452"/>
<feColorMatrix type="matrix" values="0 0 0 0 0 0 0 0 0 0 0 0 0 0 0 0 0 0 0.0655718 0"/>
<feBlend mode="normal" in2="effect3_dropShadow_2558_34563" result="effect4_dropShadow_2558_34563"/>
<feColorMatrix in="SourceAlpha" type="matrix" values="0 0 0 0 0 0 0 0 0 0 0 0 0 0 0 0 0 0 127 0" result="hardAlpha"/>
<feOffset dy="93.5818"/>
<feGaussianBlur stdDeviation="16.711"/>
<feColorMatrix type="matrix" values="0 0 0 0 0 0 0 0 0 0 0 0 0 0 0 0 0 0 0.079074 0"/>
<feBlend mode="normal" in2="effect4_dropShadow_2558_34563" result="effect5_dropShadow_2558_34563"/>
<feColorMatrix in="SourceAlpha" type="matrix" values="0 0 0 0 0 0 0 0 0 0 0 0 0 0 0 0 0 0 127 0" result="hardAlpha"/>
<feOffset dy="224"/>
<feGaussianBlur stdDeviation="40"/>
<feColorMatrix type="matrix" values="0 0 0 0 0 0 0 0 0 0 0 0 0 0 0 0 0 0 0.11 0"/>
<feBlend mode="normal" in2="effect5_dropShadow_2558_34563" result="effect6_dropShadow_2558_34563"/>
<feBlend mode="normal" in="SourceGraphic" in2="effect6_dropShadow_2558_34563" result="shape"/>
</filter>
<filter id="filter1_dddddd_2558_34563" x="744.384" y="807" width="1510.23" height="1484.51" filterUnits="userSpaceOnUse" color-interpolation-filters="sRGB">
<feFlood flood-opacity="0" result="BackgroundImageFix"/>
<feColorMatrix in="SourceAlpha" type="matrix" values="0 0 0 0 0 0 0 0 0 0 0 0 0 0 0 0 0 0 127 0" result="hardAlpha"/>
<feOffset dy="4.983"/>
<feGaussianBlur stdDeviation="1.57202"/>
<feColorMatrix type="matrix" values="0 0 0 0 0 0 0 0 0 0 0 0 0 0 0 0 0 0 0.0337375 0"/>
<feBlend mode="normal" in2="BackgroundImageFix" result="effect1_dropShadow_2558_34563"/>
<feColorMatrix in="SourceAlpha" type="matrix" values="0 0 0 0 0 0 0 0 0 0 0 0 0 0 0 0 0 0 127 0" result="hardAlpha"/>
<feOffset dy="11.9749"/>
<feGaussianBlur stdDeviation="3.77778"/>
<feColorMatrix type="matrix" values="0 0 0 0 0 0 0 0 0 0 0 0 0 0 0 0 0 0 0.0484671 0"/>
<feBlend mode="normal" in2="effect1_dropShadow_2558_34563" result="effect2_dropShadow_2558_34563"/>
<feColorMatrix in="SourceAlpha" type="matrix" values="0 0 0 0 0 0 0 0 0 0 0 0 0 0 0 0 0 0 127 0" result="hardAlpha"/>
<feOffset dy="22.5476"/>
<feGaussianBlur stdDeviation="7.11322"/>
<feColorMatrix type="matrix" values="0 0 0 0 0 0 0 0 0 0 0 0 0 0 0 0 0 0 0.06 0"/>
<feBlend mode="normal" in2="effect2_dropShadow_2558_34563" result="effect3_dropShadow_2558_34563"/>
<feColorMatrix in="SourceAlpha" type="matrix" values="0 0 0 0 0 0 0 0 0 0 0 0 0 0 0 0 0 0 127 0" result="hardAlpha"/>
<feOffset dy="40.221"/>
<feGaussianBlur stdDeviation="12.6888"/>
<feColorMatrix type="matrix" values="0 0 0 0 0 0 0 0 0 0 0 0 0 0 0 0 0 0 0.0715329 0"/>
<feBlend mode="normal" in2="effect3_dropShadow_2558_34563" result="effect4_dropShadow_2558_34563"/>
<feColorMatrix in="SourceAlpha" type="matrix" values="0 0 0 0 0 0 0 0 0 0 0 0 0 0 0 0 0 0 127 0" result="hardAlpha"/>
<feOffset dy="75.229"/>
<feGaussianBlur stdDeviation="23.733"/>
<feColorMatrix type="matrix" values="0 0 0 0 0 0 0 0 0 0 0 0 0 0 0 0 0 0 0.0862625 0"/>
<feBlend mode="normal" in2="effect4_dropShadow_2558_34563" result="effect5_dropShadow_2558_34563"/>
<feColorMatrix in="SourceAlpha" type="matrix" values="0 0 0 0 0 0 0 0 0 0 0 0 0 0 0 0 0 0 127 0" result="hardAlpha"/>
<feOffset dy="180.07"/>
<feGaussianBlur stdDeviation="56.8078"/>
<feColorMatrix type="matrix" values="0 0 0 0 0 0 0 0 0 0 0 0 0 0 0 0 0 0 0.12 0"/>
<feBlend mode="normal" in2="effect5_dropShadow_2558_34563" result="effect6_dropShadow_2558_34563"/>
<feBlend mode="normal" in="SourceGraphic" in2="effect6_dropShadow_2558_34563" result="shape"/>
</filter>
<filter id="filter2_dddd_2558_34563" x="899.536" y="512" width="405.461" height="488.604" filterUnits="userSpaceOnUse" color-interpolation-filters="sRGB">
<feFlood flood-opacity="0" result="BackgroundImageFix"/>
<feColorMatrix in="SourceAlpha" type="matrix" values="0 0 0 0 0 0 0 0 0 0 0 0 0 0 0 0 0 0 127 0" result="hardAlpha"/>
<feOffset dy="6.75115"/>
<feGaussianBlur stdDeviation="1.20556"/>
<feColorMatrix type="matrix" values="0 0 0 0 0 0 0 0 0 0 0 0 0 0 0 0 0 0 0.030926 0"/>
<feBlend mode="normal" in2="BackgroundImageFix" result="effect1_dropShadow_2558_34563"/>
<feColorMatrix in="SourceAlpha" type="matrix" values="0 0 0 0 0 0 0 0 0 0 0 0 0 0 0 0 0 0 127 0" result="hardAlpha"/>
<feOffset dy="16.2239"/>
<feGaussianBlur stdDeviation="2.89713"/>
<feColorMatrix type="matrix" values="0 0 0 0 0 0 0 0 0 0 0 0 0 0 0 0 0 0 0.0444282 0"/>
<feBlend mode="normal" in2="effect1_dropShadow_2558_34563" result="effect2_dropShadow_2558_34563"/>
<feColorMatrix in="SourceAlpha" type="matrix" values="0 0 0 0 0 0 0 0 0 0 0 0 0 0 0 0 0 0 127 0" result="hardAlpha"/>
<feOffset dy="30.5482"/>
<feGaussianBlur stdDeviation="5.45504"/>
<feColorMatrix type="matrix" values="0 0 0 0 0 0 0 0 0 0 0 0 0 0 0 0 0 0 0.055 0"/>
<feBlend mode="normal" in2="effect2_dropShadow_2558_34563" result="effect3_dropShadow_2558_34563"/>
<feColorMatrix in="SourceAlpha" type="matrix" values="0 0 0 0 0 0 0 0 0 0 0 0 0 0 0 0 0 0 127 0" result="hardAlpha"/>
<feOffset dy="54.4928"/>
<feGaussianBlur stdDeviation="9.73087"/>
<feColorMatrix type="matrix" values="0 0 0 0 0 0 0 0 0 0 0 0 0 0 0 0 0 0 0.0655718 0"/>
<feBlend mode="normal" in2="effect3_dropShadow_2558_34563" result="effect4_dropShadow_2558_34563"/>
<feBlend mode="normal" in="SourceGraphic" in2="effect4_dropShadow_2558_34563" result="shape"/>
</filter>
<filter id="filter3_dddddd_2558_34563" x="1878.59" y="872.52" width="504" height="648" filterUnits="userSpaceOnUse" color-interpolation-filters="sRGB">
<feFlood flood-opacity="0" result="BackgroundImageFix"/>
<feColorMatrix in="SourceAlpha" type="matrix" values="0 0 0 0 0 0 0 0 0 0 0 0 0 0 0 0 0 0 127 0" result="hardAlpha"/>
<feOffset dy="6.19865"/>
<feGaussianBlur stdDeviation="1.1069"/>
<feColorMatrix type="matrix" values="0 0 0 0 0 0 0 0 0 0 0 0 0 0 0 0 0 0 0.030926 0"/>
<feBlend mode="normal" in2="BackgroundImageFix" result="effect1_dropShadow_2558_34563"/>
<feColorMatrix in="SourceAlpha" type="matrix" values="0 0 0 0 0 0 0 0 0 0 0 0 0 0 0 0 0 0 127 0" result="hardAlpha"/>
<feOffset dy="14.8962"/>
<feGaussianBlur stdDeviation="2.66004"/>
<feColorMatrix type="matrix" values="0 0 0 0 0 0 0 0 0 0 0 0 0 0 0 0 0 0 0.0444282 0"/>
<feBlend mode="normal" in2="effect1_dropShadow_2558_34563" result="effect2_dropShadow_2558_34563"/>
<feColorMatrix in="SourceAlpha" type="matrix" values="0 0 0 0 0 0 0 0 0 0 0 0 0 0 0 0 0 0 127 0" result="hardAlpha"/>
<feOffset dy="28.0483"/>
<feGaussianBlur stdDeviation="5.00862"/>
<feColorMatrix type="matrix" values="0 0 0 0 0 0 0 0 0 0 0 0 0 0 0 0 0 0 0.055 0"/>
<feBlend mode="normal" in2="effect2_dropShadow_2558_34563" result="effect3_dropShadow_2558_34563"/>
<feColorMatrix in="SourceAlpha" type="matrix" values="0 0 0 0 0 0 0 0 0 0 0 0 0 0 0 0 0 0 127 0" result="hardAlpha"/>
<feOffset dy="50.0333"/>
<feGaussianBlur stdDeviation="8.93452"/>
<feColorMatrix type="matrix" values="0 0 0 0 0 0 0 0 0 0 0 0 0 0 0 0 0 0 0.0655718 0"/>
<feBlend mode="normal" in2="effect3_dropShadow_2558_34563" result="effect4_dropShadow_2558_34563"/>
<feColorMatrix in="SourceAlpha" type="matrix" values="0 0 0 0 0 0 0 0 0 0 0 0 0 0 0 0 0 0 127 0" result="hardAlpha"/>
<feOffset dy="93.5818"/>
<feGaussianBlur stdDeviation="16.711"/>
<feColorMatrix type="matrix" values="0 0 0 0 0 0 0 0 0 0 0 0 0 0 0 0 0 0 0.079074 0"/>
<feBlend mode="normal" in2="effect4_dropShadow_2558_34563" result="effect5_dropShadow_2558_34563"/>
<feColorMatrix in="SourceAlpha" type="matrix" values="0 0 0 0 0 0 0 0 0 0 0 0 0 0 0 0 0 0 127 0" result="hardAlpha"/>
<feOffset dy="224"/>
<feGaussianBlur stdDeviation="40"/>
<feColorMatrix type="matrix" values="0 0 0 0 0 0 0 0 0 0 0 0 0 0 0 0 0 0 0.11 0"/>
<feBlend mode="normal" in2="effect5_dropShadow_2558_34563" result="effect6_dropShadow_2558_34563"/>
<feBlend mode="normal" in="SourceGraphic" in2="effect6_dropShadow_2558_34563" result="shape"/>
</filter>
<filter id="filter4_dddddd_2558_34563" x="2245.33" y="1648" width="363.349" height="467.163" filterUnits="userSpaceOnUse" color-interpolation-filters="sRGB">
<feFlood flood-opacity="0" result="BackgroundImageFix"/>
<feColorMatrix in="SourceAlpha" type="matrix" values="0 0 0 0 0 0 0 0 0 0 0 0 0 0 0 0 0 0 127 0" result="hardAlpha"/>
<feOffset dy="4.4688"/>
<feGaussianBlur stdDeviation="0.798"/>
<feColorMatrix type="matrix" values="0 0 0 0 0 0 0 0 0 0 0 0 0 0 0 0 0 0 0.030926 0"/>
<feBlend mode="normal" in2="BackgroundImageFix" result="effect1_dropShadow_2558_34563"/>
<feColorMatrix in="SourceAlpha" type="matrix" values="0 0 0 0 0 0 0 0 0 0 0 0 0 0 0 0 0 0 127 0" result="hardAlpha"/>
<feOffset dy="10.7391"/>
<feGaussianBlur stdDeviation="1.9177"/>
<feColorMatrix type="matrix" values="0 0 0 0 0 0 0 0 0 0 0 0 0 0 0 0 0 0 0.0444282 0"/>
<feBlend mode="normal" in2="effect1_dropShadow_2558_34563" result="effect2_dropShadow_2558_34563"/>
<feColorMatrix in="SourceAlpha" type="matrix" values="0 0 0 0 0 0 0 0 0 0 0 0 0 0 0 0 0 0 127 0" result="hardAlpha"/>
<feOffset dy="20.2208"/>
<feGaussianBlur stdDeviation="3.61087"/>
<feColorMatrix type="matrix" values="0 0 0 0 0 0 0 0 0 0 0 0 0 0 0 0 0 0 0.055 0"/>
<feBlend mode="normal" in2="effect2_dropShadow_2558_34563" result="effect3_dropShadow_2558_34563"/>
<feColorMatrix in="SourceAlpha" type="matrix" values="0 0 0 0 0 0 0 0 0 0 0 0 0 0 0 0 0 0 127 0" result="hardAlpha"/>
<feOffset dy="36.0705"/>
<feGaussianBlur stdDeviation="6.44117"/>
<feColorMatrix type="matrix" values="0 0 0 0 0 0 0 0 0 0 0 0 0 0 0 0 0 0 0.0655718 0"/>
<feBlend mode="normal" in2="effect3_dropShadow_2558_34563" result="effect4_dropShadow_2558_34563"/>
<feColorMatrix in="SourceAlpha" type="matrix" values="0 0 0 0 0 0 0 0 0 0 0 0 0 0 0 0 0 0 127 0" result="hardAlpha"/>
<feOffset dy="67.466"/>
<feGaussianBlur stdDeviation="12.0475"/>
<feColorMatrix type="matrix" values="0 0 0 0 0 0 0 0 0 0 0 0 0 0 0 0 0 0 0.079074 0"/>
<feBlend mode="normal" in2="effect4_dropShadow_2558_34563" result="effect5_dropShadow_2558_34563"/>
<feColorMatrix in="SourceAlpha" type="matrix" values="0 0 0 0 0 0 0 0 0 0 0 0 0 0 0 0 0 0 127 0" result="hardAlpha"/>
<feOffset dy="161.488"/>
<feGaussianBlur stdDeviation="28.8372"/>
<feColorMatrix type="matrix" values="0 0 0 0 0 0 0 0 0 0 0 0 0 0 0 0 0 0 0.11 0"/>
<feBlend mode="normal" in2="effect5_dropShadow_2558_34563" result="effect6_dropShadow_2558_34563"/>
<feBlend mode="normal" in="SourceGraphic" in2="effect6_dropShadow_2558_34563" result="shape"/>
</filter>
<filter id="filter5_dddddd_2558_34563" x="325.186" y="1175" width="477.628" height="614.093" filterUnits="userSpaceOnUse" color-interpolation-filters="sRGB">
<feFlood flood-opacity="0" result="BackgroundImageFix"/>
<feColorMatrix in="SourceAlpha" type="matrix" values="0 0 0 0 0 0 0 0 0 0 0 0 0 0 0 0 0 0 127 0" result="hardAlpha"/>
<feOffset dy="5.87431"/>
<feGaussianBlur stdDeviation="1.04898"/>
<feColorMatrix type="matrix" values="0 0 0 0 0 0 0 0 0 0 0 0 0 0 0 0 0 0 0.030926 0"/>
<feBlend mode="normal" in2="BackgroundImageFix" result="effect1_dropShadow_2558_34563"/>
<feColorMatrix in="SourceAlpha" type="matrix" values="0 0 0 0 0 0 0 0 0 0 0 0 0 0 0 0 0 0 127 0" result="hardAlpha"/>
<feOffset dy="14.1168"/>
<feGaussianBlur stdDeviation="2.52085"/>
<feColorMatrix type="matrix" values="0 0 0 0 0 0 0 0 0 0 0 0 0 0 0 0 0 0 0.0444282 0"/>
<feBlend mode="normal" in2="effect1_dropShadow_2558_34563" result="effect2_dropShadow_2558_34563"/>
<feColorMatrix in="SourceAlpha" type="matrix" values="0 0 0 0 0 0 0 0 0 0 0 0 0 0 0 0 0 0 127 0" result="hardAlpha"/>
<feOffset dy="26.5806"/>
<feGaussianBlur stdDeviation="4.74654"/>
<feColorMatrix type="matrix" values="0 0 0 0 0 0 0 0 0 0 0 0 0 0 0 0 0 0 0.055 0"/>
<feBlend mode="normal" in2="effect2_dropShadow_2558_34563" result="effect3_dropShadow_2558_34563"/>
<feColorMatrix in="SourceAlpha" type="matrix" values="0 0 0 0 0 0 0 0 0 0 0 0 0 0 0 0 0 0 127 0" result="hardAlpha"/>
<feOffset dy="47.4153"/>
<feGaussianBlur stdDeviation="8.46702"/>
<feColorMatrix type="matrix" values="0 0 0 0 0 0 0 0 0 0 0 0 0 0 0 0 0 0 0.0655718 0"/>
<feBlend mode="normal" in2="effect3_dropShadow_2558_34563" result="effect4_dropShadow_2558_34563"/>
<feColorMatrix in="SourceAlpha" type="matrix" values="0 0 0 0 0 0 0 0 0 0 0 0 0 0 0 0 0 0 127 0" result="hardAlpha"/>
<feOffset dy="88.6851"/>
<feGaussianBlur stdDeviation="15.8366"/>
<feColorMatrix type="matrix" values="0 0 0 0 0 0 0 0 0 0 0 0 0 0 0 0 0 0 0.079074 0"/>
<feBlend mode="normal" in2="effect4_dropShadow_2558_34563" result="effect5_dropShadow_2558_34563"/>
<feColorMatrix in="SourceAlpha" type="matrix" values="0 0 0 0 0 0 0 0 0 0 0 0 0 0 0 0 0 0 127 0" result="hardAlpha"/>
<feOffset dy="212.279"/>
<feGaussianBlur stdDeviation="37.907"/>
<feColorMatrix type="matrix" values="0 0 0 0 0 0 0 0 0 0 0 0 0 0 0 0 0 0 0.11 0"/>
<feBlend mode="normal" in2="effect5_dropShadow_2558_34563" result="effect6_dropShadow_2558_34563"/>
<feBlend mode="normal" in="SourceGraphic" in2="effect6_dropShadow_2558_34563" result="shape"/>
</filter>
<filter id="filter6_dddddd_2558_34563" x="452.2" y="1532" width="269.63" height="346.665" filterUnits="userSpaceOnUse" color-interpolation-filters="sRGB">
<feFlood flood-opacity="0" result="BackgroundImageFix"/>
<feColorMatrix in="SourceAlpha" type="matrix" values="0 0 0 0 0 0 0 0 0 0 0 0 0 0 0 0 0 0 127 0" result="hardAlpha"/>
<feOffset dy="3.31614"/>
<feGaussianBlur stdDeviation="0.592168"/>
<feColorMatrix type="matrix" values="0 0 0 0 0 0 0 0 0 0 0 0 0 0 0 0 0 0 0.030926 0"/>
<feBlend mode="normal" in2="BackgroundImageFix" result="effect1_dropShadow_2558_34563"/>
<feColorMatrix in="SourceAlpha" type="matrix" values="0 0 0 0 0 0 0 0 0 0 0 0 0 0 0 0 0 0 127 0" result="hardAlpha"/>
<feOffset dy="7.96915"/>
<feGaussianBlur stdDeviation="1.42306"/>
<feColorMatrix type="matrix" values="0 0 0 0 0 0 0 0 0 0 0 0 0 0 0 0 0 0 0.0444282 0"/>
<feBlend mode="normal" in2="effect1_dropShadow_2558_34563" result="effect2_dropShadow_2558_34563"/>
<feColorMatrix in="SourceAlpha" type="matrix" values="0 0 0 0 0 0 0 0 0 0 0 0 0 0 0 0 0 0 127 0" result="hardAlpha"/>
<feOffset dy="15.0052"/>
<feGaussianBlur stdDeviation="2.6795"/>
<feColorMatrix type="matrix" values="0 0 0 0 0 0 0 0 0 0 0 0 0 0 0 0 0 0 0.055 0"/>
<feBlend mode="normal" in2="effect2_dropShadow_2558_34563" result="effect3_dropShadow_2558_34563"/>
<feColorMatrix in="SourceAlpha" type="matrix" values="0 0 0 0 0 0 0 0 0 0 0 0 0 0 0 0 0 0 127 0" result="hardAlpha"/>
<feOffset dy="26.7667"/>
<feGaussianBlur stdDeviation="4.77977"/>
<feColorMatrix type="matrix" values="0 0 0 0 0 0 0 0 0 0 0 0 0 0 0 0 0 0 0.0655718 0"/>
<feBlend mode="normal" in2="effect3_dropShadow_2558_34563" result="effect4_dropShadow_2558_34563"/>
<feColorMatrix in="SourceAlpha" type="matrix" values="0 0 0 0 0 0 0 0 0 0 0 0 0 0 0 0 0 0 127 0" result="hardAlpha"/>
<feOffset dy="50.0642"/>
<feGaussianBlur stdDeviation="8.94003"/>
<feColorMatrix type="matrix" values="0 0 0 0 0 0 0 0 0 0 0 0 0 0 0 0 0 0 0.079074 0"/>
<feBlend mode="normal" in2="effect4_dropShadow_2558_34563" result="effect5_dropShadow_2558_34563"/>
<feColorMatrix in="SourceAlpha" type="matrix" values="0 0 0 0 0 0 0 0 0 0 0 0 0 0 0 0 0 0 127 0" result="hardAlpha"/>
<feOffset dy="119.835"/>
<feGaussianBlur stdDeviation="21.3991"/>
<feColorMatrix type="matrix" values="0 0 0 0 0 0 0 0 0 0 0 0 0 0 0 0 0 0 0.11 0"/>
<feBlend mode="normal" in2="effect5_dropShadow_2558_34563" result="effect6_dropShadow_2558_34563"/>
<feBlend mode="normal" in="SourceGraphic" in2="effect6_dropShadow_2558_34563" result="shape"/>
</filter>
<filter id="filter7_dddddd_2558_34563" x="1961.95" y="664" width="227.093" height="291.977" filterUnits="userSpaceOnUse" color-interpolation-filters="sRGB">
<feFlood flood-opacity="0" result="BackgroundImageFix"/>
<feColorMatrix in="SourceAlpha" type="matrix" values="0 0 0 0 0 0 0 0 0 0 0 0 0 0 0 0 0 0 127 0" result="hardAlpha"/>
<feOffset dy="2.793"/>
<feGaussianBlur stdDeviation="0.49875"/>
<feColorMatrix type="matrix" values="0 0 0 0 0 0 0 0 0 0 0 0 0 0 0 0 0 0 0.030926 0"/>
<feBlend mode="normal" in2="BackgroundImageFix" result="effect1_dropShadow_2558_34563"/>
<feColorMatrix in="SourceAlpha" type="matrix" values="0 0 0 0 0 0 0 0 0 0 0 0 0 0 0 0 0 0 127 0" result="hardAlpha"/>
<feOffset dy="6.71196"/>
<feGaussianBlur stdDeviation="1.19856"/>
<feColorMatrix type="matrix" values="0 0 0 0 0 0 0 0 0 0 0 0 0 0 0 0 0 0 0.0444282 0"/>
<feBlend mode="normal" in2="effect1_dropShadow_2558_34563" result="effect2_dropShadow_2558_34563"/>
<feColorMatrix in="SourceAlpha" type="matrix" values="0 0 0 0 0 0 0 0 0 0 0 0 0 0 0 0 0 0 127 0" result="hardAlpha"/>
<feOffset dy="12.638"/>
<feGaussianBlur stdDeviation="2.25679"/>
<feColorMatrix type="matrix" values="0 0 0 0 0 0 0 0 0 0 0 0 0 0 0 0 0 0 0.055 0"/>
<feBlend mode="normal" in2="effect2_dropShadow_2558_34563" result="effect3_dropShadow_2558_34563"/>
<feColorMatrix in="SourceAlpha" type="matrix" values="0 0 0 0 0 0 0 0 0 0 0 0 0 0 0 0 0 0 127 0" result="hardAlpha"/>
<feOffset dy="22.5441"/>
<feGaussianBlur stdDeviation="4.02573"/>
<feColorMatrix type="matrix" values="0 0 0 0 0 0 0 0 0 0 0 0 0 0 0 0 0 0 0.0655718 0"/>
<feBlend mode="normal" in2="effect3_dropShadow_2558_34563" result="effect4_dropShadow_2558_34563"/>
<feColorMatrix in="SourceAlpha" type="matrix" values="0 0 0 0 0 0 0 0 0 0 0 0 0 0 0 0 0 0 127 0" result="hardAlpha"/>
<feOffset dy="42.1662"/>
<feGaussianBlur stdDeviation="7.52969"/>
<feColorMatrix type="matrix" values="0 0 0 0 0 0 0 0 0 0 0 0 0 0 0 0 0 0 0.079074 0"/>
<feBlend mode="normal" in2="effect4_dropShadow_2558_34563" result="effect5_dropShadow_2558_34563"/>
<feColorMatrix in="SourceAlpha" type="matrix" values="0 0 0 0 0 0 0 0 0 0 0 0 0 0 0 0 0 0 127 0" result="hardAlpha"/>
<feOffset dy="100.93"/>
<feGaussianBlur stdDeviation="18.0233"/>
<feColorMatrix type="matrix" values="0 0 0 0 0 0 0 0 0 0 0 0 0 0 0 0 0 0 0.11 0"/>
<feBlend mode="normal" in2="effect5_dropShadow_2558_34563" result="effect6_dropShadow_2558_34563"/>
<feBlend mode="normal" in="SourceGraphic" in2="effect6_dropShadow_2558_34563" result="shape"/>
</filter>
<filter id="filter8_dddddd_2558_34563" x="1552.63" y="1954" width="671.932" height="890.309" filterUnits="userSpaceOnUse" color-interpolation-filters="sRGB">
<feFlood flood-opacity="0" result="BackgroundImageFix"/>
<feColorMatrix in="SourceAlpha" type="matrix" values="0 0 0 0 0 0 0 0 0 0 0 0 0 0 0 0 0 0 127 0" result="hardAlpha"/>
<feOffset dy="6.00732"/>
<feGaussianBlur stdDeviation="1.43031"/>
<feColorMatrix type="matrix" values="0 0 0 0 0 0 0 0 0 0 0 0 0 0 0 0 0 0 0.0224916 0"/>
<feBlend mode="normal" in2="BackgroundImageFix" result="effect1_dropShadow_2558_34563"/>
<feColorMatrix in="SourceAlpha" type="matrix" values="0 0 0 0 0 0 0 0 0 0 0 0 0 0 0 0 0 0 127 0" result="hardAlpha"/>
<feOffset dy="14.4364"/>
<feGaussianBlur stdDeviation="3.43724"/>
<feColorMatrix type="matrix" values="0 0 0 0 0 0 0 0 0 0 0 0 0 0 0 0 0 0 0.0323114 0"/>
<feBlend mode="normal" in2="effect1_dropShadow_2558_34563" result="effect2_dropShadow_2558_34563"/>
<feColorMatrix in="SourceAlpha" type="matrix" values="0 0 0 0 0 0 0 0 0 0 0 0 0 0 0 0 0 0 127 0" result="hardAlpha"/>
<feOffset dy="27.1825"/>
<feGaussianBlur stdDeviation="6.47202"/>
<feColorMatrix type="matrix" values="0 0 0 0 0 0 0 0 0 0 0 0 0 0 0 0 0 0 0.04 0"/>
<feBlend mode="normal" in2="effect2_dropShadow_2558_34563" result="effect3_dropShadow_2558_34563"/>
<feColorMatrix in="SourceAlpha" type="matrix" values="0 0 0 0 0 0 0 0 0 0 0 0 0 0 0 0 0 0 127 0" result="hardAlpha"/>
<feOffset dy="48.4889"/>
<feGaussianBlur stdDeviation="11.545"/>
<feColorMatrix type="matrix" values="0 0 0 0 0 0 0 0 0 0 0 0 0 0 0 0 0 0 0.0476886 0"/>
<feBlend mode="normal" in2="effect3_dropShadow_2558_34563" result="effect4_dropShadow_2558_34563"/>
<feColorMatrix in="SourceAlpha" type="matrix" values="0 0 0 0 0 0 0 0 0 0 0 0 0 0 0 0 0 0 127 0" result="hardAlpha"/>
<feOffset dy="90.6932"/>
<feGaussianBlur stdDeviation="21.5936"/>
<feColorMatrix type="matrix" values="0 0 0 0 0 0 0 0 0 0 0 0 0 0 0 0 0 0 0.0575083 0"/>
<feBlend mode="normal" in2="effect4_dropShadow_2558_34563" result="effect5_dropShadow_2558_34563"/>
<feColorMatrix in="SourceAlpha" type="matrix" values="0 0 0 0 0 0 0 0 0 0 0 0 0 0 0 0 0 0 127 0" result="hardAlpha"/>
<feOffset dy="217.086"/>
<feGaussianBlur stdDeviation="51.6871"/>
<feColorMatrix type="matrix" values="0 0 0 0 0 0 0 0 0 0 0 0 0 0 0 0 0 0 0.08 0"/>
<feBlend mode="normal" in2="effect5_dropShadow_2558_34563" result="effect6_dropShadow_2558_34563"/>
<feBlend mode="normal" in="SourceGraphic" in2="effect6_dropShadow_2558_34563" result="shape"/>
</filter>
<linearGradient id="paint0_linear_2558_34563" x1="1498.14" y1="614.31" x2="1498.14" y2="2326.81" gradientUnits="userSpaceOnUse">
<stop offset="0.513542" stop-color="#4547EB"/>
<stop offset="0.9875" stop-color="#2E30CD"/>
</linearGradient>
<clipPath id="clip0_2558_34563">
<rect width="2996.86" height="2794" rx="142.85" fill="white"/>
</clipPath>
<clipPath id="clip1_2558_34563">
<rect width="264.222" height="344.928" fill="white" transform="matrix(-0.939287 -0.343132 -0.343132 0.939287 1285.54 602.663)"/>
</clipPath>
<clipPath id="clip2_2558_34563">
<rect width="465.184" height="569.85" fill="white" transform="matrix(-1 0 0 1 2121.18 1954)"/>
</clipPath>
</defs>
</svg>
