<svg width="20" height="20" viewBox="0 0 20 20" fill="none" xmlns="http://www.w3.org/2000/svg">
<path d="M18.552 5.72852H7.13512C6.75668 5.72852 6.39368 5.87887 6.12595 6.14646C5.85836 6.4142 5.70801 6.7772 5.70801 7.15563V18.5726C5.70801 18.951 5.85836 19.314 6.12595 19.5817C6.39369 19.8493 6.75669 19.9997 7.13512 19.9997H18.552C18.9305 19.9997 19.2935 19.8493 19.5612 19.5817C19.8288 19.314 19.9792 18.951 19.9792 18.5726V7.15563C19.9792 6.77719 19.8288 6.41418 19.5612 6.14646C19.2935 5.87887 18.9305 5.72852 18.552 5.72852ZM7.13512 18.5726V7.15563H18.552V18.5726H7.13512Z" fill="#1A1A1A" fill-opacity="0.72"/>
<path d="M3.56779 12.8636H1.42712V1.44665H12.844V3.58732C12.844 3.84232 12.9801 4.07788 13.2008 4.2053C13.4216 4.33272 13.6936 4.33272 13.9144 4.2053C14.1351 4.07788 14.2712 3.84231 14.2712 3.58732V1.44665C14.2712 1.06821 14.1208 0.705199 13.8532 0.437472C13.5855 0.169888 13.2225 0.0195312 12.844 0.0195312H1.42712C1.04868 0.0195312 0.685668 0.169888 0.417941 0.437472C0.150357 0.705215 0 1.06822 0 1.44665V12.8636C0 13.242 0.150357 13.605 0.417941 13.8727C0.685684 14.1403 1.04869 14.2907 1.42712 14.2907H3.56779C3.82279 14.2907 4.05835 14.1547 4.18577 13.9339C4.31319 13.7131 4.31319 13.4411 4.18577 13.2203C4.05835 12.9996 3.82278 12.8636 3.56779 12.8636Z" fill="#1A1A1A" fill-opacity="0.72"/>
</svg>
