<svg width="30" height="30" viewBox="0 0 30 30" fill="none" xmlns="http://www.w3.org/2000/svg">
<path d="M21.8847 9.59886C21.2595 8.9163 20.2876 7.99503 19.8741 10.0752C19.7334 10.7825 19.4049 11.3277 19.1234 11.7667C18.8199 10.2309 17.9069 8.64115 17.0466 7.56929C16.7247 7.16828 15.5825 5.57412 15.3631 2.90716C15.3303 2.50914 14.8575 2.32222 14.5618 2.5907C11.7357 5.15617 10.1845 8.68457 10.1269 12.6568C10.1269 12.6568 8.95009 11.6649 8.31077 9.81953C8.13862 9.32259 7.47241 9.22779 7.18337 9.66718C7.12788 9.75156 7.07643 9.83605 7.03003 9.91808C4.84958 13.7736 3.80069 18.4555 4.77036 22.8113C6.39165 30.1061 17.1163 32.1455 22.794 27.5606C28.349 23.0749 26.5832 14.7259 21.8847 9.59886Z" fill="#E75330"/>
<path d="M6.27955 23.2698C5.32113 18.8674 6.33562 14.1399 8.46486 10.224C8.41101 10.0941 8.35922 9.95978 8.31082 9.82009C8.13867 9.32316 7.47246 9.22835 7.18342 9.66775C7.12793 9.75212 7.07654 9.83662 7.03013 9.91865C4.84968 13.7741 3.8008 18.456 4.77047 22.8119C5.50998 26.1392 8.14365 28.3725 11.3283 29.3831C8.8439 28.1797 6.89836 26.1167 6.27955 23.2698Z" fill="#D62E0B"/>
<path d="M11.6435 12.5833C11.7612 8.97825 13.0652 5.74563 15.399 3.26231C15.3829 3.12555 15.371 3.00327 15.3633 2.91045C15.3299 2.50903 14.8744 2.3077 14.5799 2.57383C11.8503 5.04168 10.1866 8.5344 10.1269 12.6564L10.6378 13.0531C10.8894 13.2485 11.2303 13.24 11.4706 13.061C11.614 12.9395 11.6345 12.7561 11.6435 12.5833Z" fill="#D62E0B"/>
<path d="M20.1704 14.9295C19.7087 14.4254 18.9908 13.7449 18.6854 15.2814C18.5815 15.8037 18.3388 16.2065 18.131 16.5308C17.9068 15.3963 17.2324 14.2221 16.597 13.4305C16.3593 13.1343 15.5156 11.9568 15.3535 9.98685C15.3293 9.69282 14.9801 9.55484 14.7617 9.75312C12.6743 11.648 11.5285 14.2542 11.486 17.1881C11.486 17.1881 10.6168 16.4555 10.1446 15.0925C10.0175 14.7254 9.52536 14.6554 9.3119 14.98C9.27094 15.0423 9.23292 15.1047 9.19864 15.1653C7.58807 18.013 6.81334 21.4712 7.52954 24.6885C8.72708 30.0766 16.6485 31.583 20.8422 28.1964C24.9451 24.8833 23.6409 18.7166 20.1704 14.9295Z" fill="#F4A32C"/>
<path d="M9.02309 25.1122C8.38899 21.9671 9.04576 18.5924 10.4382 15.7823C10.3321 15.5745 10.2316 15.3448 10.1445 15.0936C10.0174 14.7265 9.52524 14.6564 9.31178 14.981C9.27082 15.0433 9.2328 15.1057 9.19852 15.1664C7.58801 18.0141 6.81334 21.4722 7.52942 24.6896C8.08641 27.1955 10.098 28.8612 12.5123 29.5861C10.797 28.7259 9.44637 27.2145 9.02309 25.1122Z" fill="#E89528"/>
<path d="M18.6055 19.7975C18.293 19.4563 17.8069 18.9955 17.6002 20.0357C17.5299 20.3894 17.3656 20.662 17.2248 20.8814C17.0731 20.1135 16.6166 19.3186 16.1864 18.7827C16.0255 18.5822 15.4544 17.7852 15.3446 16.4516C15.3282 16.2526 15.0919 16.1591 14.944 16.2934C13.5309 17.5762 12.7553 19.3404 12.7266 21.3265C12.7266 21.3265 12.1381 20.8305 11.8185 19.9078C11.7325 19.6594 11.3994 19.612 11.2549 19.8317C11.2271 19.8738 11.2014 19.9161 11.1782 19.9571C10.088 21.8849 9.5635 24.2258 10.0483 26.4038C10.8589 30.0512 16.2213 31.0709 19.0601 28.7784C20.0322 27.9934 20.635 26.8872 20.7572 25.6636C20.9417 23.8103 20.2284 21.5685 18.6055 19.7975Z" fill="#F4D44E"/>
<path d="M17.1533 24.3154C16.9791 24.1253 16.7084 23.8687 16.5932 24.4481C16.554 24.6451 16.4625 24.797 16.3841 24.9193C16.2995 24.4915 16.0452 24.0486 15.8056 23.7501C15.7159 23.6383 15.3977 23.1942 15.3365 22.4513C15.3274 22.3404 15.1957 22.2884 15.1133 22.3631C14.3261 23.0778 13.8939 24.0607 13.8779 25.1672C13.8779 25.1672 13.5501 24.8909 13.372 24.3768C13.3241 24.2384 13.1385 24.212 13.058 24.3344C13.0426 24.3579 13.0283 24.3815 13.0154 24.4043C12.408 25.4783 12.1158 26.7825 12.3859 27.9959C13.001 30.7634 18.0429 30.6795 18.3522 27.5835C18.4548 26.551 18.0574 25.302 17.1533 24.3154Z" fill="#EAE9E8"/>
<path d="M13.5565 28.5451C13.2864 27.4596 13.5786 26.293 14.186 25.3323C14.1988 25.3118 14.2132 25.2908 14.2286 25.2698C14.3091 25.1602 14.4947 25.1839 14.5426 25.3077C14.7207 25.7675 15.0485 26.0147 15.0485 26.0147C15.0617 25.2014 15.3563 24.4632 15.8974 23.871C15.7764 23.7034 15.4062 23.2994 15.3364 22.4513C15.3273 22.3404 15.1956 22.2884 15.1133 22.3631C14.326 23.0778 13.8939 24.0607 13.8779 25.1672C13.8779 25.1672 13.55 24.8909 13.372 24.3769C13.324 24.2384 13.1384 24.212 13.058 24.3345C13.0425 24.358 13.0282 24.3815 13.0153 24.4044C12.4079 25.4783 12.1157 26.7826 12.3858 27.996C12.6358 29.1207 13.6627 29.7966 14.798 29.9598C14.1856 29.659 13.7149 29.1828 13.5565 28.5451Z" fill="#F7E7A1"/>
<path d="M10.8163 3.98701C12.0834 2.95641 12.0806 1.02826 10.8163 0C9.5492 1.03055 9.55195 2.95875 10.8163 3.98701Z" fill="#D62E0B"/>
<path d="M26.0035 12.2604C27.2706 11.2298 27.2678 9.3017 26.0035 8.27344C25.4244 8.74441 24.7392 11.2322 26.0035 12.2604Z" fill="#D62E0B"/>
<path d="M3.56162 13.0415C4.47481 12.2987 4.47281 10.9091 3.56162 10.168C3.14426 10.5074 2.65043 12.3004 3.56162 13.0415Z" fill="#D62E0B"/>
<path d="M19.3775 6.86178C20.2907 6.11898 20.2887 4.72943 19.3775 3.98828C18.4643 4.73102 18.4663 6.12068 19.3775 6.86178Z" fill="#D62E0B"/>
<path d="M12.651 16.7169C12.8607 14.2412 13.8062 12.0399 15.3936 10.3617C15.3775 10.2401 15.364 10.1152 15.3534 9.98685C15.3292 9.69282 14.9801 9.55484 14.7616 9.75312C13.1075 11.2546 12.0459 13.2032 11.6549 15.4072L11.6543 15.4071C11.6253 15.5705 11.5893 15.8087 11.5666 15.9958C11.5666 15.9959 11.5667 15.996 11.5668 15.9962C11.5193 16.3867 11.4918 16.7842 11.4859 17.1882C11.5301 17.1968 12.5302 17.7109 12.651 16.7169Z" fill="#E89528"/>
<path d="M11.5096 26.9214C11.0786 24.8868 11.4456 22.7171 12.2983 20.8371C12.1331 20.6055 11.9524 20.2943 11.8186 19.9081C11.7325 19.6596 11.3994 19.6122 11.2549 19.8319C11.2272 19.874 11.2014 19.9163 11.1782 19.9573C10.088 21.8851 9.5635 24.226 10.0483 26.404C10.428 28.1121 11.8059 29.2439 13.4554 29.7291C12.4953 29.0918 11.769 28.1483 11.5096 26.9214Z" fill="#E8C842"/>
<path d="M14.2823 20.4374C14.4251 19.4164 14.8427 18.2914 15.5001 17.3509C15.4285 17.0854 15.3722 16.7853 15.3447 16.4516C15.3283 16.2526 15.0919 16.1591 14.9441 16.2934C14.0637 17.0927 13.4317 18.0793 13.0727 19.1896L13.0718 19.1894C13.0153 19.3638 12.9355 19.6528 12.8871 19.8809C12.8875 19.8808 12.8879 19.8808 12.8883 19.8806C12.7892 20.3461 12.734 20.8291 12.7268 21.3264C13.5174 21.4251 14.1713 21.2293 14.2823 20.4374Z" fill="#E8C842"/>
</svg>
