<svg width="130" height="10" viewBox="0 0 130 10" fill="none" xmlns="http://www.w3.org/2000/svg">
<path d="M97.7225 7.67749C97.7225 7.23878 97.8429 6.85598 98.0838 6.52911C98.3332 6.19362 98.6774 5.93556 99.1161 5.75491C99.5548 5.57427 100.058 5.48395 100.626 5.48395C100.91 5.48395 101.198 5.50546 101.49 5.54846C101.783 5.59146 102.036 5.6603 102.252 5.75491V5.39362C102.252 4.96353 102.123 4.63233 101.864 4.40008C101.615 4.16782 101.241 4.05169 100.742 4.05169C100.372 4.05169 100.019 4.1162 99.6838 4.24524C99.3483 4.37427 98.9958 4.56353 98.6258 4.81298L98.0709 3.67749C98.5183 3.38501 98.9741 3.16567 99.4387 3.01943C99.9119 2.87319 100.406 2.80008 100.923 2.80008C101.886 2.80008 102.634 3.04093 103.168 3.52266C103.71 4.00437 103.981 4.69256 103.981 5.58717V7.74201C103.981 7.92266 104.011 8.05169 104.071 8.12911C104.14 8.20653 104.247 8.25385 104.394 8.27104V9.6775C104.239 9.7033 104.097 9.72482 103.968 9.74201C103.847 9.7592 103.744 9.76782 103.658 9.76782C103.314 9.76782 103.052 9.6904 102.871 9.53556C102.699 9.38072 102.591 9.19146 102.548 8.96782L102.51 8.61943C102.217 8.99791 101.852 9.2904 101.413 9.49685C100.974 9.7033 100.527 9.80653 100.071 9.80653C99.6235 9.80653 99.2193 9.7162 98.858 9.53556C98.5054 9.3463 98.2258 9.09256 98.0193 8.77427C97.8216 8.4474 97.7225 8.08178 97.7225 7.67749ZM101.929 8.02588C102.024 7.92266 102.101 7.81943 102.161 7.7162C102.222 7.61298 102.252 7.51837 102.252 7.43233V6.74846C102.045 6.66243 101.822 6.59791 101.581 6.55491C101.34 6.5033 101.112 6.47749 100.897 6.47749C100.449 6.47749 100.08 6.57643 99.7871 6.77427C99.5032 6.96353 99.3612 7.21727 99.3612 7.53556C99.3612 7.70759 99.4087 7.87104 99.5032 8.02588C99.5977 8.18072 99.7354 8.30546 99.9161 8.40008C100.097 8.49469 100.312 8.54201 100.561 8.54201C100.819 8.54201 101.073 8.49469 101.323 8.40008C101.572 8.29685 101.774 8.17211 101.929 8.02588ZM108.087 9.80653C107.51 9.80653 106.96 9.71191 106.435 9.52266C105.91 9.3334 105.459 9.05385 105.08 8.68395L105.7 7.56137C106.104 7.88824 106.5 8.12911 106.887 8.28395C107.282 8.43879 107.661 8.5162 108.022 8.5162C108.358 8.5162 108.624 8.45598 108.822 8.33556C109.029 8.21514 109.132 8.03449 109.132 7.79362C109.132 7.63017 109.076 7.50546 108.964 7.41943C108.852 7.32482 108.689 7.24308 108.474 7.17427C108.267 7.10546 108.014 7.02804 107.713 6.94201C107.214 6.77856 106.796 6.61943 106.461 6.46459C106.125 6.30975 105.872 6.1162 105.7 5.88395C105.536 5.64308 105.454 5.33772 105.454 4.96782C105.454 4.52049 105.566 4.13772 105.79 3.81943C106.022 3.49256 106.34 3.23879 106.745 3.05814C107.158 2.87749 107.639 2.78717 108.19 2.78717C108.672 2.78717 109.127 2.86459 109.558 3.01943C109.988 3.16567 110.379 3.40653 110.732 3.74201L110.035 4.83879C109.691 4.57211 109.364 4.37856 109.054 4.25814C108.745 4.12911 108.431 4.06459 108.113 4.06459C107.932 4.06459 107.76 4.08611 107.596 4.12911C107.442 4.17211 107.313 4.24524 107.209 4.34846C107.114 4.44308 107.067 4.58072 107.067 4.76137C107.067 4.92482 107.11 5.05385 107.196 5.14846C107.291 5.23449 107.429 5.31191 107.609 5.38072C107.798 5.44953 108.026 5.52695 108.293 5.61298C108.835 5.76782 109.291 5.92695 109.661 6.0904C110.039 6.25385 110.323 6.45598 110.513 6.69685C110.702 6.92911 110.796 7.25169 110.796 7.66459C110.796 8.33556 110.551 8.8603 110.061 9.23878C109.571 9.61727 108.913 9.80653 108.087 9.80653ZM115.986 9.32911C115.84 9.38933 115.664 9.45814 115.457 9.53556C115.251 9.61298 115.027 9.6732 114.786 9.7162C114.554 9.76782 114.317 9.79362 114.076 9.79362C113.758 9.79362 113.466 9.73772 113.199 9.62588C112.932 9.51404 112.717 9.33772 112.554 9.09685C112.399 8.8474 112.322 8.52482 112.322 8.12911V4.24524H111.431V2.9162H112.322V0.722656H114.051V2.9162H115.47V4.24524H114.051V7.54846C114.059 7.78072 114.124 7.94846 114.244 8.05169C114.364 8.15491 114.515 8.20653 114.696 8.20653C114.876 8.20653 115.053 8.17643 115.225 8.1162C115.397 8.05598 115.534 8.00437 115.638 7.96137L115.986 9.32911ZM119.934 9.80653C119.392 9.80653 118.902 9.7162 118.463 9.53556C118.024 9.3463 117.65 9.09256 117.34 8.77427C117.031 8.4474 116.79 8.0775 116.618 7.66459C116.454 7.24308 116.373 6.80008 116.373 6.33556C116.373 5.6904 116.514 5.10114 116.798 4.56782C117.091 4.03449 117.504 3.60869 118.037 3.2904C118.579 2.96351 119.215 2.80008 119.947 2.80008C120.686 2.80008 121.319 2.96351 121.844 3.2904C122.368 3.60869 122.768 4.03449 123.044 4.56782C123.327 5.09256 123.469 5.6603 123.469 6.27104C123.469 6.37427 123.465 6.48179 123.456 6.59362C123.448 6.69685 123.439 6.78288 123.431 6.85169H118.205C118.239 7.19579 118.338 7.49685 118.502 7.75491C118.674 8.01298 118.889 8.21082 119.147 8.34846C119.414 8.47749 119.697 8.54201 119.998 8.54201C120.343 8.54201 120.665 8.4603 120.966 8.29685C121.276 8.12482 121.486 7.90114 121.598 7.62588L123.082 8.03878C122.919 8.38288 122.682 8.68824 122.373 8.95491C122.072 9.22159 121.714 9.43233 121.302 9.58717C120.889 9.7334 120.433 9.80653 119.934 9.80653ZM118.166 5.75491H121.702C121.667 5.41082 121.568 5.11404 121.405 4.86459C121.25 4.60653 121.044 4.40869 120.785 4.27104C120.527 4.12482 120.239 4.05169 119.921 4.05169C119.611 4.05169 119.327 4.12482 119.069 4.27104C118.82 4.40869 118.614 4.60653 118.45 4.86459C118.295 5.11404 118.201 5.41082 118.166 5.75491ZM128.548 4.41298C128.024 4.41298 127.555 4.5162 127.142 4.72266C126.729 4.92049 126.432 5.20869 126.252 5.58717V9.6775H124.523V2.9162H126.11V4.36137C126.351 3.89685 126.656 3.53127 127.026 3.26459C127.396 2.99792 127.787 2.85169 128.2 2.82588C128.295 2.82588 128.368 2.82588 128.419 2.82588C128.471 2.82588 128.514 2.83018 128.548 2.83879V4.41298Z" fill="#191B22"/>
<path d="M96.6433 9.35475H94.3548V4.35417C94.3548 3.65114 94.2296 3.1352 93.9791 2.80637C93.74 2.46619 93.4042 2.2961 92.9715 2.2961C92.5275 2.2961 92.1006 2.47186 91.6907 2.82337C91.2922 3.16355 91.0076 3.61145 90.8368 4.16707V9.35475H88.5484V4.35417C88.5484 3.6398 88.4232 3.11819 88.1727 2.78936C87.9336 2.46052 87.5978 2.2961 87.1651 2.2961C86.7211 2.2961 86.2941 2.46619 85.8843 2.80637C85.4858 3.14654 85.2011 3.59444 85.0304 4.15006V9.35475H82.7419V0.442143H84.8084V2.092C85.1499 1.5137 85.6053 1.07147 86.1746 0.76531C86.7439 0.447811 87.3985 0.289062 88.1385 0.289062C88.8786 0.289062 89.4535 0.470488 89.8634 0.833345C90.2846 1.1962 90.5522 1.6441 90.666 2.17704C91.0304 1.56472 91.4915 1.09982 92.0493 0.782319C92.6186 0.453483 93.2562 0.289062 93.962 0.289062C94.5199 0.289062 94.9696 0.391115 95.3112 0.595222C95.6642 0.787987 95.9374 1.05446 96.1309 1.39464C96.3245 1.72347 96.4554 2.09766 96.5237 2.51722C96.6034 2.93677 96.6433 3.36199 96.6433 3.79288V9.35475Z" fill="#191B22"/>
<path d="M66.2806 2.9162V7.14846C66.2806 8.01727 66.4613 8.67966 66.8225 9.13556C67.1838 9.58288 67.7129 9.80653 68.4096 9.80653C68.9774 9.80653 69.498 9.6904 69.9709 9.45814C70.4442 9.21727 70.8313 8.86888 71.1322 8.41298L71.1709 8.95491C71.2054 9.20437 71.3174 9.40224 71.5064 9.54846C71.7045 9.68611 71.958 9.75491 72.2677 9.75491C72.3625 9.75491 72.4658 9.7463 72.5774 9.72911C72.698 9.72049 72.8442 9.7033 73.0161 9.6775V8.27104C72.87 8.25385 72.7625 8.20653 72.6935 8.12911C72.6335 8.05169 72.6032 7.92266 72.6032 7.74201V2.9162H70.8742V7.10975C70.7451 7.38501 70.5861 7.61298 70.3967 7.79362C70.2161 7.97427 70.0142 8.11191 69.7903 8.20653C69.5754 8.29256 69.3561 8.33556 69.1322 8.33556C68.7625 8.33556 68.4829 8.20653 68.2935 7.94846C68.1045 7.68179 68.0096 7.2904 68.0096 6.77427V2.9162H66.2806Z" fill="#191B22"/>
<path d="M77.819 9.53556C78.0254 9.45814 78.2019 9.38933 78.348 9.32911L77.9996 7.96137C77.8964 8.00437 77.7587 8.05598 77.5867 8.1162C77.4148 8.17643 77.2383 8.20653 77.0577 8.20653C76.8771 8.20653 76.7264 8.15491 76.6061 8.05169C76.4858 7.94846 76.4213 7.78072 76.4125 7.54846V4.24524H77.8319V2.9162H76.4125V0.722656H74.6835V2.9162H73.7932V4.24524H74.6835V8.12911C74.6835 8.52482 74.7609 8.8474 74.9158 9.09685C75.0793 9.33772 75.2942 9.51404 75.5609 9.62588C75.8277 9.73772 76.12 9.79362 76.4383 9.79362C76.6793 9.79362 76.9158 9.76782 77.148 9.7162C77.389 9.6732 77.6125 9.61298 77.819 9.53556Z" fill="#191B22"/>
<path fill-rule="evenodd" clip-rule="evenodd" d="M61.6429 9.80653C61.0922 9.80653 60.5977 9.7162 60.159 9.53556C59.7203 9.3463 59.3461 9.08824 59.0364 8.76137C58.7351 8.43449 58.5029 8.0603 58.3396 7.63879C58.1761 7.21727 58.0945 6.77427 58.0945 6.30975C58.0945 5.83662 58.1761 5.38933 58.3396 4.96782C58.5029 4.5463 58.7351 4.17211 59.0364 3.84524C59.3461 3.51837 59.7203 3.26459 60.159 3.08395C60.5977 2.8947 61.0922 2.80008 61.6429 2.80008C62.1932 2.80008 62.6835 2.8947 63.1138 3.08395C63.5525 3.26459 63.9267 3.51837 64.2364 3.84524C64.5461 4.17211 64.7783 4.5463 64.9332 4.96782C65.0964 5.38933 65.1783 5.83662 65.1783 6.30975C65.1783 6.77427 65.0964 7.21727 64.9332 7.63879C64.7783 8.0603 64.5461 8.43449 64.2364 8.76137C63.9351 9.08824 63.5654 9.3463 63.1267 9.53556C62.688 9.7162 62.1932 9.80653 61.6429 9.80653ZM60.1074 7.36782C59.9525 7.05814 59.8751 6.70546 59.8751 6.30975C59.8751 5.91404 59.9525 5.56566 60.1074 5.26459C60.2622 4.95491 60.4729 4.71404 60.7396 4.54201C61.0061 4.36137 61.3074 4.27104 61.6429 4.27104C61.9696 4.27104 62.2664 4.35708 62.5332 4.52911C62.7996 4.70114 63.0106 4.94201 63.1654 5.25169C63.3287 5.56137 63.4106 5.90975 63.4106 6.29685C63.4106 6.69256 63.3287 7.04524 63.1654 7.35491C63.0106 7.65598 62.7996 7.89685 62.5332 8.0775C62.2664 8.24953 61.9696 8.33556 61.6429 8.33556C61.3074 8.33556 61.0061 8.24953 60.7396 8.0775C60.4729 7.90546 60.2622 7.66888 60.1074 7.36782Z" fill="#191B22"/>
<path d="M19.9469 3.3933C19.7491 3.92662 19.6501 4.47288 19.6501 5.03201C19.6501 5.60836 19.7577 6.18039 19.9727 6.74814C20.1964 7.30726 20.5018 7.81481 20.8889 8.27072C21.2846 8.71804 21.7534 9.07933 22.2953 9.35459C22.8372 9.62127 23.4351 9.75459 24.0889 9.75459C24.5878 9.75459 25.091 9.67288 25.5985 9.50943C26.1061 9.34597 26.562 9.10514 26.9663 8.78685C27.3792 8.46856 27.676 8.08146 27.8566 7.62556L26.3985 6.78685C26.2609 7.11372 26.0673 7.38039 25.8179 7.58685C25.5684 7.7933 25.2974 7.94385 25.005 8.03846C24.7125 8.13307 24.4243 8.18039 24.1405 8.18039C23.7448 8.18039 23.3792 8.09868 23.0437 7.93523C22.7168 7.7632 22.4329 7.53523 22.1921 7.25136C21.9598 6.95888 21.7792 6.62772 21.6501 6.25781C21.5211 5.87933 21.4566 5.48791 21.4566 5.08362C21.4566 4.72233 21.5082 4.36104 21.6114 3.99975C21.7233 3.63846 21.891 3.31159 22.1147 3.0191C22.3383 2.72663 22.6136 2.49007 22.9405 2.30943C23.276 2.12878 23.6673 2.03846 24.1147 2.03846C24.3899 2.03846 24.6695 2.08147 24.9534 2.16749C25.2372 2.24491 25.5039 2.38685 25.7534 2.5933C26.0028 2.79115 26.205 3.06211 26.3598 3.4062L27.7276 2.46426C27.4265 1.87072 26.9663 1.389 26.3469 1.0191C25.7362 0.64921 25.0093 0.464264 24.1663 0.464264C23.4523 0.464264 22.8157 0.597597 22.2566 0.864264C21.6975 1.12233 21.2243 1.47502 20.8372 1.92233C20.4501 2.36104 20.1534 2.85136 19.9469 3.3933Z" fill="#4547EB"/>
<path d="M33.4379 9.67717H35.1669V5.45781C35.1669 5.12233 35.1368 4.79975 35.0766 4.49007C35.0163 4.17178 34.9088 3.88791 34.754 3.63846C34.5992 3.38039 34.3841 3.17824 34.1088 3.03201C33.8335 2.87717 33.4766 2.79975 33.0379 2.79975C32.5303 2.79975 32.0615 2.92018 31.6314 3.16104C31.2013 3.40191 30.8615 3.73739 30.6121 4.16749V0.257812H28.883V9.67717H30.6121V5.72878C30.6981 5.45352 30.8314 5.21265 31.0121 5.0062C31.2013 4.79114 31.4121 4.62339 31.6443 4.50297C31.8766 4.38256 32.0959 4.32233 32.3024 4.32233C32.6551 4.32233 32.9303 4.45136 33.1282 4.70943C33.3346 4.96749 33.4379 5.35888 33.4379 5.88362V9.67717Z" fill="#4547EB"/>
<path d="M46.0591 9.53523C46.4978 9.71588 46.9924 9.8062 47.543 9.8062C48.0419 9.8062 48.4892 9.73307 48.8849 9.58685C49.2892 9.43201 49.6376 9.22126 49.9301 8.95459C50.2312 8.68791 50.4591 8.38685 50.614 8.05136L48.9236 7.53523C48.8548 7.69007 48.7473 7.82772 48.6011 7.94814C48.4548 8.06855 48.2871 8.1632 48.0978 8.23201C47.9172 8.30081 47.7236 8.33523 47.5172 8.33523C47.1903 8.33523 46.8935 8.2492 46.6269 8.07717C46.3602 7.89652 46.1452 7.65565 45.9817 7.35459C45.8269 7.04491 45.7494 6.69223 45.7494 6.29652C45.7494 5.89223 45.8269 5.53952 45.9817 5.23846C46.1365 4.92878 46.3473 4.69223 46.614 4.52878C46.8892 4.35675 47.1903 4.27072 47.5172 4.27072C47.8097 4.27072 48.0763 4.33952 48.3172 4.47717C48.5581 4.6062 48.7516 4.79546 48.8978 5.04491L50.5882 4.52878C50.3301 4.01265 49.9387 3.59546 49.414 3.27717C48.8892 2.95889 48.2613 2.79975 47.5301 2.79975C46.7989 2.79975 46.1666 2.95889 45.6333 3.27717C45.1 3.59546 44.6871 4.02126 44.3946 4.55459C44.1107 5.07933 43.9688 5.65997 43.9688 6.29652C43.9688 6.76104 44.0505 7.20404 44.214 7.62556C44.386 8.04707 44.6269 8.42556 44.9365 8.76104C45.2462 9.08791 45.6204 9.34597 46.0591 9.53523Z" fill="#4547EB"/>
<path d="M54.3231 6.76104L56.2973 9.67717H58.1425L55.4457 5.7933L57.9618 2.92878H56.1296L53.407 5.96104V0.257812H51.6779V9.67717H53.407V7.66426L54.3231 6.76104Z" fill="#4547EB"/>
<path fill-rule="evenodd" clip-rule="evenodd" d="M39.8058 9.8062C39.2639 9.8062 38.7735 9.71588 38.3348 9.53523C37.8961 9.34597 37.5219 9.09223 37.2122 8.77394C36.9026 8.44707 36.6617 8.07717 36.4897 7.66426C36.3262 7.24275 36.2445 6.79975 36.2445 6.33523C36.2445 5.69007 36.3864 5.10081 36.6703 4.56749C36.9628 4.03417 37.3757 3.60836 37.909 3.29007C38.451 2.96319 39.0875 2.79975 39.8187 2.79975C40.5585 2.79975 41.1907 2.96319 41.7155 3.29007C42.2402 3.60836 42.6402 4.03417 42.9155 4.56749C43.1993 5.09223 43.3413 5.65997 43.3413 6.27072C43.3413 6.37394 43.337 6.48146 43.3284 6.5933C43.3198 6.69652 43.3112 6.78256 43.3026 6.85136H38.0768C38.1112 7.19546 38.2101 7.49652 38.3735 7.75459C38.5456 8.01265 38.7606 8.21049 39.0187 8.34814C39.2853 8.47717 39.5692 8.54168 39.8703 8.54168C40.2144 8.54168 40.537 8.45997 40.8381 8.29652C41.1477 8.12449 41.3585 7.90081 41.4703 7.62556L42.9542 8.03846C42.7907 8.38256 42.5542 8.68791 42.2445 8.95459C41.9434 9.22126 41.5864 9.43201 41.1735 9.58685C40.7606 9.73307 40.3047 9.8062 39.8058 9.8062ZM41.5735 5.75459H38.0381C38.0724 5.41049 38.1671 5.11372 38.3219 4.86426C38.4853 4.6062 38.6918 4.40836 38.9413 4.27072C39.1993 4.12449 39.4832 4.05136 39.7929 4.05136C40.1112 4.05136 40.3993 4.12449 40.6574 4.27072C40.9155 4.40836 41.1219 4.6062 41.2768 4.86426C41.4402 5.11372 41.5391 5.41049 41.5735 5.75459Z" fill="#4547EB"/>
<circle cx="12.5806" cy="5" r="5" fill="#C1C2EC"/>
<path d="M10.8064 5C10.8064 7.76142 8.56782 10 5.8064 10C3.04497 10 0.806396 7.76142 0.806396 5C0.806396 2.23858 3.04497 0 5.8064 0C7.13507 0 8.34269 0.518251 9.23816 1.36364C10.2038 2.27524 10.8064 3.56725 10.8064 5Z" fill="#4547EB"/>
<path d="M8.293 1.57857L5.718 5.20464L4.60762 3.67444C4.49651 3.52249 4.33325 3.42376 4.15376 3.39996C3.97426 3.37615 3.79324 3.42924 3.65051 3.54753C3.50778 3.66581 3.41504 3.83962 3.39268 4.03071C3.37033 4.22179 3.42019 4.41451 3.5313 4.56645L5.18665 6.82188C5.25081 6.90831 5.33261 6.97804 5.42586 7.02579C5.5191 7.07354 5.62134 7.09805 5.72481 7.09746C5.82885 7.09719 5.93144 7.07156 6.02473 7.02253C6.11801 6.97351 6.19951 6.90238 6.26297 6.81462L9.37613 2.46333C9.48634 2.30946 9.53462 2.11528 9.51034 1.92351C9.48607 1.73175 9.36916 1.55385 9.22463 1.43652C9.08009 1.3192 8.91977 1.27205 8.73964 1.29789C8.5595 1.32373 8.39639 1.42469 8.28618 1.57857H8.293Z" fill="#171717"/>
</svg>
