<svg width="594" height="47" viewBox="0 0 594 47" fill="none" xmlns="http://www.w3.org/2000/svg">
<g clip-path="url(#clip0_1177_3085)">
<path d="M4.12843 35.7061V9.05057H15.1661C16.3174 9.05057 17.3686 9.28834 18.3197 9.76389C19.2958 10.2394 20.1342 10.8902 20.835 11.7161C21.5358 12.517 22.0865 13.4181 22.4869 14.4192C22.8874 15.3953 23.0876 16.3965 23.0876 17.4226C23.0876 18.8743 22.7622 20.2509 22.1115 21.5524C21.4858 22.8288 20.5973 23.8675 19.4459 24.6684C18.2946 25.4693 16.9431 25.8698 15.3913 25.8698H6.75644V35.7061H4.12843ZM6.75644 23.5421H15.2787C16.3299 23.5421 17.2434 23.2543 18.0193 22.6787C18.7952 22.103 19.3959 21.3521 19.8214 20.4261C20.2469 19.5 20.4596 18.4989 20.4596 17.4226C20.4596 16.3214 20.2093 15.3077 19.7087 14.3817C19.2082 13.4556 18.5449 12.7298 17.719 12.2042C16.9181 11.6535 16.0295 11.3782 15.0534 11.3782H6.75644V23.5421ZM34.9251 36.0815C33.5235 36.0815 32.222 35.8187 31.0206 35.2931C29.8443 34.7425 28.8181 34.0041 27.9421 33.078C27.0911 32.127 26.4279 31.0507 25.9523 29.8494C25.4768 28.623 25.239 27.334 25.239 25.9824C25.239 24.5808 25.4768 23.2793 25.9523 22.078C26.4279 20.8516 27.1036 19.7753 27.9796 18.8493C28.8556 17.8982 29.8818 17.1598 31.0582 16.6342C32.2595 16.0836 33.561 15.8083 34.9626 15.8083C36.3642 15.8083 37.6532 16.0836 38.8295 16.6342C40.0059 17.1598 41.0321 17.8982 41.9081 18.8493C42.7841 19.7753 43.4598 20.8516 43.9354 22.078C44.4109 23.2793 44.6487 24.5808 44.6487 25.9824C44.6487 27.334 44.4109 28.623 43.9354 29.8494C43.4598 31.0507 42.7841 32.127 41.9081 33.078C41.0571 34.0041 40.0309 34.7425 38.8295 35.2931C37.6532 35.8187 36.3517 36.0815 34.9251 36.0815ZM27.8295 26.02C27.8295 27.4716 28.1423 28.7982 28.768 29.9995C29.4188 31.1759 30.2823 32.1144 31.3585 32.8152C32.4347 33.491 33.6236 33.8289 34.9251 33.8289C36.2266 33.8289 37.4154 33.4785 38.4917 32.7777C39.5679 32.0769 40.4314 31.1258 41.0821 29.9244C41.7329 28.698 42.0582 27.3715 42.0582 25.9449C42.0582 24.4932 41.7329 23.1667 41.0821 21.9653C40.4314 20.764 39.5679 19.8129 38.4917 19.1121C37.4154 18.4113 36.2266 18.0609 34.9251 18.0609C33.6236 18.0609 32.4347 18.4238 31.3585 19.1496C30.3073 19.8755 29.4563 20.8391 28.8056 22.0404C28.1548 23.2168 27.8295 24.5433 27.8295 26.02ZM72.8865 16.1462H75.4019L66.9923 35.7061H64.7773L60.6851 25.9824L56.6305 35.7061H54.4154L46.0058 16.1462H48.4836L55.6168 33.078L59.2209 24.2555L55.9171 16.1837H58.2073L60.6851 22.5285L63.2005 16.1837H65.453L62.1868 24.2555L65.7909 33.078L72.8865 16.1462ZM86.5859 36.0815C85.1843 36.0815 83.8828 35.8187 82.6814 35.2931C81.4801 34.7425 80.4414 34.0041 79.5654 33.078C78.6894 32.127 78.0011 31.0382 77.5005 29.8118C77.025 28.5854 76.7872 27.2714 76.7872 25.8698C76.7872 24.0427 77.2002 22.3658 78.0261 20.8391C78.8771 19.3123 80.0409 18.0984 81.5176 17.1974C82.9943 16.2713 84.6712 15.8083 86.5484 15.8083C88.4756 15.8083 90.1525 16.2713 91.5791 17.1974C93.0308 18.1234 94.1696 19.3499 94.9955 20.8766C95.8215 22.3783 96.2344 24.0302 96.2344 25.8323C96.2344 26.0325 96.2344 26.2327 96.2344 26.433C96.2344 26.6082 96.2219 26.7458 96.1969 26.8459H79.4528C79.5779 28.2475 79.9658 29.499 80.6166 30.6002C81.2924 31.6764 82.1558 32.5399 83.207 33.1907C84.2833 33.8164 85.4471 34.1293 86.6985 34.1293C87.975 34.1293 89.1764 33.8039 90.3027 33.1531C91.454 32.5024 92.2549 31.6514 92.7054 30.6002L94.9204 31.2009C94.52 32.127 93.9068 32.9654 93.0808 33.7163C92.2549 34.4671 91.2788 35.0553 90.1525 35.4808C89.0512 35.8813 87.8624 36.0815 86.5859 36.0815ZM79.3777 25.0063H93.8317C93.7316 23.5797 93.3436 22.3283 92.6679 21.252C92.0171 20.1758 91.1536 19.3373 90.0774 18.7366C89.0262 18.1109 87.8624 17.7981 86.5859 17.7981C85.3094 17.7981 84.1456 18.1109 83.0944 18.7366C82.0432 19.3373 81.1797 20.1883 80.504 21.2896C79.8532 22.3658 79.4778 23.6047 79.3777 25.0063ZM109.934 18.3988C108.232 18.4488 106.731 18.9244 105.429 19.8254C104.153 20.7264 103.252 21.9653 102.726 23.5421V35.7061H100.173V16.1462H102.576V20.8391C103.252 19.4625 104.14 18.3487 105.242 17.4977C106.368 16.6468 107.557 16.1712 108.808 16.0711C109.058 16.0461 109.271 16.0336 109.446 16.0336C109.647 16.0336 109.809 16.0461 109.934 16.0711V18.3988ZM121.159 36.0815C119.758 36.0815 118.456 35.8187 117.255 35.2931C116.053 34.7425 115.015 34.0041 114.139 33.078C113.263 32.127 112.574 31.0382 112.074 29.8118C111.598 28.5854 111.36 27.2714 111.36 25.8698C111.36 24.0427 111.773 22.3658 112.599 20.8391C113.45 19.3123 114.614 18.0984 116.091 17.1974C117.568 16.2713 119.244 15.8083 121.122 15.8083C123.049 15.8083 124.726 16.2713 126.152 17.1974C127.604 18.1234 128.743 19.3499 129.569 20.8766C130.395 22.3783 130.808 24.0302 130.808 25.8323C130.808 26.0325 130.808 26.2327 130.808 26.433C130.808 26.6082 130.795 26.7458 130.77 26.8459H114.026C114.151 28.2475 114.539 29.499 115.19 30.6002C115.866 31.6764 116.729 32.5399 117.78 33.1907C118.856 33.8164 120.02 34.1293 121.272 34.1293C122.548 34.1293 123.75 33.8039 124.876 33.1531C126.027 32.5024 126.828 31.6514 127.279 30.6002L129.494 31.2009C129.093 32.127 128.48 32.9654 127.654 33.7163C126.828 34.4671 125.852 35.0553 124.726 35.4808C123.624 35.8813 122.436 36.0815 121.159 36.0815ZM113.951 25.0063H128.405C128.305 23.5797 127.917 22.3283 127.241 21.252C126.59 20.1758 125.727 19.3373 124.651 18.7366C123.599 18.1109 122.436 17.7981 121.159 17.7981C119.883 17.7981 118.719 18.1109 117.668 18.7366C116.616 19.3373 115.753 20.1883 115.077 21.2896C114.426 22.3658 114.051 23.6047 113.951 25.0063ZM133.432 25.9824C133.432 24.1303 133.808 22.4409 134.559 20.9141C135.335 19.3624 136.398 18.1234 137.75 17.1974C139.101 16.2713 140.641 15.8083 142.368 15.8083C143.995 15.8083 145.446 16.2463 146.723 17.1223C148.024 17.9733 149.038 19.012 149.764 20.2384V8.29971H152.317V32.6275C152.317 32.9779 152.392 33.2407 152.542 33.4159C152.692 33.5661 152.917 33.6537 153.218 33.6787V35.7061C152.717 35.7811 152.329 35.8062 152.054 35.7811C151.528 35.7561 151.065 35.5434 150.665 35.1429C150.264 34.7425 150.064 34.3045 150.064 33.8289V31.9142C149.288 33.1907 148.237 34.2043 146.91 34.9552C145.584 35.7061 144.207 36.0815 142.781 36.0815C141.429 36.0815 140.178 35.8062 139.026 35.2555C137.9 34.7049 136.911 33.9541 136.06 33.003C135.235 32.0519 134.584 30.9756 134.108 29.7743C133.658 28.5479 133.432 27.2839 133.432 25.9824ZM149.764 28.9859V22.9415C149.438 22.0404 148.913 21.227 148.187 20.5012C147.461 19.7503 146.635 19.1621 145.709 18.7366C144.808 18.2861 143.907 18.0609 143.006 18.0609C141.955 18.0609 141.004 18.2861 140.153 18.7366C139.302 19.1621 138.563 19.7503 137.938 20.5012C137.337 21.252 136.874 22.103 136.549 23.0541C136.223 24.0052 136.06 24.9813 136.06 25.9824C136.06 27.0336 136.236 28.0348 136.586 28.9859C136.961 29.937 137.487 30.7879 138.163 31.5388C138.839 32.2646 139.615 32.8278 140.491 33.2282C141.367 33.6287 142.318 33.8289 143.344 33.8289C143.995 33.8289 144.67 33.7038 145.371 33.4535C146.072 33.2032 146.735 32.8653 147.361 32.4398C148.012 31.9893 148.55 31.4637 148.975 30.863C149.401 30.2623 149.664 29.6366 149.764 28.9859ZM177.243 36.0815C175.717 36.0815 174.302 35.6935 173.001 34.9177C171.699 34.1167 170.686 33.1156 169.96 31.9142V35.7061H167.67V8.29971H170.223V20.2384C171.099 18.9118 172.15 17.8481 173.376 17.0472C174.603 16.2213 176.029 15.8083 177.656 15.8083C179.033 15.8083 180.259 16.0961 181.335 16.6718C182.437 17.2474 183.375 18.0233 184.151 18.9994C184.927 19.9505 185.515 21.0393 185.916 22.2657C186.316 23.4671 186.516 24.706 186.516 25.9824C186.516 27.359 186.279 28.648 185.803 29.8494C185.353 31.0507 184.702 32.127 183.851 33.078C183 34.0041 182.011 34.7425 180.885 35.2931C179.784 35.8187 178.57 36.0815 177.243 36.0815ZM176.643 33.8289C177.694 33.8289 178.67 33.6162 179.571 33.1907C180.472 32.7652 181.248 32.177 181.899 31.4262C182.549 30.6753 183.05 29.8368 183.4 28.9108C183.751 27.9597 183.926 26.9836 183.926 25.9824C183.926 24.6059 183.626 23.3169 183.025 22.1155C182.449 20.8891 181.636 19.913 180.585 19.1872C179.558 18.4363 178.345 18.0609 176.943 18.0609C175.942 18.0609 175.003 18.2861 174.127 18.7366C173.276 19.1872 172.513 19.7879 171.837 20.5387C171.186 21.2645 170.648 22.0655 170.223 22.9415V29.0234C170.323 29.6992 170.586 30.3374 171.011 30.9381C171.437 31.5138 171.962 32.0143 172.588 32.4398C173.239 32.8653 173.914 33.2032 174.615 33.4535C175.316 33.7038 175.992 33.8289 176.643 33.8289ZM191.307 41.7129C191.658 41.738 191.995 41.7505 192.321 41.7505C192.646 41.7755 192.884 41.763 193.034 41.7129C193.335 41.6629 193.622 41.4877 193.898 41.1873C194.173 40.887 194.498 40.3113 194.874 39.4603C195.249 38.6094 195.775 37.3579 196.451 35.7061L187.928 16.1462H190.631L197.802 33.078L204.41 16.1462H206.963L196.826 41.375C196.651 41.8506 196.388 42.2886 196.038 42.689C195.687 43.1145 195.249 43.4399 194.724 43.6652C194.223 43.9154 193.597 44.0531 192.846 44.0781C192.621 44.1032 192.383 44.1032 192.133 44.0781C191.908 44.0781 191.633 44.0531 191.307 44.003V41.7129ZM210.153 19.938V16.2588H212.331V19.938H210.153ZM210.153 35.7061V32.0268H212.331V35.7061H210.153Z" fill="#808080"/>
<g clip-path="url(#clip1_1177_3085)">
<path d="M307.285 35.7858C304.918 35.7858 302.772 35.2771 300.848 34.2596C298.946 33.22 297.442 31.7933 296.336 29.9795C295.252 28.1436 294.71 26.0755 294.71 23.7751C294.71 21.4747 295.252 19.4176 296.336 17.6038C297.442 15.7679 298.946 14.3412 300.848 13.3237C302.772 12.2841 304.929 11.7643 307.318 11.7643C309.331 11.7643 311.145 12.1182 312.759 12.826C314.396 13.5338 315.768 14.5513 316.874 15.8785L313.423 19.0637C311.852 17.2499 309.906 16.343 307.583 16.343C306.146 16.343 304.863 16.6637 303.735 17.3052C302.607 17.9245 301.722 18.7982 301.08 19.9263C300.461 21.0544 300.151 22.3373 300.151 23.7751C300.151 25.2128 300.461 26.4957 301.08 27.6238C301.722 28.7519 302.607 29.6367 303.735 30.2781C304.863 30.8975 306.146 31.2071 307.583 31.2071C309.906 31.2071 311.852 30.2892 313.423 28.4533L316.874 31.6385C315.768 32.9878 314.396 34.0163 312.759 34.7241C311.123 35.4319 309.298 35.7858 307.285 35.7858ZM330.49 17.272C332.702 17.272 334.483 17.9356 335.832 19.2627C337.203 20.5899 337.889 22.5585 337.889 25.1686V35.3877H332.713V25.9649C332.713 24.5492 332.403 23.4986 331.784 22.8129C331.165 22.1051 330.269 21.7512 329.097 21.7512C327.792 21.7512 326.752 22.1604 325.978 22.9788C325.204 23.7751 324.817 24.9695 324.817 26.5621V35.3877H319.641V10.7689H324.817V19.3954C325.502 18.7098 326.332 18.1899 327.305 17.836C328.278 17.46 329.34 17.272 330.49 17.272ZM351.269 31.5058C352.198 31.5058 353.016 31.373 353.724 31.1076C354.454 30.8201 355.129 30.3777 355.748 29.7805L358.502 32.7666C356.821 34.6909 354.366 35.6531 351.136 35.6531C349.123 35.6531 347.343 35.266 345.794 34.4919C344.246 33.6956 343.052 32.6007 342.211 31.2071C341.371 29.8136 340.95 28.2321 340.95 26.4626C340.95 24.7151 341.359 23.1447 342.178 21.7512C343.018 20.3355 344.158 19.2406 345.595 18.4664C347.055 17.6701 348.692 17.272 350.506 17.272C352.209 17.272 353.757 17.637 355.151 18.3669C356.544 19.0747 357.65 20.1143 358.469 21.4857C359.309 22.835 359.73 24.4386 359.73 26.2967L346.524 28.8514C346.9 29.7362 347.487 30.3998 348.283 30.8422C349.101 31.2846 350.097 31.5058 351.269 31.5058ZM350.506 21.1871C349.201 21.1871 348.139 21.6074 347.321 22.4479C346.502 23.2884 346.071 24.4497 346.027 25.9317L354.72 24.2396C354.476 23.3106 353.979 22.5696 353.226 22.0166C352.474 21.4636 351.568 21.1871 350.506 21.1871ZM371.338 35.6531C369.435 35.6531 367.721 35.266 366.195 34.4919C364.691 33.6956 363.507 32.6007 362.645 31.2071C361.804 29.8136 361.384 28.2321 361.384 26.4626C361.384 24.693 361.804 23.1115 362.645 21.718C363.507 20.3245 364.691 19.2406 366.195 18.4664C367.721 17.6701 369.435 17.272 371.338 17.272C373.218 17.272 374.854 17.6701 376.248 18.4664C377.664 19.2406 378.692 20.3576 379.334 21.8175L375.319 23.9741C374.39 22.3373 373.052 21.5189 371.304 21.5189C369.955 21.5189 368.838 21.9613 367.953 22.8461C367.068 23.7308 366.626 24.9363 366.626 26.4626C366.626 27.9888 367.068 29.1943 367.953 30.0791C368.838 30.9638 369.955 31.4062 371.304 31.4062C373.074 31.4062 374.412 30.5878 375.319 28.951L379.334 31.1408C378.692 32.5564 377.664 33.6624 376.248 34.4587C374.854 35.255 373.218 35.6531 371.338 35.6531ZM389.351 28.3869L386.862 30.8422V35.3877H381.686V10.7689H386.862V24.7041L394.427 17.5374H400.598L393.166 25.1022L401.262 35.3877H394.991L389.351 28.3869Z" fill="#4547EB"/>
<path d="M411.586 35.6531C409.706 35.6531 408.014 35.266 406.51 34.4919C405.028 33.6956 403.866 32.6007 403.026 31.2071C402.185 29.8136 401.765 28.2321 401.765 26.4626C401.765 24.693 402.185 23.1115 403.026 21.718C403.866 20.3245 405.028 19.2406 406.51 18.4664C408.014 17.6701 409.706 17.272 411.586 17.272C413.466 17.272 415.147 17.6701 416.629 18.4664C418.111 19.2406 419.272 20.3245 420.113 21.718C420.953 23.1115 421.374 24.693 421.374 26.4626C421.374 28.2321 420.953 29.8136 420.113 31.2071C419.272 32.6007 418.111 33.6956 416.629 34.4919C415.147 35.266 413.466 35.6531 411.586 35.6531ZM411.586 31.4062C412.913 31.4062 413.997 30.9638 414.837 30.0791C415.7 29.1722 416.131 27.9667 416.131 26.4626C416.131 24.9585 415.7 23.764 414.837 22.8792C413.997 21.9723 412.913 21.5189 411.586 21.5189C410.259 21.5189 409.164 21.9723 408.301 22.8792C407.439 23.764 407.007 24.9585 407.007 26.4626C407.007 27.9667 407.439 29.1722 408.301 30.0791C409.164 30.9638 410.259 31.4062 411.586 31.4062ZM442.319 17.5374V35.3877H437.408V33.2642C436.722 34.0384 435.904 34.6356 434.953 35.0559C434.002 35.4541 432.973 35.6531 431.867 35.6531C429.523 35.6531 427.665 34.9785 426.293 33.6292C424.922 32.2799 424.236 30.2781 424.236 27.6238V17.5374H429.412V26.8607C429.412 29.7362 430.618 31.174 433.029 31.174C434.267 31.174 435.263 30.7758 436.015 29.9795C436.767 29.1611 437.143 27.9556 437.143 26.363V17.5374H442.319ZM457.366 34.525C456.857 34.9011 456.227 35.1886 455.475 35.3877C454.745 35.5646 453.982 35.6531 453.186 35.6531C451.04 35.6531 449.392 35.1112 448.242 34.0274C447.092 32.9435 446.517 31.3509 446.517 29.2496V13.5891H451.692V17.9356H456.105V21.917H451.692V29.1832C451.692 29.9353 451.88 30.5215 452.257 30.9417C452.633 31.3399 453.174 31.5389 453.882 31.5389C454.679 31.5389 455.386 31.3177 456.006 30.8754L457.366 34.525ZM495.565 11.7643C498.308 11.7643 500.443 12.5716 501.969 14.1864C503.495 15.7789 504.258 18.0904 504.258 21.1208V35.3877H498.883V21.2866C498.883 19.6498 498.452 18.4222 497.589 17.6038C496.749 16.7633 495.632 16.343 494.238 16.343C492.712 16.343 491.495 16.7854 490.589 17.6701C489.682 18.5328 489.228 19.8489 489.228 21.6184V35.3877H483.853V21.2866C483.853 19.6498 483.455 18.4222 482.659 17.6038C481.863 16.7633 480.779 16.343 479.407 16.343C477.903 16.343 476.698 16.7854 475.791 17.6701C474.884 18.5328 474.43 19.8489 474.43 21.6184V35.3877H469.055V12.1624H474.265V15.0158C474.972 13.9762 475.912 13.1799 477.085 12.6269C478.257 12.0518 479.606 11.7643 481.133 11.7643C482.725 11.7643 484.119 12.0629 485.313 12.6601C486.508 13.2352 487.426 14.0758 488.067 15.1817C488.863 14.0758 489.903 13.2352 491.186 12.6601C492.491 12.0629 493.951 11.7643 495.565 11.7643ZM526.81 17.5374V35.3877H521.866V33.3306C520.584 34.879 518.726 35.6531 516.292 35.6531C514.611 35.6531 513.085 35.2771 511.714 34.525C510.364 33.773 509.303 32.7002 508.529 31.3067C507.754 29.9132 507.367 28.2985 507.367 26.4626C507.367 24.6267 507.754 23.012 508.529 21.6184C509.303 20.2249 510.364 19.1521 511.714 18.4001C513.085 17.648 514.611 17.272 516.292 17.272C518.571 17.272 520.351 17.9909 521.634 19.4286V17.5374H526.81ZM517.188 31.4062C518.493 31.4062 519.577 30.9638 520.44 30.0791C521.302 29.1722 521.734 27.9667 521.734 26.4626C521.734 24.9585 521.302 23.764 520.44 22.8792C519.577 21.9723 518.493 21.5189 517.188 21.5189C515.861 21.5189 514.766 21.9723 513.904 22.8792C513.041 23.764 512.61 24.9585 512.61 26.4626C512.61 27.9667 513.041 29.1722 513.904 30.0791C514.766 30.9638 515.861 31.4062 517.188 31.4062ZM537.11 35.6531C535.628 35.6531 534.179 35.4762 532.763 35.1223C531.348 34.7462 530.22 34.2817 529.379 33.7287L531.104 30.0127C531.901 30.5215 532.863 30.9417 533.991 31.2735C535.119 31.5832 536.225 31.738 537.309 31.738C539.499 31.738 540.594 31.1961 540.594 30.1122C540.594 29.6035 540.295 29.2385 539.698 29.0173C539.101 28.7961 538.183 28.6081 536.944 28.4533C535.484 28.2321 534.279 27.9777 533.327 27.6902C532.376 27.4026 531.547 26.8939 530.839 26.164C530.153 25.434 529.81 24.3944 529.81 23.0451C529.81 21.917 530.131 20.9217 530.773 20.059C531.436 19.1743 532.387 18.4886 533.626 18.0019C534.887 17.5153 536.369 17.272 538.072 17.272C539.333 17.272 540.583 17.4158 541.821 17.7033C543.082 17.9688 544.122 18.3448 544.94 18.8314L543.215 22.5143C541.644 21.6295 539.93 21.1871 538.072 21.1871C536.966 21.1871 536.137 21.3419 535.584 21.6516C535.031 21.9613 534.754 22.3594 534.754 22.8461C534.754 23.399 535.053 23.7861 535.65 24.0073C536.247 24.2285 537.198 24.4386 538.503 24.6377C539.963 24.881 541.158 25.1465 542.087 25.434C543.016 25.6994 543.823 26.1971 544.509 26.9271C545.194 27.657 545.537 28.6745 545.537 29.9795C545.537 31.0855 545.205 32.0698 544.542 32.9325C543.878 33.7951 542.905 34.4697 541.622 34.9564C540.361 35.4209 538.857 35.6531 537.11 35.6531ZM558.983 34.525C558.474 34.9011 557.844 35.1886 557.092 35.3877C556.362 35.5646 555.599 35.6531 554.803 35.6531C552.657 35.6531 551.009 35.1112 549.859 34.0274C548.709 32.9435 548.134 31.3509 548.134 29.2496V13.5891H553.309V17.9356H557.722V21.917H553.309V29.1832C553.309 29.9353 553.497 30.5215 553.873 30.9417C554.25 31.3399 554.791 31.5389 555.499 31.5389C556.296 31.5389 557.003 31.3177 557.623 30.8754L558.983 34.525ZM569.849 31.5058C570.778 31.5058 571.597 31.373 572.305 31.1076C573.035 30.8201 573.709 30.3777 574.329 29.7805L577.082 32.7666C575.401 34.6909 572.946 35.6531 569.717 35.6531C567.704 35.6531 565.923 35.266 564.375 34.4919C562.827 33.6956 561.632 32.6007 560.792 31.2071C559.951 29.8136 559.531 28.2321 559.531 26.4626C559.531 24.7151 559.94 23.1447 560.758 21.7512C561.599 20.3355 562.738 19.2406 564.176 18.4664C565.636 17.6701 567.273 17.272 569.086 17.272C570.789 17.272 572.338 17.637 573.731 18.3669C575.125 19.0747 576.231 20.1143 577.049 21.4857C577.89 22.835 578.31 24.4386 578.31 26.2967L565.105 28.8514C565.481 29.7362 566.067 30.3998 566.863 30.8422C567.682 31.2846 568.677 31.5058 569.849 31.5058ZM569.086 21.1871C567.781 21.1871 566.72 21.6074 565.901 22.4479C565.083 23.2884 564.651 24.4497 564.607 25.9317L573.3 24.2396C573.057 23.3106 572.559 22.5696 571.807 22.0166C571.055 21.4636 570.148 21.1871 569.086 21.1871ZM586.235 19.8931C586.854 19.0305 587.684 18.378 588.724 17.9356C589.785 17.4932 591.002 17.272 592.373 17.272V22.0498C591.798 22.0055 591.411 21.9834 591.212 21.9834C589.73 21.9834 588.569 22.4037 587.728 23.2442C586.888 24.0626 586.467 25.3013 586.467 26.9602V35.3877H581.291V17.5374H586.235V19.8931Z" fill="#191B22"/>
<g clip-path="url(#clip2_1177_3085)">
<circle opacity="0.6" cx="274.951" cy="23.4965" r="12.5678" fill="#AFB0F6"/>
<g clip-path="url(#clip3_1177_3085)">
<circle cx="254.697" cy="23.4989" r="12.5678" fill="#4547EB"/>
<path d="M248.666 20.4812L254.934 29.5301L266.764 9.92432" stroke="white" stroke-width="3.01627" stroke-linejoin="round"/>
<path d="M248.682 20.4878L247.443 21.3475L247.156 20.9345C246.839 20.4783 246.953 19.8518 247.409 19.5353L247.822 19.2487L248.682 20.4878Z" fill="white"/>
<path d="M248.682 20.4878L249.921 19.6282L249.634 19.2151C249.318 18.7589 248.691 18.6456 248.235 18.9621L247.822 19.2486L248.682 20.4878Z" fill="white"/>
</g>
</g>
</g>
</g>
<defs>
<clipPath id="clip0_1177_3085">
<rect width="593" height="46" fill="white" transform="translate(0.787109 0.706055)"/>
</clipPath>
<clipPath id="clip1_1177_3085">
<rect width="350.892" height="40.2169" fill="white" transform="translate(242.135 3.3877)"/>
</clipPath>
<clipPath id="clip2_1177_3085">
<rect width="45.244" height="25.4679" fill="white" transform="translate(242.135 10.5957)"/>
</clipPath>
<clipPath id="clip3_1177_3085">
<rect x="242.135" y="10.9287" width="25.1356" height="25.1356" rx="12.5678" fill="white"/>
</clipPath>
</defs>
</svg>
