<svg width="37" height="36" viewBox="0 0 37 36" fill="none" xmlns="http://www.w3.org/2000/svg">
<circle cx="18.2464" cy="17.9993" r="17.3333" fill="#EB4547"/>
<g clip-path="url(#clip0_1_907)">
<path d="M24.2399 10.348H20.9125V9.68252C20.9125 8.94855 20.3156 8.35156 19.5816 8.35156H16.9197C16.1857 8.35156 15.5887 8.94855 15.5887 9.68252V10.348H12.2613C11.1606 10.348 10.2649 11.2437 10.2649 12.3444C10.2649 13.4451 11.1606 14.3409 12.2613 14.3409V24.9885C12.2613 26.0892 13.1571 26.985 14.2578 26.985H22.2435C23.3442 26.985 24.2399 26.0892 24.2399 24.9885V14.3409C25.3406 14.3409 26.2364 13.4451 26.2364 12.3444C26.2364 11.2437 25.3406 10.348 24.2399 10.348ZM16.9197 9.68252H19.5816V10.348H16.9197V9.68252ZM22.909 24.9885C22.909 25.3551 22.6101 25.654 22.2435 25.654H14.2578C13.8912 25.654 13.5923 25.3551 13.5923 24.9885V14.3409H22.909V24.9885ZM24.2399 13.0099H12.2613C11.8947 13.0099 11.5958 12.711 11.5958 12.3444C11.5958 11.9778 11.8947 11.679 12.2613 11.679H24.2399C24.6065 11.679 24.9054 11.9778 24.9054 12.3444C24.9054 12.711 24.6065 13.0099 24.2399 13.0099ZM19.5816 22.9921V17.0028C19.5816 16.6354 19.8797 16.3373 20.2471 16.3373C20.6144 16.3373 20.9125 16.6354 20.9125 17.0028V22.9921C20.9125 23.3594 20.6144 23.6576 20.2471 23.6576C19.8797 23.6576 19.5816 23.3594 19.5816 22.9921ZM15.5887 22.9921V17.0028C15.5887 16.6354 15.8868 16.3373 16.2542 16.3373C16.6215 16.3373 16.9197 16.6354 16.9197 17.0028V22.9921C16.9197 23.3594 16.6215 23.6576 16.2542 23.6576C15.8868 23.6576 15.5887 23.3594 15.5887 22.9921Z" fill="white"/>
</g>
<defs>
<clipPath id="clip0_1_907">
<rect width="16" height="18.6524" fill="white" transform="translate(10.2461 8.33203)"/>
</clipPath>
</defs>
</svg>
