<svg width="245" height="28" viewBox="0 0 245 28" fill="none" xmlns="http://www.w3.org/2000/svg">
<g clip-path="url(#clip0_1_6654)">
<path d="M45.3567 22.2772C43.7089 22.2772 42.2151 21.923 40.8753 21.2146C39.5509 20.4908 38.5037 19.4975 37.7337 18.2347C36.9791 16.9565 36.6018 15.5166 36.6018 13.915C36.6018 12.3134 36.9791 10.8812 37.7337 9.6184C38.5037 8.3402 39.5509 7.3469 40.8753 6.6385C42.2151 5.9147 43.7166 5.5528 45.3798 5.5528C46.7812 5.5528 48.044 5.7992 49.1682 6.292C50.3078 6.7848 51.2626 7.4932 52.0326 8.4172L49.6302 10.6348C48.5368 9.372 47.1816 8.7406 45.5646 8.7406C44.5636 8.7406 43.6704 8.9639 42.885 9.4105C42.0996 9.8417 41.4836 10.45 41.037 11.2354C40.6058 12.0208 40.3902 12.914 40.3902 13.915C40.3902 14.916 40.6058 15.8092 41.037 16.5946C41.4836 17.38 42.0996 17.996 42.885 18.4426C43.6704 18.8738 44.5636 19.0894 45.5646 19.0894C47.1816 19.0894 48.5368 18.4503 49.6302 17.1721L52.0326 19.3897C51.2626 20.3291 50.3078 21.0452 49.1682 21.538C48.0286 22.0308 46.7581 22.2772 45.3567 22.2772ZM61.5128 9.3874C63.0528 9.3874 64.2925 9.8494 65.2319 10.7734C66.1867 11.6974 66.6641 13.068 66.6641 14.8852V22H63.0605V15.4396C63.0605 14.454 62.8449 13.7225 62.4137 13.2451C61.9825 12.7523 61.3588 12.5059 60.5426 12.5059C59.634 12.5059 58.9102 12.7908 58.3712 13.3606C57.8322 13.915 57.5627 14.7466 57.5627 15.8554V22H53.9591V4.8598H57.5627V10.8658C58.0401 10.3884 58.6176 10.0265 59.2952 9.7801C59.9728 9.5183 60.712 9.3874 61.5128 9.3874ZM75.9796 19.2973C76.6264 19.2973 77.1962 19.2049 77.689 19.0201C78.1972 18.8199 78.6669 18.5119 79.0981 18.0961L81.0154 20.1751C79.845 21.5149 78.1356 22.1848 75.8872 22.1848C74.4858 22.1848 73.2461 21.9153 72.1681 21.3763C71.0901 20.8219 70.2585 20.0596 69.6733 19.0894C69.0881 18.1192 68.7955 17.0181 68.7955 15.7861C68.7955 14.5695 69.0804 13.4761 69.6502 12.5059C70.2354 11.5203 71.0285 10.758 72.0295 10.219C73.0459 9.6646 74.1855 9.3874 75.4483 9.3874C76.6341 9.3874 77.7121 9.6415 78.6823 10.1497C79.6525 10.6425 80.4225 11.3663 80.9923 12.3211C81.5775 13.2605 81.8701 14.377 81.8701 15.6706L72.6763 17.4493C72.9381 18.0653 73.3462 18.5273 73.9006 18.8353C74.4704 19.1433 75.1634 19.2973 75.9796 19.2973ZM75.4483 12.1132C74.5397 12.1132 73.8005 12.4058 73.2307 12.991C72.6609 13.5762 72.3606 14.3847 72.3298 15.4165L78.382 14.2384C78.2126 13.5916 77.8661 13.0757 77.3425 12.6907C76.8189 12.3057 76.1875 12.1132 75.4483 12.1132ZM89.9518 22.1848C88.6274 22.1848 87.4339 21.9153 86.3713 21.3763C85.3241 20.8219 84.5002 20.0596 83.8996 19.0894C83.3144 18.1192 83.0218 17.0181 83.0218 15.7861C83.0218 14.5541 83.3144 13.453 83.8996 12.4828C84.5002 11.5126 85.3241 10.758 86.3713 10.219C87.4339 9.6646 88.6274 9.3874 89.9518 9.3874C91.2608 9.3874 92.4004 9.6646 93.3706 10.219C94.3562 10.758 95.0723 11.5357 95.5189 12.5521L92.7238 14.0536C92.077 12.914 91.1453 12.3442 89.9287 12.3442C88.9893 12.3442 88.2116 12.6522 87.5956 13.2682C86.9796 13.8842 86.6716 14.7235 86.6716 15.7861C86.6716 16.8487 86.9796 17.688 87.5956 18.304C88.2116 18.92 88.9893 19.228 89.9287 19.228C91.1607 19.228 92.0924 18.6582 92.7238 17.5186L95.5189 19.0432C95.0723 20.0288 94.3562 20.7988 93.3706 21.3532C92.4004 21.9076 91.2608 22.1848 89.9518 22.1848ZM102.493 17.1259L100.761 18.8353V22H97.157V4.8598H100.761V14.5618L106.027 9.5722H110.324L105.15 14.839L110.786 22H106.42L102.493 17.1259Z" fill="#4547EB"/>
<path d="M117.974 22.1848C116.665 22.1848 115.487 21.9153 114.439 21.3763C113.408 20.8219 112.599 20.0596 112.014 19.0894C111.429 18.1192 111.136 17.0181 111.136 15.7861C111.136 14.5541 111.429 13.453 112.014 12.4828C112.599 11.5126 113.408 10.758 114.439 10.219C115.487 9.6646 116.665 9.3874 117.974 9.3874C119.283 9.3874 120.453 9.6646 121.485 10.219C122.517 10.758 123.325 11.5126 123.91 12.4828C124.496 13.453 124.788 14.5541 124.788 15.7861C124.788 17.0181 124.496 18.1192 123.91 19.0894C123.325 20.0596 122.517 20.8219 121.485 21.3763C120.453 21.9153 119.283 22.1848 117.974 22.1848ZM117.974 19.228C118.898 19.228 119.652 18.92 120.238 18.304C120.838 17.6726 121.138 16.8333 121.138 15.7861C121.138 14.7389 120.838 13.9073 120.238 13.2913C119.652 12.6599 118.898 12.3442 117.974 12.3442C117.05 12.3442 116.287 12.6599 115.687 13.2913C115.086 13.9073 114.786 14.7389 114.786 15.7861C114.786 16.8333 115.086 17.6726 115.687 18.304C116.287 18.92 117.05 19.228 117.974 19.228ZM139.371 9.5722V22H135.952V20.5216C135.474 21.0606 134.905 21.4764 134.242 21.769C133.58 22.0462 132.864 22.1848 132.094 22.1848C130.462 22.1848 129.168 21.7151 128.213 20.7757C127.259 19.8363 126.781 18.4426 126.781 16.5946V9.5722H130.385V16.0633C130.385 18.0653 131.224 19.0663 132.903 19.0663C133.765 19.0663 134.458 18.7891 134.982 18.2347C135.505 17.6649 135.767 16.8256 135.767 15.7168V9.5722H139.371ZM149.847 21.3994C149.493 21.6612 149.054 21.8614 148.53 22C148.022 22.1232 147.491 22.1848 146.936 22.1848C145.443 22.1848 144.295 21.8075 143.495 21.0529C142.694 20.2983 142.293 19.1895 142.293 17.7265V6.8233H145.897V9.8494H148.969V12.6214H145.897V17.6803C145.897 18.2039 146.028 18.612 146.29 18.9046C146.551 19.1818 146.929 19.3204 147.422 19.3204C147.976 19.3204 148.469 19.1664 148.9 18.8584L149.847 21.3994ZM176.442 5.5528C178.352 5.5528 179.838 6.1149 180.901 7.2391C181.963 8.3479 182.495 9.9572 182.495 12.067V22H178.752V12.1825C178.752 11.0429 178.452 10.1882 177.851 9.6184C177.266 9.0332 176.489 8.7406 175.518 8.7406C174.456 8.7406 173.609 9.0486 172.977 9.6646C172.346 10.2652 172.03 11.1815 172.03 12.4135V22H168.288V12.1825C168.288 11.0429 168.011 10.1882 167.456 9.6184C166.902 9.0332 166.147 8.7406 165.193 8.7406C164.145 8.7406 163.306 9.0486 162.675 9.6646C162.043 10.2652 161.728 11.1815 161.728 12.4135V22H157.985V5.83H161.612V7.8166C162.105 7.0928 162.759 6.5384 163.576 6.1534C164.392 5.753 165.331 5.5528 166.394 5.5528C167.503 5.5528 168.473 5.7607 169.304 6.1765C170.136 6.5769 170.775 7.1621 171.222 7.9321C171.776 7.1621 172.5 6.5769 173.393 6.1765C174.302 5.7607 175.318 5.5528 176.442 5.5528ZM198.196 9.5722V22H194.754V20.5678C193.861 21.6458 192.567 22.1848 190.873 22.1848C189.703 22.1848 188.64 21.923 187.685 21.3994C186.746 20.8758 186.007 20.1289 185.468 19.1587C184.929 18.1885 184.659 17.0643 184.659 15.7861C184.659 14.5079 184.929 13.3837 185.468 12.4135C186.007 11.4433 186.746 10.6964 187.685 10.1728C188.64 9.6492 189.703 9.3874 190.873 9.3874C192.459 9.3874 193.699 9.8879 194.592 10.8889V9.5722H198.196ZM191.497 19.228C192.405 19.228 193.16 18.92 193.761 18.304C194.361 17.6726 194.661 16.8333 194.661 15.7861C194.661 14.7389 194.361 13.9073 193.761 13.2913C193.16 12.6599 192.405 12.3442 191.497 12.3442C190.573 12.3442 189.81 12.6599 189.21 13.2913C188.609 13.9073 188.309 14.7389 188.309 15.7861C188.309 16.8333 188.609 17.6726 189.21 18.304C189.81 18.92 190.573 19.228 191.497 19.228ZM205.367 22.1848C204.335 22.1848 203.326 22.0616 202.341 21.8152C201.355 21.5534 200.57 21.23 199.984 20.845L201.186 18.2578C201.74 18.612 202.41 18.9046 203.195 19.1356C203.981 19.3512 204.751 19.459 205.505 19.459C207.03 19.459 207.792 19.0817 207.792 18.3271C207.792 17.9729 207.584 17.7188 207.168 17.5648C206.753 17.4108 206.114 17.2799 205.251 17.1721C204.235 17.0181 203.395 16.841 202.733 16.6408C202.071 16.4406 201.494 16.0864 201.001 15.5782C200.523 15.07 200.285 14.3462 200.285 13.4068C200.285 12.6214 200.508 11.9284 200.955 11.3278C201.417 10.7118 202.079 10.2344 202.941 9.8956C203.819 9.5568 204.851 9.3874 206.037 9.3874C206.914 9.3874 207.784 9.4875 208.647 9.6877C209.525 9.8725 210.248 10.1343 210.818 10.4731L209.617 13.0372C208.524 12.4212 207.33 12.1132 206.037 12.1132C205.267 12.1132 204.689 12.221 204.304 12.4366C203.919 12.6522 203.727 12.9294 203.727 13.2682C203.727 13.6532 203.934 13.9227 204.35 14.0767C204.766 14.2307 205.428 14.377 206.337 14.5156C207.353 14.685 208.185 14.8698 208.832 15.07C209.478 15.2548 210.041 15.6013 210.518 16.1095C210.995 16.6177 211.234 17.3261 211.234 18.2347C211.234 19.0047 211.003 19.69 210.541 20.2906C210.079 20.8912 209.401 21.3609 208.508 21.6997C207.63 22.0231 206.583 22.1848 205.367 22.1848ZM220.595 21.3994C220.241 21.6612 219.802 21.8614 219.279 22C218.77 22.1232 218.239 22.1848 217.685 22.1848C216.191 22.1848 215.044 21.8075 214.243 21.0529C213.442 20.2983 213.042 19.1895 213.042 17.7265V6.8233H216.645V9.8494H219.717V12.6214H216.645V17.6803C216.645 18.2039 216.776 18.612 217.038 18.9046C217.3 19.1818 217.677 19.3204 218.17 19.3204C218.724 19.3204 219.217 19.1664 219.648 18.8584L220.595 21.3994ZM228.161 19.2973C228.808 19.2973 229.377 19.2049 229.87 19.0201C230.378 18.8199 230.848 18.5119 231.279 18.0961L233.197 20.1751C232.026 21.5149 230.317 22.1848 228.068 22.1848C226.667 22.1848 225.427 21.9153 224.349 21.3763C223.271 20.8219 222.44 20.0596 221.854 19.0894C221.269 18.1192 220.977 17.0181 220.977 15.7861C220.977 14.5695 221.262 13.4761 221.831 12.5059C222.417 11.5203 223.21 10.758 224.211 10.219C225.227 9.6646 226.367 9.3874 227.629 9.3874C228.815 9.3874 229.893 9.6415 230.863 10.1497C231.834 10.6425 232.604 11.3663 233.173 12.3211C233.759 13.2605 234.051 14.377 234.051 15.6706L224.857 17.4493C225.119 18.0653 225.527 18.5273 226.082 18.8353C226.652 19.1433 227.345 19.2973 228.161 19.2973ZM227.629 12.1132C226.721 12.1132 225.982 12.4058 225.412 12.991C224.842 13.5762 224.542 14.3847 224.511 15.4165L230.563 14.2384C230.394 13.5916 230.047 13.0757 229.524 12.6907C229 12.3057 228.369 12.1132 227.629 12.1132ZM239.569 11.2123C240 10.6117 240.578 10.1574 241.301 9.8494C242.041 9.5414 242.888 9.3874 243.842 9.3874V12.7138C243.442 12.683 243.172 12.6676 243.034 12.6676C242.002 12.6676 241.194 12.9602 240.608 13.5454C240.023 14.1152 239.731 14.9776 239.731 16.1326V22H236.127V9.5722H239.569V11.2123Z" fill="#191B22"/>
<g clip-path="url(#clip1_1_6654)">
<circle opacity="0.6" cx="22.8499" cy="14" r="8.75" fill="#AFB0F6"/>
<g clip-path="url(#clip2_1_6654)">
<circle cx="8.7522" cy="14.0002" r="8.75" fill="#4547EB"/>
<path d="M4.55225 11.9003L8.91585 18.2003L17.1522 4.55029" stroke="white" stroke-width="2.1" stroke-linejoin="round"/>
<path d="M4.55737 11.905L3.69469 12.5036L3.49517 12.216C3.27478 11.8984 3.35362 11.4623 3.67125 11.2419L3.95881 11.0423L4.55737 11.905Z" fill="white"/>
<path d="M4.55737 11.905L5.4201 11.3065L5.2206 11.019C5.00024 10.7013 4.5641 10.6224 4.24645 10.8428L3.95888 11.0423L4.55737 11.905Z" fill="white"/>
</g>
</g>
</g>
<defs>
<clipPath id="clip0_1_6654">
<rect width="244.3" height="28" fill="white" transform="translate(0.000488281)"/>
</clipPath>
<clipPath id="clip1_1_6654">
<rect width="32" height="18" fill="white" transform="translate(0.000976562 5)"/>
</clipPath>
<clipPath id="clip2_1_6654">
<rect x="0.00146484" y="5.25" width="17.5" height="17.5" rx="8.75" fill="white"/>
</clipPath>
</defs>
</svg>
