<svg width="513" height="518" viewBox="0 0 513 518" fill="none" xmlns="http://www.w3.org/2000/svg">
<path d="M217.636 36.132C221.071 35.6686 224.593 35.2492 228.205 34.8747L228.216 34.9824C230.003 34.7972 231.811 34.623 233.642 34.4599C235.523 34.2928 237.377 34.1439 239.202 34.0131L239.195 33.905C242.959 33.6353 246.606 33.4421 250.143 33.3227L250.147 33.431C253.925 33.3036 257.575 33.2605 261.106 33.2988L261.107 33.1905C264.893 33.2315 268.541 33.366 272.059 33.5901L272.052 33.6982C275.826 33.9387 279.45 34.2824 282.934 34.7246L282.948 34.6172C286.712 35.0949 290.313 35.6877 293.762 36.3895L293.741 36.4957C297.464 37.2531 301.01 38.1376 304.396 39.1417L304.427 39.0378C308.041 40.1095 311.473 41.3175 314.74 42.6526L314.699 42.7529C318.184 44.1767 321.482 45.7452 324.617 47.4475L324.668 47.3523C327.944 49.1312 331.041 51.0561 333.986 53.1146L333.924 53.2033C336.948 55.3165 339.81 57.5707 342.541 59.9524L342.612 59.8708C345.373 62.2786 347.999 64.8165 350.518 67.4705L350.44 67.5451C352.942 70.1806 355.339 72.9309 357.661 75.7826L357.745 75.7142C360.033 78.524 362.247 81.4319 364.415 84.4247L364.327 84.4883C366.447 87.4143 368.522 90.4219 370.578 93.4988L370.668 93.4386C372.673 96.4385 374.661 99.5041 376.654 102.624L376.562 102.682C378.404 105.565 380.25 108.493 382.12 111.46L382.436 111.961L382.527 111.903C384.45 114.953 386.398 118.042 388.393 121.16L388.301 121.218C390.248 124.261 392.239 127.332 394.293 130.423L394.383 130.363C396.378 133.364 398.431 136.383 400.562 139.412L400.473 139.474C402.551 142.429 404.702 145.393 406.941 148.358L407.027 148.293C409.196 151.164 411.447 154.037 413.797 156.905L413.713 156.973C414.867 158.383 416.046 159.791 417.249 161.197C418.409 162.552 419.558 163.9 420.693 165.24L420.776 165.17C423.088 167.898 425.348 170.595 427.556 173.264L427.472 173.333C429.761 176.1 431.992 178.837 434.165 181.548L434.249 181.48C436.491 184.277 438.67 187.046 440.786 189.791L440.7 189.857C442.889 192.698 445.009 195.513 447.059 198.307L447.147 198.243C449.268 201.135 451.315 204.005 453.285 206.859L453.195 206.921C455.232 209.871 457.186 212.804 459.055 215.724L459.146 215.666C461.076 218.681 462.916 221.683 464.663 224.679L464.569 224.734C466.373 227.827 468.078 230.913 469.681 233.999L469.777 233.949C471.424 237.118 472.963 240.287 474.392 243.463L474.294 243.507C475.754 246.752 477.099 250.004 478.325 253.272L478.427 253.234C479.674 256.557 480.8 259.896 481.8 263.259L481.696 263.29C482.702 266.673 483.581 270.082 484.33 273.523L484.436 273.5C485.183 276.934 485.8 280.401 486.284 283.91L486.177 283.925C486.655 287.387 487.003 290.889 487.218 294.44L487.326 294.434C487.537 297.911 487.621 301.435 487.574 305.013L487.466 305.012C487.42 308.473 487.253 311.986 486.961 315.556L487.069 315.565C486.787 319.012 486.389 322.513 485.872 326.075L485.765 326.059C485.269 329.474 484.664 332.944 483.948 336.474L484.054 336.496C483.369 339.873 482.582 343.306 481.691 346.8L481.586 346.773C481.154 348.469 480.697 350.179 480.215 351.903C479.714 353.692 479.176 355.462 478.603 357.213L478.706 357.246C477.549 360.785 476.248 364.246 474.81 367.626L474.711 367.584C473.257 371.001 471.664 374.335 469.937 377.581L470.033 377.632C468.291 380.908 466.413 384.094 464.407 387.186L464.316 387.127C462.301 390.233 460.157 393.242 457.891 396.152L457.976 396.218C455.703 399.137 453.307 401.955 450.795 404.667L450.716 404.593C448.207 407.302 445.583 409.905 442.851 412.398L442.924 412.478C440.198 414.965 437.364 417.342 434.431 419.604L434.364 419.518C431.446 421.768 428.429 423.904 425.319 425.922L425.378 426.013C422.289 428.017 419.109 429.905 415.846 431.671L415.794 431.575C412.558 433.326 409.24 434.957 405.846 436.464L405.89 436.563C402.53 438.055 399.096 439.425 395.594 440.669L395.558 440.567C392.095 441.797 388.567 442.903 384.979 443.882L385.007 443.986C381.466 444.952 377.867 445.794 374.215 446.508L374.194 446.401C370.592 447.105 366.938 447.684 363.24 448.133L363.253 448.241C359.615 448.683 355.933 449 352.214 449.189L352.208 449.081C348.549 449.267 344.852 449.328 341.125 449.26L341.123 449.369C337.459 449.303 333.765 449.113 330.047 448.796L330.056 448.688C326.412 448.377 322.745 447.944 319.058 447.385L319.041 447.493C315.421 446.944 311.782 446.275 308.129 445.482L308.152 445.376C304.579 444.6 300.992 443.705 297.397 442.689L297.367 442.793C293.853 441.8 290.329 440.691 286.801 439.463L286.836 439.361C285.095 438.755 283.353 438.12 281.61 437.456C279.831 436.778 278.066 436.126 276.316 435.5L276.279 435.602C272.685 434.316 269.154 433.137 265.681 432.056L265.713 431.952C262.05 430.812 258.453 429.782 254.919 428.85L254.891 428.955C251.194 427.98 247.565 427.114 244.001 426.344L244.024 426.238C240.285 425.431 236.618 424.73 233.016 424.121L232.998 424.228C229.235 423.591 225.543 423.056 221.919 422.606L221.933 422.499C218.141 422.028 214.423 421.65 210.773 421.349L210.764 421.457C206.969 421.143 203.246 420.91 199.59 420.739L199.595 420.631C195.795 420.453 192.067 420.342 188.403 420.275L188.401 420.383C184.597 420.313 180.863 420.29 177.189 420.289L177.189 420.181C173.978 420.18 170.814 420.196 167.69 420.211C167.119 420.214 166.549 420.217 165.981 420.22L165.981 420.328C162.19 420.346 158.459 420.36 154.776 420.338L154.776 420.229C150.995 420.206 147.266 420.146 143.578 420.016L143.574 420.124C139.808 419.991 136.084 419.784 132.39 419.468L132.4 419.36C128.667 419.041 124.966 418.611 121.284 418.034L121.267 418.141C117.591 417.565 113.934 416.841 110.284 415.935L110.31 415.83C106.735 414.943 103.168 413.88 99.5948 412.608L99.5585 412.71C96.1169 411.484 92.6707 410.065 89.2096 408.42L89.2561 408.323C87.5935 407.533 85.9274 406.691 84.2568 405.794L84.2068 405.887L84.2566 405.794C82.6729 404.946 81.0966 404.075 79.5296 403.18L79.4759 403.274C76.3561 401.493 73.2729 399.619 70.24 397.656L70.2988 397.565C67.2773 395.61 64.3058 393.566 61.3978 391.438L61.3339 391.526C58.4222 389.395 55.5741 387.18 52.8032 384.884L52.8723 384.8C50.0916 382.496 47.3888 380.11 44.7776 377.647L44.7032 377.726C42.0701 375.243 39.53 372.68 37.097 370.043L37.1766 369.969C34.7214 367.308 32.3755 364.57 30.1533 361.76L30.0683 361.828C27.8197 358.984 25.6977 356.067 23.7171 353.081L23.8074 353.021C21.8066 350.004 19.9505 346.915 18.2545 343.76L18.1591 343.812C16.4457 340.624 14.8954 337.369 13.5242 334.05L13.6243 334.009C12.2475 330.676 11.0515 327.279 10.0523 323.823L9.94826 323.853C8.94951 320.398 8.14721 316.883 7.55746 313.314L7.66434 313.296C7.08197 309.771 6.70712 306.192 6.55533 302.563L6.44709 302.568C6.29846 299.015 6.36341 295.414 6.65651 291.771L6.7645 291.779C7.04773 288.258 7.54427 284.697 8.2673 281.098L8.16109 281.077C8.85547 277.621 9.75849 274.131 10.8818 270.61L10.985 270.643C12.0502 267.305 13.3137 263.938 14.7855 260.547L14.6861 260.504C16.0804 257.291 17.6614 254.056 19.4374 250.801L19.5325 250.853C20.387 249.287 21.2867 247.717 22.2326 246.142C23.161 244.596 24.074 243.052 24.9724 241.51L24.8788 241.456C26.6927 238.343 28.4472 235.24 30.1487 232.148L30.2436 232.2C31.9802 229.044 33.6615 225.899 35.2944 222.768L35.1983 222.718C36.8634 219.525 38.4781 216.346 40.0495 213.184L40.1465 213.232C41.7491 210.007 43.3066 206.799 44.8268 203.61L44.729 203.564C46.2784 200.314 47.789 197.084 49.2688 193.877L49.3672 193.922C50.8757 190.653 52.3522 187.407 53.8052 184.188L53.7065 184.143C55.1873 180.862 56.6439 177.608 58.0851 174.384L58.184 174.428C58.4518 173.83 58.719 173.232 58.9857 172.635C60.1824 169.957 61.3696 167.301 62.5526 164.667L62.4538 164.623C63.9282 161.341 65.396 158.094 66.8674 154.885L66.9659 154.93C68.4661 151.659 69.9698 148.428 71.488 145.241L71.3902 145.194C72.9393 141.942 74.5035 138.735 76.0941 135.576L76.1909 135.625C77.8092 132.411 79.4547 129.248 81.1395 126.14L81.0443 126.088C82.7566 122.929 84.5096 119.825 86.3158 116.782L86.4089 116.837C88.2386 113.754 90.1228 110.732 92.0746 107.777L91.9842 107.717C93.9569 104.73 95.9986 101.809 98.1231 98.96L98.21 99.0247C100.342 96.1653 102.557 93.3776 104.869 90.6659L104.787 90.5956C107.093 87.8908 109.496 85.2615 112.009 82.7118L112.086 82.7878C114.569 80.2676 117.16 77.8254 119.872 75.4651L119.801 75.3834C122.462 73.0673 125.239 70.8301 128.144 68.6756L128.208 68.7626C131.02 66.6775 133.952 64.6698 137.016 62.7431L136.958 62.6514C139.914 60.7925 142.993 59.0089 146.204 57.3038L146.254 57.3995C149.329 55.7667 152.525 54.2059 155.852 52.7198L155.808 52.6209C158.984 51.2022 162.278 49.8516 165.7 48.5714L165.738 48.6729C168.991 47.4556 172.359 46.302 175.847 45.2142L175.815 45.1107C179.134 44.0761 182.561 43.1009 186.104 42.187L186.132 42.2919C189.5 41.423 192.973 40.6094 196.556 39.8528L196.533 39.7468C199.949 39.0254 203.464 38.3557 207.082 37.739L207.1 37.8458C210.523 37.2625 214.039 36.7266 217.65 36.2394L217.636 36.132Z" fill="#CFD0FA" fill-opacity="0.6" stroke="#231F20" stroke-width="0.216667" stroke-dasharray="10.83 10.83"/>
<path fill-rule="evenodd" clip-rule="evenodd" d="M225.96 1.99298L225.949 1.88509C227.781 1.69831 229.634 1.52146 231.506 1.35463C233.352 1.19067 235.174 1.04188 236.973 0.908067L236.989 1.12436C235.191 1.2581 233.37 1.4068 231.525 1.57067M225.96 1.99298L225.971 2.10087C227.802 1.91418 229.654 1.73742 231.525 1.57067M215.19 3.12425C211.463 3.60477 207.823 4.1293 204.267 4.69695L204.301 4.91114C207.855 4.34384 211.493 3.81962 215.218 3.33936L215.19 3.12425ZM193.486 6.59877L193.528 6.8117C189.885 7.5179 186.337 8.27302 182.879 9.07592L182.83 8.86464C186.29 8.06112 189.841 7.30546 193.486 6.59877ZM172.276 11.5395L172.334 11.7486C168.725 12.7432 165.223 13.7946 161.821 14.9012L161.754 14.6949C165.159 13.5873 168.665 12.535 172.276 11.5395ZM151.424 18.3408L151.502 18.5435C148.023 19.8719 144.659 21.264 141.403 22.7179L141.315 22.5198C144.575 21.0643 147.943 19.6707 151.424 18.3408ZM131.467 27.2697L131.567 27.4621C128.277 29.1738 125.105 30.9554 122.045 32.8047L121.933 32.619C124.997 30.7673 128.173 28.9834 131.467 27.2697ZM112.77 38.5816L112.894 38.7593C109.873 40.8741 106.967 43.0627 104.169 45.3222L104.033 45.1533C106.835 42.8908 109.744 40.6992 112.77 38.5816ZM95.7677 52.3106L95.9149 52.4697C93.2288 54.9611 90.6475 57.5257 88.1605 60.1602L88.003 60.0113C90.4932 57.3734 93.0779 54.8054 95.7677 52.3106ZM80.7486 68.1993L80.915 68.3381C78.5841 71.1382 76.3385 74.0062 74.1672 76.9388L73.9932 76.8097C76.1667 73.8739 78.4149 71.0026 80.7486 68.1993ZM67.7099 85.7704L67.8902 85.8906C65.8817 88.9106 63.9352 91.9903 62.0401 95.1267L61.8547 95.0144C63.7513 91.8756 65.6995 88.7932 67.7099 85.7704ZM56.3717 104.485L56.561 104.59C54.8027 107.754 53.0834 110.968 51.3935 114.23L51.2012 114.13C52.8919 110.867 54.6122 107.65 56.3717 104.485ZM386.515 64.1817L386.337 64.3055C384.269 61.3291 382.173 58.4174 380.032 55.5791L380.205 55.4484C382.348 58.2893 384.446 61.2033 386.515 64.1817ZM373.511 47.0286L373.345 47.1683C371.027 44.4119 368.64 41.7429 366.164 39.1706L366.32 39.0202C368.8 41.5962 371.19 44.2689 373.511 47.0286ZM358.564 31.5646L358.42 31.7271C355.755 29.367 352.981 27.1126 350.08 24.9733L350.208 24.7986C353.115 26.9419 355.894 29.2005 358.564 31.5646ZM341.261 18.8323L341.149 19.0183C338.134 17.2091 334.986 15.512 331.686 13.9353L331.78 13.7396C335.085 15.3192 338.24 17.0195 341.261 18.8323ZM321.899 9.55833L321.823 9.76164C318.561 8.54863 315.161 7.44066 311.611 6.44385L311.67 6.23502C315.225 7.23339 318.631 8.34319 321.899 9.55833ZM301.194 3.71175L301.15 3.9243C297.742 3.23148 294.207 2.63054 290.534 2.12574L290.564 1.91086C294.24 2.41627 297.781 3.01798 301.194 3.71175ZM279.867 0.747688L279.85 0.963865C276.386 0.681365 272.81 0.476453 269.115 0.352041L269.122 0.13527C272.82 0.259793 276.4 0.464896 279.867 0.747688ZM258.393 0L258.395 0.216887C254.924 0.24279 251.357 0.333878 247.688 0.492167L247.679 0.275475C251.35 0.117079 254.92 0.0259228 258.393 0Z" fill="#231F20"/>
<path d="M235.117 56.5657C348.007 46.5378 348.189 110.26 399.081 169.698C449.972 229.136 474.421 271.51 455.302 339.973C436.093 408.436 357.839 446.832 277.906 416.384C197.972 385.935 152.179 415.199 101.742 388.123C51.3057 361.139 9.38158 307.05 46.344 245.516C101.742 153.29 95.9156 68.9637 235.117 56.5657Z" fill="#4547EB"/>
<path d="M235.117 56.5657C348.007 46.5378 348.189 110.26 399.081 169.698C449.972 229.136 474.421 271.51 455.302 339.973C436.093 408.436 357.839 446.832 277.906 416.384C197.972 385.935 152.179 415.199 101.742 388.123C51.3057 361.139 9.38158 307.05 46.344 245.516C101.742 153.29 95.9156 68.9637 235.117 56.5657Z" fill="url(#paint0_linear_2_1821)"/>
<path d="M220.252 77.426C223.679 76.9192 227.217 76.4689 230.871 76.0764L230.882 76.1841C232.66 75.9932 234.465 75.8161 236.298 75.6528C238.139 75.4892 239.947 75.3475 241.722 75.2272L241.715 75.1191C245.421 74.8681 248.986 74.7105 252.416 74.6426L252.418 74.7509C256.144 74.6771 259.711 74.7091 263.13 74.8419L263.134 74.7337C266.887 74.8794 270.462 75.1465 273.873 75.5284L273.86 75.6361C277.572 76.0516 281.089 76.6033 284.428 77.2827L284.45 77.1765C288.119 77.9228 291.575 78.8232 294.84 79.8664L294.807 79.9696C298.353 81.1023 301.674 82.4037 304.8 83.8594L304.846 83.7612C308.186 85.3168 311.305 87.0487 314.238 88.9395L314.18 89.0306C317.231 90.9975 320.081 93.1368 322.77 95.429L322.841 95.3466C325.572 97.6743 328.138 100.159 330.581 102.782L330.502 102.855C332.922 105.453 335.222 108.185 337.443 111.033L337.528 110.967C339.701 113.753 341.799 116.65 343.859 119.638L343.77 119.699C345.771 122.601 347.737 125.588 349.705 128.646L349.796 128.587C351.621 131.424 353.447 134.32 355.301 137.262C355.384 137.394 355.468 137.526 355.551 137.658L355.459 137.716C357.338 140.695 359.247 143.722 361.217 146.781L361.308 146.722C363.214 149.682 365.177 152.671 367.222 155.679L367.133 155.74C369.112 158.65 371.17 161.578 373.33 164.51L373.417 164.446C375.504 167.279 377.685 170.117 379.984 172.95L379.9 173.018C381.02 174.398 382.168 175.777 383.347 177.154C384.508 178.511 385.655 179.858 386.786 181.196L386.868 181.126C389.195 183.878 391.456 186.592 393.648 189.272L393.564 189.34C395.845 192.128 398.051 194.879 400.181 197.599L400.267 197.533C402.487 200.369 404.625 203.173 406.678 205.951L406.59 206.016C408.733 208.916 410.781 211.787 412.733 214.639L412.822 214.578C414.858 217.553 416.789 220.507 418.611 223.447L418.519 223.504C420.414 226.562 422.191 229.607 423.846 232.647L423.941 232.596C425.658 235.751 427.244 238.902 428.694 242.061L428.596 242.107C430.087 245.355 431.434 248.611 432.633 251.888L432.735 251.851C433.956 255.189 435.023 258.548 435.931 261.942L435.826 261.97C436.737 265.375 437.488 268.816 438.073 272.304L438.18 272.286C438.759 275.74 439.176 279.241 439.425 282.802L439.317 282.81C439.56 286.272 439.644 289.791 439.566 293.379L439.674 293.382C439.599 296.835 439.372 300.352 438.991 303.943L438.883 303.932C438.52 307.352 438.016 310.839 437.367 314.403L437.474 314.422C436.859 317.803 436.114 321.253 435.237 324.779L435.132 324.753C434.711 326.443 434.26 328.151 433.778 329.878C433.287 331.628 432.753 333.357 432.177 335.062L432.279 335.097C431.112 338.555 429.772 341.92 428.271 345.185L428.172 345.14C426.653 348.444 424.968 351.645 423.127 354.736L423.22 354.792C421.362 357.912 419.346 360.92 417.182 363.81L417.096 363.745C414.927 366.642 412.609 369.42 410.153 372.072L410.232 372.145C407.775 374.798 405.18 377.325 402.457 379.717L402.386 379.636C399.677 382.017 396.841 384.266 393.89 386.375L393.953 386.463C391.02 388.559 387.972 390.518 384.821 392.331L384.767 392.238C381.649 394.032 378.43 395.684 375.119 397.188L375.164 397.287C371.89 398.774 368.527 400.116 365.083 401.307L365.048 401.204C361.656 402.377 358.187 403.402 354.649 404.275L354.675 404.38C351.19 405.239 347.638 405.949 344.03 406.505L344.013 406.398C340.471 406.943 336.872 407.339 333.227 407.581L333.234 407.689C329.661 407.926 326.042 408.013 322.386 407.948L322.388 407.839C318.814 407.775 315.203 407.563 311.565 407.199L311.554 407.307C307.993 406.951 304.405 406.449 300.796 405.796L300.815 405.69C297.304 405.055 293.774 404.278 290.23 403.354L290.203 403.459C286.747 402.558 283.279 401.518 279.805 400.334L279.84 400.231C278.137 399.651 276.431 399.036 274.726 398.386C272.892 397.688 271.079 397.024 269.285 396.394L269.25 396.496C265.501 395.18 261.838 394.008 258.254 392.966L258.284 392.862C254.474 391.754 250.753 390.792 247.116 389.957L247.092 390.063C243.23 389.176 239.461 388.433 235.78 387.811L235.798 387.704C231.893 387.044 228.085 386.52 224.365 386.104L224.353 386.211C220.426 385.772 216.597 385.453 212.856 385.224L212.863 385.116C208.926 384.874 205.087 384.731 201.333 384.649L201.331 384.757C197.397 384.671 193.557 384.652 189.795 384.657L189.795 384.549C187.66 384.552 185.548 384.562 183.46 384.573C181.707 384.581 179.972 384.59 178.251 384.594L178.251 384.702C174.338 384.711 170.498 384.696 166.715 384.601L166.718 384.493C162.826 384.396 158.995 384.215 155.203 383.891L155.194 383.999C151.348 383.67 147.542 383.195 143.757 382.51L143.776 382.403C140.031 381.725 136.306 380.843 132.581 379.695L132.55 379.799C128.964 378.694 125.379 377.344 121.775 375.695L121.82 375.597C120.102 374.811 118.379 373.956 116.65 373.028L116.598 373.123L116.649 373.028C115.02 372.156 113.4 371.252 111.793 370.318L111.738 370.411C108.54 368.552 105.394 366.571 102.321 364.475L102.382 364.385C99.3173 362.295 96.3267 360.09 93.433 357.777L93.3653 357.861C90.4574 355.537 87.6471 353.103 84.9581 350.567L85.0324 350.488C82.319 347.929 79.7293 345.265 77.2871 342.504L77.206 342.576C74.7298 339.776 72.405 336.876 70.2568 333.882L70.3448 333.819C68.168 330.786 66.1728 327.656 64.3852 324.438L64.2905 324.491C62.4782 321.229 60.8789 317.875 59.5198 314.438L59.6205 314.398C58.2563 310.948 57.1344 307.414 56.2824 303.803L56.177 303.828C55.33 300.239 54.7493 296.575 54.4616 292.842L54.5696 292.834C54.2892 289.195 54.2877 285.492 54.5903 281.73L54.4823 281.722C54.773 278.108 55.3439 274.441 56.2171 270.727L56.3226 270.751C57.1447 267.255 58.2352 263.716 59.6126 260.141L59.5116 260.102C60.7994 256.759 62.3376 253.385 64.1414 249.982L64.2371 250.033C65.0904 248.424 66.0032 246.808 66.9771 245.186C67.9067 243.638 68.8171 242.093 69.7095 240.551L69.6157 240.496C71.4252 237.369 73.1607 234.253 74.8322 231.152L74.9276 231.203C76.6419 228.023 78.289 224.858 79.8797 221.713L79.783 221.664C81.416 218.435 82.9896 215.226 84.5156 212.04L84.6133 212.087C86.1748 208.828 87.6864 205.593 89.1607 202.387L89.0623 202.342C90.57 199.064 92.0387 195.815 93.4819 192.601L93.5807 192.646C94.5355 190.52 95.4791 188.408 96.4154 186.314C96.9328 185.156 97.448 184.003 97.9615 182.856L97.8627 182.812C99.3387 179.514 100.802 176.259 102.268 173.052L102.366 173.097C103.868 169.811 105.372 166.576 106.896 163.396L106.799 163.349C108.36 160.09 109.942 156.89 111.563 153.752L111.659 153.802C113.314 150.599 115.009 147.462 116.764 144.397L116.67 144.344C118.459 141.218 120.311 138.167 122.244 135.197L122.335 135.256C124.292 132.252 126.332 129.33 128.478 126.499L128.392 126.433C130.549 123.587 132.812 120.831 135.203 118.173L135.283 118.245C137.653 115.61 140.148 113.071 142.789 110.634L142.716 110.554C145.307 108.163 148.039 105.87 150.932 103.681L150.997 103.767C153.781 101.66 156.714 99.6494 159.814 97.7406L159.757 97.6484C162.721 95.823 165.837 94.0907 169.12 92.4562L169.168 92.5532C172.277 91.0057 175.536 89.5459 178.958 88.1779L178.918 88.0773C182.121 86.7971 185.466 85.5972 188.965 84.481L188.998 84.5842C192.286 83.5354 195.709 82.5604 199.278 81.6621L199.251 81.5571C202.604 80.713 206.084 79.9366 209.699 79.2301L209.72 79.3365C213.115 78.673 216.629 78.0713 220.268 77.5332L220.252 77.426Z" stroke="white" stroke-opacity="0.4" stroke-width="0.216667" stroke-dasharray="10.83 10.83"/>
<path d="M149.189 340.09L149.189 340.09C147.479 339.175 145.784 338.214 144.109 337.209L144.053 337.302C140.721 335.301 137.47 333.124 134.348 330.783L134.413 330.697C131.287 328.353 128.29 325.846 125.471 323.188L125.397 323.267C122.537 320.571 119.86 317.72 117.415 314.728L117.499 314.66C115.01 311.614 112.762 308.423 110.809 305.101L110.716 305.156C108.725 301.77 107.039 298.247 105.714 294.604L105.816 294.567C104.488 290.917 103.523 287.146 102.978 283.269L102.871 283.284C102.337 279.493 102.204 275.6 102.525 271.621L102.632 271.63C102.934 267.886 103.637 264.065 104.786 260.179L104.682 260.149C105.736 256.585 107.164 252.968 109.001 249.306L109.098 249.354C109.951 247.654 110.892 245.944 111.924 244.226C112.855 242.677 113.759 241.132 114.64 239.591L114.546 239.537C116.35 236.382 118.056 233.244 119.681 230.128L119.777 230.178C121.456 226.961 123.049 223.768 124.577 220.605L124.48 220.558C126.059 217.289 127.569 214.053 129.032 210.856L129.13 210.902C130.642 207.599 132.103 204.339 133.539 201.128L133.44 201.084C133.599 200.727 133.759 200.37 133.918 200.014C135.235 197.068 136.534 194.164 137.832 191.309L137.931 191.354C139.433 188.051 140.935 184.814 142.468 181.651L142.37 181.604C143.951 178.341 145.564 175.157 147.242 172.063L147.338 172.114C149.06 168.937 150.852 165.855 152.746 162.878L152.655 162.82C154.586 159.786 156.625 156.861 158.81 154.058L158.895 154.124C161.083 151.316 163.417 148.63 165.935 146.077L165.858 146.001C168.33 143.494 170.98 141.115 173.843 138.875L173.909 138.96C176.645 136.82 179.575 134.807 182.732 132.931L182.677 132.838C185.639 131.077 188.8 129.437 192.185 127.926L192.229 128.025C195.363 126.626 198.69 125.337 202.231 124.165L202.196 124.062C205.437 122.989 208.857 122.013 212.47 121.141L212.496 121.246C215.833 120.44 219.336 119.721 223.018 119.094L223 118.988C226.369 118.414 229.887 117.916 233.564 117.498L233.576 117.606C235.336 117.406 237.132 117.224 238.965 117.061C240.741 116.903 242.476 116.773 244.171 116.668L244.164 116.56C247.796 116.337 251.244 116.235 254.521 116.248L254.521 116.356C258.163 116.371 261.594 116.527 264.834 116.816L264.844 116.708C268.493 117.034 271.901 117.527 275.093 118.176L275.071 118.282C278.654 119.011 281.965 119.935 285.043 121.036L285.08 120.934C288.482 122.152 291.601 123.586 294.487 125.213L294.434 125.307C297.517 127.045 300.335 129.002 302.951 131.15L303.02 131.066C305.699 133.265 308.166 135.663 310.488 138.226L310.408 138.299C312.698 140.827 314.847 143.517 316.921 146.339L317.009 146.274C319.016 149.005 320.953 151.857 322.877 154.804L322.786 154.863C324.577 157.604 326.357 160.427 328.175 163.31L328.36 163.603L328.451 163.545C330.254 166.404 332.095 169.321 334.021 172.272L333.93 172.331C335.778 175.164 337.705 178.03 339.749 180.909L339.838 180.847C341.794 183.602 343.859 186.368 346.069 189.13L345.984 189.197C347.052 190.531 348.152 191.864 349.291 193.194C350.456 194.553 351.6 195.9 352.722 197.234L352.805 197.165C355.143 199.943 357.39 202.668 359.542 205.351L359.457 205.419C361.728 208.251 363.892 211.036 365.946 213.785L366.033 213.72C368.207 216.631 370.257 219.502 372.177 222.349L372.087 222.409C374.115 225.415 375.997 228.393 377.728 231.359L377.822 231.305C379.646 234.431 381.301 237.545 382.781 240.667L382.683 240.713C384.221 243.957 385.568 247.209 386.716 250.491L386.819 250.455C387.992 253.81 388.959 257.196 389.708 260.638L389.602 260.661C390.347 264.082 390.877 267.558 391.183 271.113L391.291 271.103C391.588 274.55 391.674 278.07 391.542 281.684L391.434 281.68C391.309 285.1 390.989 288.605 390.465 292.213L390.572 292.229C390.082 295.601 389.416 299.062 388.566 302.628L388.46 302.603C388.058 304.29 387.615 306.001 387.13 307.737C386.656 309.427 386.128 311.09 385.548 312.725L385.65 312.761C384.472 316.085 383.08 319.291 381.491 322.368L381.395 322.318C379.787 325.433 377.976 328.416 375.979 331.256L376.068 331.318C374.056 334.18 371.855 336.896 369.483 339.456L369.404 339.382C367.037 341.936 364.499 344.334 361.807 346.564L361.876 346.647C359.198 348.866 356.368 350.918 353.403 352.793L353.345 352.702C350.416 354.554 347.355 356.232 344.177 357.727L344.224 357.825C341.089 359.3 337.841 360.596 334.495 361.703L334.461 361.6C331.184 362.685 327.813 363.587 324.362 364.298L324.384 364.404C321.003 365.1 317.547 365.613 314.028 365.933L314.018 365.825C310.588 366.137 307.1 366.265 303.564 366.201L303.562 366.309C300.12 366.247 296.633 366.003 293.114 365.569L293.128 365.462C289.719 365.042 286.28 364.444 282.821 363.66L282.797 363.766C279.45 363.008 276.083 362.076 272.708 360.965L272.742 360.862C271.099 360.321 269.455 359.738 267.81 359.111C266.204 358.5 264.62 357.924 263.054 357.382L263.019 357.485C259.718 356.342 256.505 355.348 253.374 354.486L253.403 354.381C250.032 353.453 246.756 352.675 243.566 352.024L243.545 352.13C240.127 351.433 236.808 350.881 233.578 350.445L233.592 350.337C230.147 349.872 226.803 349.538 223.548 349.3L223.54 349.408C220.078 349.155 216.717 349.01 213.442 348.929L213.445 348.821C209.986 348.736 206.624 348.723 203.341 348.731L203.342 348.839C201.986 348.842 200.644 348.849 199.315 348.855C197.262 348.866 195.239 348.876 193.24 348.872L193.241 348.764C189.809 348.758 186.452 348.713 183.146 348.561L183.141 348.67C179.742 348.514 176.397 348.245 173.081 347.791L173.096 347.684C169.781 347.23 166.496 346.59 163.217 345.693L163.188 345.797C160.023 344.931 156.862 343.825 153.684 342.413L153.728 342.314C152.22 341.644 150.708 340.905 149.189 340.09Z" stroke="white" stroke-opacity="0.4" stroke-width="0.216667" stroke-dasharray="10.83 10.83"/>
<path d="M332.872 262.145C332.964 266.107 332.601 270.247 331.748 274.652L330.187 280.753C329.693 282.516 329.1 284.228 328.416 285.886L328.516 285.927C327.113 289.326 325.326 292.497 323.206 295.407L323.118 295.343C320.984 298.273 318.511 300.936 315.755 303.297L315.825 303.379C313.089 305.723 310.073 307.768 306.832 309.48L306.781 309.385C303.622 311.053 300.247 312.404 296.706 313.406L296.735 313.51C293.308 314.479 289.725 315.12 286.03 315.404L286.022 315.296C282.494 315.568 278.865 315.513 275.172 315.106L275.16 315.214C271.651 314.827 268.085 314.124 264.495 313.08L264.525 312.976C262.811 312.478 261.09 311.902 259.368 311.246C257.425 310.506 255.533 309.854 253.688 309.28L253.655 309.383C249.546 308.104 245.669 307.211 241.986 306.589L242.004 306.482C237.788 305.769 233.826 305.411 230.063 305.235L230.058 305.343C226.061 305.157 222.287 305.176 218.666 305.194C218.463 305.195 218.26 305.196 218.058 305.197L218.057 305.088C213.895 305.108 209.938 305.112 206.074 304.782L206.065 304.89C202.098 304.551 198.228 303.861 194.342 302.477L194.378 302.375C192.564 301.729 190.745 300.932 188.911 299.947L188.911 299.947C187.222 299.044 185.558 298.064 183.933 297.013L183.874 297.104C180.63 295.005 177.548 292.622 174.757 289.991L174.832 289.912C171.987 287.23 169.448 284.291 167.354 281.134L167.264 281.194C165.102 277.935 163.412 274.443 162.347 270.761L162.451 270.731C161.401 267.097 160.961 263.279 161.28 259.317L161.172 259.308C161.462 255.697 162.381 251.966 164.038 248.146L164.138 248.19C164.873 246.495 165.755 244.783 166.793 243.056C167.794 241.388 168.745 239.728 169.654 238.076L169.56 238.024C171.457 234.577 173.169 231.169 174.766 227.82L174.864 227.867C176.556 224.317 178.119 220.836 179.634 217.448L179.535 217.404C179.63 217.191 179.725 216.979 179.82 216.767C181.323 213.403 182.785 210.134 184.286 206.983L184.384 207.03C186.071 203.488 187.807 200.099 189.709 196.896L189.616 196.841C191.592 193.511 193.748 190.381 196.211 187.493L196.294 187.564C198.726 184.713 201.458 182.097 204.616 179.757L204.551 179.67C207.453 177.519 210.713 175.599 214.429 173.94L214.473 174.039C217.705 172.595 221.283 171.35 225.272 170.321L225.245 170.216C228.68 169.33 232.419 168.606 236.502 168.055L236.516 168.163C238.348 167.916 240.248 167.704 242.222 167.528C244.097 167.361 245.895 167.246 247.619 167.179L247.615 167.07C251.564 166.917 255.13 167.019 258.369 167.349L258.358 167.457C262.307 167.859 265.768 168.601 268.843 169.634L268.877 169.531C272.556 170.766 275.686 172.417 278.441 174.399L278.378 174.487C281.318 176.603 283.831 179.098 286.131 181.874L286.214 181.804C288.441 184.492 290.467 187.44 292.484 190.555L292.393 190.614C293.315 192.038 294.235 193.497 295.172 194.983L295.23 195.075C296.187 196.593 297.161 198.138 298.174 199.702L298.265 199.643C300.145 202.547 302.154 205.513 304.417 208.48L304.331 208.546C305.399 209.947 306.524 211.348 307.719 212.743C309.121 214.381 310.473 215.985 311.772 217.563L311.856 217.494C314.675 220.919 317.248 224.217 319.551 227.447L319.462 227.51C322.036 231.12 324.272 234.642 326.138 238.159L326.234 238.109C328.275 241.954 329.876 245.794 330.995 249.733L330.891 249.762C332.025 253.752 332.664 257.844 332.764 262.147L332.872 262.145Z" stroke="white" stroke-opacity="0.4" stroke-width="0.216667" stroke-dasharray="10.83 10.83"/>
<path d="M230.994 208.161C233.519 207.028 236.474 206.142 239.984 205.542L240.002 205.648C241.453 205.4 242.999 205.201 244.65 205.054C246.571 204.883 248.324 204.821 249.931 204.858L249.933 204.75C254.263 204.851 257.54 205.67 260.172 207.011L260.123 207.108C263.401 208.779 265.674 211.268 267.744 214.203L267.832 214.14C268.795 215.505 269.712 216.964 270.664 218.478C271.587 219.946 272.543 221.467 273.605 223.005L273.516 223.066C274.481 224.464 275.535 225.878 276.732 227.279C277.778 228.504 278.767 229.693 279.695 230.853L279.779 230.786C281.882 233.417 283.673 235.909 285.107 238.375L285.014 238.43C286.657 241.256 287.829 244.046 288.463 246.972L288.569 246.949C289.194 249.837 289.299 252.859 288.819 256.178L288.711 256.162C288.502 257.609 288.181 259.113 287.742 260.688C287.255 262.429 286.573 264.071 285.721 265.597L285.816 265.65C284.067 268.784 281.606 271.431 278.641 273.448L278.58 273.359C275.72 275.306 272.388 276.665 268.776 277.306L268.795 277.413C265.442 278.008 261.849 277.986 258.167 277.246L258.189 277.139C256.498 276.799 254.789 276.307 253.075 275.652C251.618 275.096 250.219 274.64 248.871 274.268L248.842 274.372C245.687 273.5 242.815 273.084 240.149 272.888L240.157 272.78C237.638 272.595 235.302 272.607 233.087 272.618C232.489 272.621 231.9 272.624 231.319 272.623L231.319 272.731C228.263 272.726 225.406 272.613 222.561 271.832L222.59 271.728C221.237 271.356 219.887 270.833 218.52 270.097L218.52 270.097C217.28 269.431 216.066 268.682 214.906 267.856L214.843 267.945C212.499 266.277 210.374 264.298 208.691 262.072L208.777 262.006C207.036 259.703 205.772 257.135 205.233 254.375L205.127 254.395C204.611 251.751 204.755 248.928 205.776 245.986L205.878 246.022C206.315 244.764 206.913 243.483 207.691 242.185C208.517 240.805 209.274 239.434 209.98 238.078L209.884 238.028C211.398 235.116 212.675 232.27 213.889 229.547L213.988 229.591C214.036 229.483 214.084 229.376 214.132 229.269C215.416 226.389 216.635 223.654 218.002 221.123L217.906 221.072C219.431 218.248 221.14 215.679 223.323 213.454L223.4 213.53C225.447 211.444 227.912 209.663 231.038 208.26L230.994 208.161Z" stroke="white" stroke-opacity="0.4" stroke-width="0.216667" stroke-dasharray="10.83 10.83"/>
<g filter="url(#filter0_dddddd_2_1821)">
<circle cx="420.636" cy="170.428" r="37.2666" transform="rotate(17.3565 420.636 170.428)" fill="white"/>
<circle cx="420.636" cy="170.428" r="36.8666" transform="rotate(17.3565 420.636 170.428)" stroke="#231F20" stroke-width="0.8"/>
</g>
<g clip-path="url(#clip0_2_1821)">
<path d="M418.012 148.87C417.426 148.867 416.934 149.312 416.878 149.895L413.325 185.408C413.263 186.031 413.717 186.586 414.34 186.649L424.486 187.664C425.109 187.726 425.664 187.272 425.727 186.649L429.28 151.136C429.341 150.514 428.887 149.958 428.265 149.896L418.118 148.881C418.083 148.876 418.047 148.872 418.012 148.87ZM418.055 150.377L428.009 151.334L424.521 186.198L414.57 185.203L418.055 150.377ZM431.935 163.358C431.348 163.354 430.856 163.799 430.801 164.383L428.545 186.931C428.483 187.553 428.937 188.109 429.56 188.171L439.706 189.186C440.329 189.248 440.884 188.794 440.946 188.172L443.202 165.624C443.264 165.001 442.81 164.446 442.188 164.384L432.041 163.368C432.006 163.363 431.971 163.359 431.935 163.358ZM431.895 164.826L442.134 165.851L439.944 187.741L429.705 186.717L431.895 164.826ZM400.706 168.204C400.119 168.201 399.627 168.645 399.571 169.229L398.105 183.885C398.042 184.508 398.497 185.063 399.119 185.125L409.266 186.141C409.889 186.203 410.444 185.748 410.506 185.126L411.972 170.47C412.035 169.847 411.581 169.292 410.958 169.23L400.811 168.215C400.776 168.21 400.741 168.206 400.706 168.204ZM400.783 169.754L410.491 170.725L409.098 184.655L399.389 183.684L400.783 169.754Z" fill="black"/>
<path d="M396.212 187.889L441.983 192.468" stroke="black" stroke-width="1.5" stroke-linecap="round"/>
</g>
<path fill-rule="evenodd" clip-rule="evenodd" d="M124.235 445.53L124.238 445.314C127.743 445.364 131.284 445.377 134.868 445.373L134.869 445.59C131.284 445.594 127.742 445.581 124.235 445.53ZM145.494 445.549C148.99 445.532 152.53 445.517 156.121 445.522L156.121 445.305C152.53 445.3 148.989 445.315 145.493 445.332L145.494 445.549ZM166.754 445.61L166.757 445.393C170.247 445.45 173.787 445.539 177.381 445.676L177.373 445.893C173.78 445.756 170.242 445.666 166.754 445.61ZM187.988 446.439L188.002 446.223C191.484 446.451 195.019 446.734 198.611 447.084L198.59 447.3C195.001 446.95 191.468 446.668 187.988 446.439ZM209.134 448.506L209.162 448.291C212.616 448.747 216.122 449.272 219.684 449.874L219.648 450.088C216.089 449.486 212.585 448.962 209.134 448.506ZM230.115 452.057L230.159 451.845C233.56 452.55 237.012 453.331 240.517 454.194L240.465 454.404C236.963 453.542 233.514 452.762 230.115 452.057ZM250.724 457.131L250.784 456.923C254.125 457.876 257.514 458.906 260.953 460.02L260.886 460.227C257.45 459.113 254.063 458.084 250.724 457.131ZM270.937 463.675L271.011 463.471C272.677 464.074 274.354 464.697 276.043 465.341C277.751 465.992 279.46 466.618 281.167 467.221L281.095 467.426C279.386 466.822 277.676 466.195 275.966 465.543C274.278 464.9 272.602 464.278 270.937 463.675ZM291.437 470.79L291.499 470.582C295.003 471.625 298.5 472.568 301.987 473.413L301.936 473.624C298.445 472.778 294.945 471.834 291.437 470.79ZM312.567 475.905C316.16 476.577 319.74 477.146 323.302 477.613L323.331 477.398C319.772 476.931 316.196 476.363 312.607 475.692L312.567 475.905ZM334.119 478.73L334.135 478.514C337.778 478.788 341.399 478.956 344.995 479.021L344.991 479.238C341.391 479.173 337.766 479.004 334.119 478.73ZM355.871 479.12L355.862 478.904C359.506 478.758 363.12 478.506 366.699 478.15L366.721 478.366C363.137 478.722 359.519 478.975 355.871 479.12ZM377.503 476.966L377.468 476.752C381.064 476.174 384.62 475.489 388.131 474.701L388.178 474.913C384.663 475.702 381.103 476.387 377.503 476.966ZM398.718 472.199L398.658 471.991C402.153 470.973 405.598 469.85 408.988 468.624L409.061 468.828C405.668 470.055 402.218 471.18 398.718 472.199ZM419.164 464.802L419.077 464.603C422.409 463.148 425.679 461.59 428.883 459.932L428.982 460.125C425.775 461.785 422.5 463.345 419.164 464.802ZM438.475 454.803L438.363 454.618C441.47 452.735 444.504 450.754 447.459 448.677L447.583 448.854C444.624 450.934 441.586 452.918 438.475 454.803ZM456.261 442.296L456.124 442.127C458.942 439.84 461.674 437.458 464.316 434.986L464.464 435.145C461.818 437.62 459.082 440.005 456.261 442.296ZM472.139 427.432L471.98 427.284C474.442 424.627 476.809 421.882 479.074 419.052L479.243 419.188C476.974 422.021 474.605 424.771 472.139 427.432ZM485.731 410.451C487.782 407.468 489.727 404.404 491.563 401.264L491.376 401.155C489.543 404.29 487.6 407.349 485.552 410.328L485.731 410.451ZM496.708 391.671L496.513 391.575C498.101 388.335 499.576 385.023 500.935 381.644L501.136 381.725C499.775 385.109 498.297 388.426 496.708 391.671ZM504.824 371.49L504.617 371.424C505.169 369.7 505.691 367.961 506.183 366.206C506.69 364.389 507.174 362.585 507.634 360.796L507.844 360.85C507.384 362.641 506.899 364.446 506.391 366.265C505.899 368.022 505.376 369.764 504.824 371.49ZM510.379 350.021C511.162 346.301 511.839 342.639 512.411 339.031L512.197 338.997C511.625 342.601 510.949 346.259 510.167 349.976L510.379 350.021Z" fill="#231F20"/>
<g filter="url(#filter1_dddddd_2_1821)">
<path d="M80.3391 197.63C85.984 214.019 77.2742 231.881 60.8851 237.526C44.496 243.171 26.6339 234.461 20.989 218.072C15.3441 201.683 24.054 183.821 40.443 178.176C56.8321 172.531 74.6942 181.241 80.3391 197.63Z" fill="white" stroke="#231F20" stroke-width="0.5"/>
<path d="M47.8361 201.648L34.4136 215.358L37.9654 218.87L47.8361 208.999L53.2465 214.038L64.3149 203.134L66.9581 205.654V196.857H58.0786L60.6805 199.582L53.2465 206.934L47.8361 201.648Z" stroke="black" stroke-width="1.2" stroke-linejoin="round"/>
</g>
<g filter="url(#filter2_ddddd_2_1821)">
<path d="M79.7035 127.982C83.3409 139.758 76.7436 152.253 64.9679 155.89C53.1922 159.528 40.6973 152.93 37.0599 141.155C33.4225 129.379 40.0198 116.884 51.7955 113.247C63.5712 109.609 76.0661 116.207 79.7035 127.982Z" fill="white" stroke="#231F20" stroke-width="0.4"/>
<path d="M56.3494 130.136L46.7783 139.913L49.311 142.417L56.3494 135.378L60.2073 138.971L68.0997 131.196L69.9845 132.993L69.9845 126.72L63.6529 126.72L65.5082 128.664L60.2073 133.906L56.3494 130.136Z" stroke="black" stroke-width="0.8" stroke-linejoin="round"/>
</g>
<g filter="url(#filter3_dddddd_2_1821)">
<path d="M400.059 66.1862C402.893 78.1524 395.489 90.1497 383.522 92.9829C371.556 95.8161 359.559 88.4123 356.726 76.446C353.893 64.4797 361.296 52.4824 373.263 49.6493C385.229 46.8161 397.226 54.2199 400.059 66.1862Z" fill="white" stroke="#231F20" stroke-width="0.5"/>
<g clip-path="url(#clip1_2_1821)">
<path d="M376.996 61.3895C376.715 61.3773 376.471 61.5819 376.433 61.8609L374.095 78.8319C374.054 79.1294 374.262 79.4039 374.559 79.4449L379.408 80.1131C379.706 80.1541 379.98 79.9461 380.021 79.6486L382.36 62.6776C382.401 62.3801 382.193 62.1056 381.895 62.0646L377.047 61.3964C377.03 61.3934 377.013 61.391 376.996 61.3895ZM376.989 62.1129L381.747 62.7497L379.451 79.4109L374.696 78.7556L376.989 62.1129ZM383.415 68.5874C383.134 68.5753 382.89 68.7798 382.853 69.0589L381.368 79.8341C381.327 80.1316 381.535 80.4061 381.833 80.4471L386.682 81.1153C386.979 81.1563 387.254 80.9482 387.295 80.6508L388.779 69.8755C388.82 69.5779 388.612 69.3036 388.315 69.2626L383.466 68.5944C383.449 68.5911 383.433 68.5888 383.415 68.5874ZM383.37 69.2911L388.263 69.9654L386.821 80.4265L381.928 79.7523L383.37 69.2911ZM368.349 70.3541C368.068 70.342 367.824 70.5465 367.787 70.8255L366.821 77.8295C366.78 78.1269 366.988 78.4014 367.286 78.4424L372.135 79.1106C372.432 79.1516 372.707 78.9436 372.748 78.6461L373.713 71.6422C373.754 71.3447 373.546 71.0703 373.248 71.0292L368.4 70.3611C368.383 70.358 368.366 70.3557 368.349 70.3541ZM368.358 71.0988L372.998 71.7381L372.081 78.3952L367.441 77.7559L368.358 71.0988Z" fill="black"/>
<path d="M365.842 79.7161L387.716 82.7302" stroke="black" stroke-width="0.72" stroke-linecap="round"/>
</g>
</g>
<g filter="url(#filter4_ddddd_2_1821)">
<path d="M351.48 461.52C354.57 473.422 347.426 485.576 335.524 488.666C323.622 491.757 311.468 484.613 308.377 472.71C305.287 460.808 312.431 448.654 324.333 445.564C336.236 442.473 348.39 449.617 351.48 461.52Z" fill="white" stroke="#231F20" stroke-width="0.5"/>
<path d="M327.637 480.165L326.839 480.108L326.782 480.906L327.58 480.963L327.637 480.165ZM329.51 453.763L329.566 452.965L328.768 452.909L328.712 453.707L329.51 453.763ZM331.201 453.883L331.999 453.94L332.055 453.142L331.257 453.085L331.201 453.883ZM329.328 480.285L329.272 481.083L330.07 481.139L330.126 480.341L329.328 480.285ZM333.789 462.556L332.989 462.584L333.015 463.303L333.732 463.354L333.789 462.556ZM332.721 460.365L332.213 460.984L332.216 460.986L332.721 460.365ZM327.932 459.632L328.19 460.389L328.19 460.389L327.932 459.632ZM326.553 460.519L325.943 460.001L325.943 460.001L326.553 460.519ZM325.989 461.899L325.192 461.832L325.191 461.842L325.989 461.899ZM326.207 463.065L325.498 463.436L325.504 463.446L326.207 463.065ZM326.984 463.949L326.503 464.588L326.512 464.595L326.984 463.949ZM328.109 464.589L327.789 465.322L327.789 465.322L328.109 464.589ZM329.372 465.062L329.62 464.301L329.611 464.298L329.372 465.062ZM331.317 465.697L331.068 466.458L331.081 466.461L331.317 465.697ZM333.563 466.613L333.196 467.324L333.198 467.325L333.563 466.613ZM335.469 467.95L334.918 468.53L334.921 468.534L335.469 467.95ZM335.913 475.424L336.542 475.918L336.544 475.916L335.913 475.424ZM333.014 477.426L333.283 478.18L333.285 478.179L333.014 477.426ZM324.411 476.837L324.048 477.55L324.05 477.55L324.411 476.837ZM321.743 474.409L321.054 474.815L321.056 474.819L321.743 474.409ZM320.903 470.763L320.96 469.965L320.13 469.906L320.104 470.738L320.903 470.763ZM324.668 471.03L325.468 471.027L325.465 470.284L324.724 470.232L324.668 471.03ZM325.218 472.914L325.872 472.453L325.872 472.453L325.218 472.914ZM326.698 474.117L326.364 474.844L326.366 474.846L326.698 474.117ZM331.051 474.416L331.292 475.179L331.296 475.177L331.051 474.416ZM332.61 473.469L333.198 474.012L333.202 474.008L332.61 473.469ZM333.27 471.92L334.067 471.985L334.068 471.976L334.068 471.966L333.27 471.92ZM332.881 470.524L332.242 471.004L332.246 471.01L332.881 470.524ZM331.615 469.522L331.243 470.23L331.253 470.235L331.615 469.522ZM329.682 468.722L329.428 469.48L329.43 469.481L329.682 468.722ZM327.323 467.932L327.577 467.174L327.576 467.174L327.323 467.932ZM323.342 465.608L322.763 466.16L322.767 466.164L323.342 465.608ZM323.337 458.663L322.725 458.148L322.723 458.151L323.337 458.663ZM326.265 456.684L326.536 457.437L326.539 457.436L326.265 456.684ZM334.176 457.245L333.789 457.945L333.794 457.948L334.176 457.245ZM336.694 459.59L336.008 460.002L336.009 460.004L336.694 459.59ZM337.47 462.817L337.414 463.615L338.226 463.672L338.269 462.859L337.47 462.817ZM328.435 480.221L330.308 453.82L328.712 453.707L326.839 480.108L328.435 480.221ZM329.453 454.561L331.144 454.681L331.257 453.085L329.566 452.965L329.453 454.561ZM330.403 453.827L328.53 480.228L330.126 480.341L331.999 453.94L330.403 453.827ZM329.385 479.487L327.694 479.367L327.58 480.963L329.272 481.083L329.385 479.487ZM334.588 462.527C334.548 461.399 334.092 460.449 333.226 459.745L332.216 460.986C332.709 461.387 332.965 461.898 332.989 462.584L334.588 462.527ZM333.228 459.747C332.394 459.062 331.316 458.707 330.067 458.618L329.954 460.214C330.973 460.287 331.703 460.565 332.213 460.984L333.228 459.747ZM330.067 458.618C329.192 458.556 328.388 458.632 327.675 458.875L328.19 460.389C328.652 460.232 329.233 460.163 329.954 460.214L330.067 458.618ZM327.675 458.875C326.979 459.112 326.386 459.479 325.943 460.001L327.163 461.036C327.383 460.777 327.711 460.553 328.19 460.389L327.675 458.875ZM325.943 460.001C325.5 460.524 325.25 461.143 325.192 461.832L326.786 461.966C326.817 461.597 326.943 461.296 327.163 461.036L325.943 460.001ZM325.191 461.842C325.151 462.406 325.242 462.947 325.498 463.436L326.916 462.694C326.818 462.508 326.764 462.271 326.787 461.955L325.191 461.842ZM325.504 463.446C325.746 463.894 326.085 464.274 326.503 464.588L327.465 463.31C327.213 463.121 327.034 462.911 326.91 462.683L325.504 463.446ZM326.512 464.595C326.898 464.877 327.325 465.119 327.789 465.322L328.43 463.855C328.063 463.695 327.739 463.51 327.456 463.303L326.512 464.595ZM327.789 465.322C328.231 465.514 328.678 465.682 329.132 465.825L329.611 464.298C329.213 464.173 328.819 464.026 328.43 463.855L327.789 465.322ZM329.123 465.822L331.068 466.457L331.565 464.937L329.62 464.301L329.123 465.822ZM331.081 466.461C331.821 466.69 332.526 466.978 333.196 467.324L333.93 465.902C333.174 465.512 332.381 465.188 331.553 464.933L331.081 466.461ZM333.198 467.325C333.855 467.661 334.426 468.064 334.918 468.53L336.02 467.37C335.41 466.792 334.711 466.302 333.928 465.901L333.198 467.325ZM334.921 468.534C335.396 468.98 335.758 469.501 336.01 470.102L337.485 469.484C337.146 468.675 336.655 467.967 336.016 467.367L334.921 468.534ZM336.01 470.102C336.248 470.671 336.353 471.351 336.295 472.165L337.891 472.279C337.963 471.264 337.838 470.325 337.485 469.484L336.01 470.102ZM336.295 472.165C336.218 473.26 335.875 474.172 335.282 474.932L336.544 475.916C337.35 474.882 337.794 473.66 337.891 472.279L336.295 472.165ZM335.284 474.93C334.691 475.684 333.858 476.272 332.743 476.673L333.285 478.179C334.637 477.692 335.737 476.944 336.542 475.918L335.284 474.93ZM332.745 476.673C331.649 477.064 330.306 477.22 328.694 477.105L328.58 478.701C330.35 478.827 331.926 478.664 333.283 478.18L332.745 476.673ZM328.694 477.105C327.131 476.995 325.831 476.659 324.773 476.123L324.05 477.55C325.339 478.204 326.857 478.579 328.58 478.701L328.694 477.105ZM324.774 476.124C323.728 475.591 322.957 474.881 322.43 473.999L321.056 474.819C321.753 475.985 322.76 476.894 324.048 477.55L324.774 476.124ZM322.432 474.002C321.918 473.131 321.662 472.071 321.703 470.788L320.104 470.738C320.055 472.267 320.36 473.638 321.054 474.815L322.432 474.002ZM320.847 471.561L324.611 471.828L324.724 470.232L320.96 469.965L320.847 471.561ZM323.868 471.033C323.871 471.908 324.09 472.703 324.564 473.375L325.872 472.453C325.617 472.092 325.47 471.631 325.468 471.027L323.868 471.033ZM324.564 473.375C325.016 474.016 325.624 474.505 326.364 474.844L327.032 473.391C326.526 473.158 326.148 472.844 325.872 472.453L324.564 473.375ZM326.366 474.846C327.095 475.177 327.903 475.368 328.781 475.43L328.894 473.834C328.177 473.783 327.559 473.631 327.029 473.389L326.366 474.846ZM328.781 475.43C329.691 475.495 330.532 475.418 331.291 475.179L330.81 473.653C330.282 473.819 329.649 473.888 328.894 473.834L328.781 475.43ZM331.296 475.177C332.052 474.934 332.699 474.552 333.198 474.012L332.022 472.927C331.743 473.229 331.35 473.479 330.805 473.654L331.296 475.177ZM333.202 474.008C333.716 473.442 334.003 472.757 334.067 471.985L332.472 471.854C332.436 472.292 332.284 472.64 332.018 472.931L333.202 474.008ZM334.068 471.966C334.11 471.255 333.942 470.593 333.517 470.038L332.246 471.01C332.403 471.215 332.494 471.483 332.471 471.873L334.068 471.966ZM333.521 470.044C333.139 469.535 332.61 469.13 331.978 468.809L331.253 470.235C331.728 470.476 332.042 470.739 332.242 471.004L333.521 470.044ZM331.988 468.814C331.394 468.502 330.708 468.219 329.934 467.962L329.43 469.481C330.142 469.717 330.744 469.968 331.243 470.23L331.988 468.814ZM329.936 467.963L327.577 467.174L327.069 468.691L329.428 469.48L329.936 467.963ZM327.576 467.174C325.953 466.631 324.75 465.914 323.917 465.052L322.767 466.164C323.826 467.261 325.278 468.093 327.07 468.691L327.576 467.174ZM323.921 465.056C323.156 464.253 322.799 463.234 322.892 461.917L321.296 461.804C321.175 463.513 321.65 464.992 322.763 466.16L323.921 465.056ZM322.892 461.917C322.97 460.826 323.327 459.924 323.951 459.176L322.723 458.151C321.866 459.177 321.395 460.406 321.296 461.804L322.892 461.917ZM323.949 459.179C324.596 458.411 325.449 457.827 326.536 457.437L325.995 455.931C324.671 456.406 323.572 457.142 322.725 458.148L323.949 459.179ZM326.539 457.436C327.624 457.04 328.852 456.882 330.235 456.98L330.348 455.384C328.775 455.272 327.318 455.449 325.991 455.932L326.539 457.436ZM330.235 456.98C331.641 457.08 332.819 457.409 333.789 457.945L334.562 456.545C333.352 455.876 331.939 455.497 330.348 455.384L330.235 456.98ZM333.794 457.948C334.78 458.484 335.508 459.17 336.008 460.002L337.38 459.178C336.717 458.076 335.767 457.199 334.557 456.542L333.794 457.948ZM336.009 460.004C336.502 460.818 336.727 461.733 336.671 462.774L338.269 462.859C338.341 461.519 338.048 460.282 337.378 459.176L336.009 460.004ZM337.527 462.019L333.845 461.758L333.732 463.354L337.414 463.615L337.527 462.019Z" fill="#231F20"/>
</g>
<g filter="url(#filter5_ddddd_2_1821)">
<path d="M268.201 419.926C263.731 440.288 243.602 453.172 223.24 448.703C202.877 444.234 189.994 424.104 194.463 403.742C198.932 383.38 219.062 370.496 239.424 374.965C259.786 379.435 272.67 399.564 268.201 419.926Z" fill="white" stroke="#231F20"/>
<path d="M230.011 437.138H228.511V438.638H230.011V437.138ZM230.011 385.336V383.836H228.511V385.336H230.011ZM233.33 385.336H234.83V383.836H233.33V385.336ZM233.33 437.138V438.638H234.83V437.138H233.33ZM239.583 401.908L238.091 402.068L238.234 403.408H239.583V401.908ZM237.195 397.78L236.328 399.004L236.333 399.008L237.195 397.78ZM227.745 397.011L228.328 398.394L228.328 398.394L227.745 397.011ZM225.175 398.934L223.965 398.047L223.965 398.047L225.175 398.934ZM224.265 401.706L222.765 401.687L222.765 401.696V401.706H224.265ZM224.851 403.952L223.575 404.74L223.581 404.75L223.587 404.759L224.851 403.952ZM226.49 405.571L225.676 406.83L225.684 406.836L225.693 406.842L226.49 405.571ZM228.777 406.664L228.275 408.077L228.275 408.077L228.777 406.664ZM231.306 407.412L231.67 405.957L231.662 405.955L231.654 405.953L231.306 407.412ZM235.192 408.384L234.828 409.839L234.84 409.842L234.852 409.845L235.192 408.384ZM239.704 409.861L239.112 411.239L239.116 411.241L239.704 409.861ZM243.61 412.208L242.656 413.366L242.663 413.372L243.61 412.208ZM245.512 426.737L246.754 427.578L246.757 427.574L245.512 426.737ZM240.129 431.047L240.732 432.421L240.736 432.419L240.129 431.047ZM223.253 431.088L222.669 432.469L222.671 432.471L223.253 431.088ZM217.708 426.717L216.474 427.569L216.478 427.575L217.708 426.717ZM215.563 419.716V418.216H214.003L214.064 419.774L215.563 419.716ZM222.949 419.716L224.445 419.604L224.341 418.216H222.949V419.716ZM224.285 423.317L225.446 422.369L225.446 422.369L224.285 423.317ZM227.34 425.462L226.812 426.866L226.817 426.868L227.34 425.462ZM235.88 425.442L236.431 426.837L236.439 426.834L235.88 425.442ZM238.794 423.378L239.965 424.315L239.972 424.307L238.794 423.378ZM239.866 420.262L241.366 420.279L241.366 420.261L241.366 420.243L239.866 420.262ZM238.915 417.591L237.782 418.574L237.787 418.579L237.791 418.585L238.915 417.591ZM236.305 415.81L235.702 417.184L235.712 417.188L235.722 417.192L236.305 415.81ZM232.419 414.515L232.045 415.968L232.049 415.969L232.419 414.515ZM227.705 413.301L228.079 411.848L228.078 411.848L227.705 413.301ZM219.61 409.315L218.6 410.423L218.608 410.431L219.61 409.315ZM218.639 395.757L217.426 394.874L217.422 394.88L218.639 395.757ZM224.082 391.487L224.688 392.86L224.695 392.857L224.082 391.487ZM239.603 391.487L238.972 392.848L238.982 392.853L239.603 391.487ZM244.844 395.716L243.616 396.578L243.619 396.582L244.844 395.716ZM246.807 401.908V403.408H248.333L248.307 401.882L246.807 401.908ZM231.511 437.138V385.336H228.511V437.138H231.511ZM230.011 386.836H233.33V383.836H230.011V386.836ZM231.83 385.336V437.138H234.83V385.336H231.83ZM233.33 435.638H230.011V438.638H233.33V435.638ZM241.074 401.749C240.841 399.57 239.829 397.796 238.057 396.553L236.333 399.008C237.367 399.734 237.946 400.713 238.091 402.068L241.074 401.749ZM238.062 396.557C236.352 395.344 234.214 394.803 231.772 394.803V397.803C233.782 397.803 235.259 398.247 236.328 399.004L238.062 396.557ZM231.772 394.803C230.062 394.803 228.511 395.06 227.162 395.629L228.328 398.394C229.218 398.018 230.352 397.803 231.772 397.803V394.803ZM227.162 395.629C225.845 396.185 224.75 396.977 223.965 398.047L226.385 399.821C226.787 399.272 227.405 398.783 228.328 398.394L227.162 395.629ZM223.965 398.047C223.18 399.117 222.782 400.347 222.765 401.687L225.764 401.726C225.774 400.987 225.983 400.369 226.385 399.821L223.965 398.047ZM222.765 401.706C222.765 402.803 223.016 403.833 223.575 404.74L226.128 403.165C225.905 402.803 225.765 402.336 225.765 401.706H222.765ZM223.587 404.759C224.117 405.59 224.823 406.279 225.676 406.83L227.305 404.312C226.781 403.973 226.395 403.582 226.116 403.145L223.587 404.759ZM225.693 406.842C226.482 407.337 227.345 407.747 228.275 408.077L229.279 405.25C228.536 404.987 227.875 404.669 227.288 404.3L225.693 406.842ZM228.275 408.077C229.162 408.392 230.056 408.657 230.959 408.872L231.654 405.953C230.857 405.764 230.065 405.529 229.279 405.25L228.275 408.077ZM230.943 408.868L234.828 409.839L235.555 406.929L231.67 405.957L230.943 408.868ZM234.852 409.845C236.332 410.189 237.752 410.654 239.112 411.239L240.297 408.483C238.77 407.827 237.181 407.307 235.532 406.923L234.852 409.845ZM239.116 411.241C240.45 411.809 241.627 412.519 242.656 413.366L244.563 411.05C243.299 410.009 241.872 409.154 240.292 408.481L239.116 411.241ZM242.663 413.372C243.659 414.183 244.443 415.157 245.023 416.304L247.701 414.952C246.931 413.428 245.88 412.122 244.556 411.045L242.663 413.372ZM245.023 416.304C245.572 417.392 245.873 418.717 245.873 420.323H248.873C248.873 418.34 248.5 416.535 247.701 414.952L245.023 416.304ZM245.873 420.323C245.873 422.481 245.326 424.323 244.266 425.901L246.757 427.574C248.179 425.456 248.873 423.021 248.873 420.323H245.873ZM244.269 425.897C243.21 427.463 241.654 428.732 239.522 429.676L240.736 432.419C243.299 431.285 245.332 429.681 246.754 427.578L244.269 425.897ZM239.526 429.674C237.43 430.595 234.821 431.085 231.65 431.085V434.085C235.117 434.085 238.16 433.551 240.732 432.421L239.526 429.674ZM231.65 431.085C228.577 431.085 225.984 430.609 223.834 429.705L222.671 432.471C225.27 433.563 228.275 434.085 231.65 434.085V431.085ZM223.837 429.706C221.71 428.807 220.097 427.52 218.939 425.859L216.478 427.575C217.991 429.745 220.074 431.372 222.669 432.469L223.837 429.706ZM218.943 425.865C217.81 424.223 217.161 422.178 217.062 419.657L214.064 419.774C214.181 422.758 214.963 425.379 216.474 427.569L218.943 425.865ZM215.563 421.216H222.949V418.216H215.563V421.216ZM221.453 419.827C221.58 421.524 222.115 423.032 223.123 424.266L225.446 422.369C224.89 421.687 224.534 420.794 224.445 419.604L221.453 419.827ZM223.123 424.266C224.087 425.446 225.331 426.309 226.812 426.866L227.869 424.059C226.84 423.671 226.048 423.104 225.446 422.369L223.123 424.266ZM226.817 426.868C228.276 427.412 229.874 427.671 231.59 427.671V424.671C230.176 424.671 228.94 424.458 227.864 424.057L226.817 426.868ZM231.59 427.671C233.368 427.671 234.992 427.406 236.431 426.837L235.328 424.047C234.312 424.449 233.076 424.671 231.59 424.671V427.671ZM236.439 426.834C237.874 426.257 239.074 425.429 239.965 424.315L237.622 422.441C237.11 423.081 236.367 423.629 235.32 424.051L236.439 426.834ZM239.972 424.307C240.888 423.143 241.349 421.78 241.366 420.279L238.366 420.245C238.356 421.118 238.102 421.832 237.615 422.45L239.972 424.307ZM241.366 420.243C241.349 418.862 240.933 417.608 240.038 416.597L237.791 418.585C238.138 418.976 238.356 419.503 238.366 420.281L241.366 420.243ZM240.048 416.608C239.24 415.677 238.161 414.965 236.887 414.428L235.722 417.192C236.688 417.6 237.348 418.074 237.782 418.574L240.048 416.608ZM236.908 414.437C235.709 413.911 234.333 413.454 232.789 413.061L232.049 415.969C233.474 416.331 234.688 416.738 235.702 417.184L236.908 414.437ZM232.793 413.062L228.079 411.848L227.33 414.754L232.045 415.968L232.793 413.062ZM228.078 411.848C224.826 411.013 222.368 409.775 220.613 408.199L218.608 410.431C220.819 412.416 223.757 413.835 227.331 414.754L228.078 411.848ZM220.621 408.206C219 406.73 218.156 404.771 218.156 402.171H215.156C215.156 405.508 216.281 408.311 218.6 410.423L220.621 408.206ZM218.156 402.171C218.156 400.018 218.733 398.192 219.856 396.634L217.422 394.88C215.901 396.991 215.156 399.441 215.156 402.171H218.156ZM219.852 396.64C221.016 395.041 222.611 393.776 224.688 392.86L223.477 390.115C220.968 391.222 218.933 392.804 217.426 394.874L219.852 396.64ZM224.695 392.857C226.768 391.93 229.151 391.449 231.873 391.449V388.449C228.794 388.449 225.984 388.994 223.47 390.118L224.695 392.857ZM231.873 391.449C234.64 391.449 236.994 391.931 238.972 392.848L240.234 390.126C237.787 388.992 234.988 388.449 231.873 388.449V391.449ZM238.982 392.853C240.991 393.766 242.518 395.012 243.616 396.578L246.072 394.855C244.634 392.805 242.666 391.232 240.224 390.122L238.982 392.853ZM243.619 396.582C244.702 398.115 245.271 399.882 245.307 401.934L248.307 401.882C248.261 399.267 247.522 396.906 246.069 394.851L243.619 396.582ZM246.807 400.408H239.583V403.408H246.807V400.408Z" fill="#231F20"/>
</g>
<g filter="url(#filter6_dddddd_2_1821)">
<path d="M155.25 146.989L153.836 142.114C153.528 141.049 154.091 139.93 155.095 139.639C156.099 139.348 157.173 139.992 157.482 141.057L158.896 145.931C159.205 146.996 158.641 148.115 157.637 148.406C156.633 148.697 155.559 148.054 155.25 146.989ZM156.458 141.354C156.31 140.842 155.822 140.539 155.392 140.664C154.962 140.788 154.712 141.305 154.86 141.817L156.274 146.692C156.423 147.204 156.91 147.506 157.34 147.382C157.77 147.257 158.02 146.74 157.872 146.228L156.458 141.354Z" fill="#231F20"/>
<path d="M162.562 144.868L161.148 139.993C160.84 138.928 161.403 137.81 162.407 137.519C163.411 137.228 164.485 137.871 164.794 138.936L166.208 143.811C166.517 144.876 165.953 145.994 164.949 146.285C163.945 146.576 162.871 145.933 162.562 144.868ZM163.791 139.227C163.642 138.715 163.155 138.412 162.725 138.537C162.294 138.662 162.045 139.178 162.193 139.69L163.607 144.565C163.755 145.077 164.243 145.38 164.673 145.255C165.103 145.13 165.353 144.614 165.204 144.102L163.791 139.227Z" fill="#231F20"/>
<path d="M147.917 149.115L146.504 144.24C146.195 143.175 146.759 142.057 147.763 141.766C148.766 141.475 149.841 142.118 150.15 143.183L151.563 148.058C151.872 149.123 151.308 150.241 150.305 150.532C149.301 150.823 148.226 150.18 147.917 149.115ZM149.146 143.474C148.998 142.962 148.51 142.659 148.08 142.784C147.629 142.914 147.4 143.425 147.548 143.937L148.962 148.812C149.111 149.324 149.598 149.627 150.028 149.502C150.479 149.371 150.708 148.861 150.56 148.349L149.146 143.474Z" fill="#231F20"/>
<path d="M169.894 142.742L168.481 137.867C168.172 136.802 168.736 135.684 169.74 135.393C170.743 135.102 171.818 135.745 172.127 136.81L173.54 141.685C173.849 142.75 173.285 143.868 172.282 144.159C171.278 144.45 170.203 143.807 169.894 142.742ZM171.103 137.107C170.954 136.595 170.467 136.292 170.037 136.417C169.586 136.547 169.357 137.058 169.505 137.57L170.919 142.445C171.067 142.957 171.555 143.26 171.985 143.135C172.435 143.004 172.665 142.494 172.516 141.981L171.103 137.107Z" fill="#231F20"/>
<path d="M177.207 140.622L175.793 135.747C175.485 134.682 176.048 133.564 177.052 133.272C178.056 132.981 179.13 133.625 179.439 134.69L180.853 139.564C181.162 140.629 180.598 141.748 179.594 142.039C178.591 142.33 177.516 141.687 177.207 140.622ZM178.436 134.981C178.287 134.469 177.8 134.166 177.37 134.291C176.919 134.421 176.69 134.932 176.838 135.444L178.252 140.319C178.4 140.831 178.888 141.133 179.318 141.009C179.768 140.878 179.998 140.367 179.849 139.855L178.436 134.981Z" fill="#231F20"/>
<path d="M184.539 138.495L183.126 133.621C182.817 132.556 183.381 131.437 184.385 131.146C185.388 130.855 186.463 131.498 186.772 132.563L188.185 137.438C188.494 138.503 187.93 139.622 186.927 139.913C185.923 140.204 184.848 139.56 184.539 138.495ZM185.748 132.86C185.599 132.348 185.112 132.046 184.682 132.17C184.251 132.295 184.002 132.812 184.15 133.324L185.564 138.198C185.712 138.71 186.2 139.013 186.63 138.888C187.06 138.764 187.31 138.247 187.161 137.735L185.748 132.86Z" fill="#231F20"/>
<path d="M191.852 136.375L190.438 131.5C190.129 130.435 190.693 129.317 191.697 129.026C192.7 128.735 193.775 129.378 194.084 130.443L195.497 135.318C195.806 136.383 195.242 137.501 194.239 137.792C193.256 138.077 192.16 137.44 191.852 136.375ZM193.08 130.734C192.932 130.222 192.444 129.919 192.014 130.044C191.563 130.174 191.334 130.685 191.483 131.197L192.896 136.072C193.045 136.584 193.532 136.887 193.962 136.762C194.413 136.631 194.642 136.121 194.494 135.609L193.08 130.734Z" fill="#231F20"/>
<path d="M199.184 134.249L197.77 129.374C197.462 128.309 198.026 127.19 199.029 126.899C200.033 126.608 201.107 127.252 201.416 128.317L202.83 133.191C203.139 134.256 202.575 135.375 201.571 135.666C200.568 135.957 199.493 135.314 199.184 134.249ZM200.413 128.608C200.264 128.096 199.777 127.793 199.347 127.918C198.916 128.042 198.667 128.559 198.815 129.071L200.229 133.946C200.377 134.458 200.865 134.76 201.295 134.636C201.725 134.511 201.975 133.994 201.826 133.482L200.413 128.608Z" fill="#231F20"/>
<path d="M206.517 132.122L205.103 127.247C204.794 126.182 205.358 125.064 206.362 124.773C207.365 124.482 208.44 125.125 208.749 126.19L210.162 131.065C210.471 132.13 209.907 133.248 208.904 133.539C207.9 133.83 206.825 133.187 206.517 132.122ZM207.725 126.487C207.576 125.975 207.089 125.672 206.659 125.797C206.229 125.922 205.979 126.438 206.127 126.95L207.541 131.825C207.689 132.337 208.177 132.64 208.607 132.515C209.037 132.39 209.287 131.874 209.138 131.362L207.725 126.487Z" fill="#231F20"/>
<path d="M253.054 247.835C253.393 247.737 253.589 247.382 253.491 247.043L219.494 129.459L218.439 127.02C218.352 126.82 218.169 126.677 217.953 126.643L216.387 126.392C216.293 126.377 216.198 126.383 216.107 126.41L209.39 128.357C209.051 128.456 208.696 128.261 208.598 127.921L208.148 126.37C207.921 125.587 207.145 125.138 206.427 125.346C205.709 125.555 205.294 126.349 205.521 127.131L205.971 128.683C206.069 129.022 205.874 129.377 205.535 129.475L202.065 130.482C201.725 130.58 201.37 130.385 201.272 130.045L200.822 128.494C200.595 127.712 199.82 127.262 199.102 127.471C198.383 127.679 197.969 128.473 198.195 129.255L198.645 130.807C198.744 131.146 198.548 131.501 198.209 131.6L194.739 132.606C194.4 132.704 194.045 132.509 193.946 132.17L193.496 130.618C193.269 129.836 192.494 129.387 191.776 129.595C191.058 129.803 190.643 130.597 190.87 131.38L191.32 132.931C191.418 133.271 191.223 133.626 190.883 133.724L187.413 134.73C187.074 134.829 186.719 134.633 186.621 134.294L186.171 132.742C185.944 131.96 185.168 131.511 184.45 131.719C183.732 131.927 183.317 132.722 183.544 133.504L183.994 135.056C184.092 135.395 183.897 135.75 183.558 135.848L180.088 136.855C179.748 136.953 179.393 136.758 179.295 136.418L178.845 134.867C178.618 134.084 177.843 133.635 177.125 133.843C176.406 134.052 175.992 134.846 176.218 135.628L176.668 137.18C176.767 137.519 176.571 137.874 176.232 137.973L172.762 138.979C172.423 139.077 172.068 138.882 171.969 138.543L171.519 136.991C171.292 136.209 170.517 135.759 169.799 135.968C169.081 136.176 168.666 136.97 168.893 137.753L169.343 139.304C169.441 139.644 169.246 139.998 168.906 140.097L165.436 141.103C165.097 141.202 164.742 141.006 164.644 140.667L164.194 139.115C163.967 138.333 163.191 137.884 162.473 138.092C161.755 138.3 161.34 139.095 161.567 139.877L162.017 141.429C162.115 141.768 161.92 142.123 161.581 142.221L158.111 143.227C157.771 143.326 157.416 143.131 157.318 142.791L156.868 141.239C156.641 140.457 155.866 140.008 155.148 140.216C154.429 140.425 154.015 141.219 154.241 142.001L154.691 143.553C154.79 143.892 154.594 144.247 154.255 144.345L150.785 145.352C150.445 145.45 150.091 145.255 149.992 144.915L149.542 143.364C149.315 142.582 148.54 142.132 147.822 142.341C147.104 142.549 146.689 143.343 146.916 144.125L147.369 145.69C147.466 146.024 147.278 146.375 146.946 146.479L143.118 147.677C142.787 147.781 142.599 148.13 142.694 148.463L176.191 266.027C176.212 266.101 176.264 266.162 176.334 266.193V266.193C176.406 266.226 176.46 266.29 176.479 266.366L177.167 269.054C177.257 269.403 177.618 269.61 177.964 269.51L253.054 247.835Z" fill="white"/>
<path d="M167.091 204.763C168.32 204.009 206.375 193.574 225.249 188.45" stroke="black" stroke-width="1.5" stroke-linecap="round"/>
<path d="M170.091 214.763C171.32 214.009 209.375 203.574 228.249 198.45" stroke="black" stroke-width="1.5" stroke-linecap="round"/>
<path d="M173.091 224.763C174.32 224.009 212.375 213.574 231.249 208.45" stroke="black" stroke-width="1.5" stroke-linecap="round"/>
<path d="M176.091 234.763C177.32 234.009 215.375 223.574 234.249 218.45" stroke="black" stroke-width="1.5" stroke-linecap="round"/>
<g clip-path="url(#clip2_2_1821)">
<path d="M194.229 158.566C191.765 159.27 190.33 161.854 191.034 164.318C191.088 164.508 191.161 164.687 191.237 164.865L180.438 167.95L178.429 164.725C178.295 164.512 178.013 164.406 177.773 164.478L174.924 165.291C174.635 165.389 174.48 165.707 174.577 165.995C174.675 166.284 174.847 166.517 175.296 166.395L177.664 165.718C178.329 166.792 179.014 167.857 179.67 168.935C181.268 171.695 182.863 174.462 184.458 177.226C184.585 177.45 184.874 177.569 185.123 177.499L197.425 173.984C197.673 173.913 197.855 173.659 197.844 173.401L197.635 167.176C199.565 166.182 200.599 163.926 199.981 161.761C199.277 159.297 196.693 157.861 194.229 158.566L194.229 158.566ZM194.549 159.684C196.408 159.153 198.331 160.221 198.862 162.081C199.394 163.941 198.326 165.864 196.466 166.395C194.606 166.926 192.683 165.858 192.152 163.998C191.621 162.139 192.689 160.216 194.549 159.684ZM194.788 160.523C194.627 160.569 194.51 160.683 194.439 160.822C194.102 161.376 193.768 162.012 193.444 162.599C193.285 162.888 193.388 163.229 193.669 163.386C193.949 163.542 194.299 163.442 194.455 163.161L194.773 162.588L195.507 165.157C195.596 165.466 195.917 165.644 196.226 165.556C196.535 165.468 196.714 165.146 196.626 164.837L195.892 162.268L196.465 162.587C196.746 162.743 197.095 162.643 197.251 162.362C197.407 162.081 197.315 161.736 197.026 161.576C196.434 161.261 195.827 160.874 195.243 160.592C195.109 160.512 194.95 160.477 194.788 160.523ZM181.045 168.986L191.836 165.903C192.909 167.272 194.708 167.963 196.483 167.581L196.668 172.991L185.24 176.256L181.046 168.986L181.045 168.986ZM187.958 177.899C186.729 178.25 186.009 179.546 186.36 180.775C186.711 182.004 188.008 182.724 189.236 182.373C190.465 182.022 191.185 180.725 190.834 179.497C190.483 178.268 189.187 177.548 187.958 177.899ZM195.228 175.822C193.999 176.173 193.279 177.469 193.63 178.698C193.981 179.927 195.277 180.647 196.506 180.296C197.735 179.945 198.455 178.648 198.104 177.42C197.753 176.191 196.457 175.471 195.228 175.822ZM188.278 179.017C188.902 178.839 189.537 179.192 189.716 179.816C189.894 180.44 189.541 181.076 188.917 181.254C188.292 181.432 187.657 181.079 187.479 180.455C187.301 179.831 187.653 179.196 188.278 179.017ZM195.548 176.94C196.172 176.762 196.807 177.115 196.985 177.739C197.164 178.363 196.811 178.998 196.187 179.177C195.562 179.355 194.927 179.002 194.749 178.378C194.57 177.754 194.923 177.119 195.548 176.94Z" fill="black"/>
</g>
<path d="M176.783 269.642L141.7 148.655C141.616 148.368 141.776 148.077 142.063 147.994L218.174 125.924C218.461 125.84 218.752 126 218.835 126.287L253.919 247.275C254.002 247.562 253.842 247.852 253.555 247.935L177.444 270.006C177.178 270.083 176.866 269.929 176.783 269.642ZM142.872 148.87L177.659 268.833L252.746 247.06L217.959 127.096L142.872 148.87Z" fill="#231F20"/>
<path d="M176.763 269.648L175.694 265.962C175.611 265.675 175.771 265.384 176.057 265.301L248.379 244.329L214.513 127.54C214.43 127.254 214.59 126.963 214.877 126.88L218.174 125.924C218.461 125.84 218.752 126 218.835 126.287L253.919 247.275C254.002 247.562 253.842 247.852 253.555 247.935L177.423 270.012C177.137 270.095 176.846 269.935 176.763 269.648ZM176.866 266.177L177.638 268.839L252.726 247.066L217.939 127.102L215.665 127.761L249.532 244.55C249.615 244.837 249.455 245.128 249.168 245.211L176.866 266.177Z" fill="#231F20"/>
</g>
<g filter="url(#filter7_dddddd_2_1821)">
<path d="M369.108 237.922L371.146 233.273C371.592 232.258 371.179 231.075 370.222 230.656C369.265 230.236 368.115 230.733 367.67 231.749L365.632 236.397C365.186 237.413 365.599 238.595 366.556 239.015C367.513 239.435 368.663 238.937 369.108 237.922ZM368.646 232.177C368.86 231.689 369.383 231.452 369.793 231.632C370.204 231.812 370.384 232.357 370.17 232.845L368.132 237.493C367.917 237.982 367.395 238.218 366.984 238.038C366.574 237.859 366.394 237.314 366.608 236.825L368.646 232.177Z" fill="#231F20"/>
<path d="M362.136 234.864L364.174 230.216C364.619 229.2 364.206 228.018 363.249 227.598C362.292 227.179 361.143 227.676 360.698 228.692L358.659 233.34C358.214 234.355 358.627 235.538 359.584 235.958C360.541 236.377 361.691 235.88 362.136 234.864ZM361.655 229.111C361.869 228.623 362.392 228.386 362.802 228.566C363.212 228.746 363.392 229.291 363.178 229.779L361.14 234.428C360.926 234.916 360.403 235.152 359.993 234.972C359.583 234.793 359.402 234.248 359.616 233.76L361.655 229.111Z" fill="#231F20"/>
<path d="M376.1 240.988L378.138 236.34C378.584 235.324 378.171 234.142 377.214 233.722C376.257 233.302 375.107 233.8 374.662 234.815L372.624 239.463C372.178 240.479 372.591 241.661 373.548 242.081C374.505 242.501 375.655 242.003 376.1 240.988ZM375.619 235.235C375.833 234.747 376.356 234.51 376.766 234.69C377.196 234.878 377.356 235.414 377.142 235.903L375.104 240.551C374.89 241.039 374.367 241.276 373.957 241.096C373.527 240.908 373.367 240.371 373.581 239.883L375.619 235.235Z" fill="#231F20"/>
<path d="M355.144 231.798L357.182 227.15C357.627 226.134 357.214 224.952 356.257 224.532C355.3 224.113 354.151 224.61 353.705 225.626L351.667 230.274C351.222 231.29 351.635 232.472 352.592 232.892C353.549 233.311 354.698 232.814 355.144 231.798ZM354.682 226.054C354.896 225.566 355.419 225.329 355.829 225.509C356.259 225.697 356.42 226.234 356.205 226.722L354.167 231.37C353.953 231.858 353.43 232.095 353.02 231.915C352.59 231.727 352.43 231.19 352.644 230.702L354.682 226.054Z" fill="#231F20"/>
<path d="M348.171 228.742L350.209 224.093C350.655 223.078 350.242 221.895 349.285 221.476C348.328 221.056 347.178 221.553 346.733 222.569L344.695 227.217C344.249 228.233 344.662 229.415 345.619 229.835C346.576 230.255 347.726 229.757 348.171 228.742ZM347.69 222.989C347.904 222.5 348.427 222.264 348.837 222.444C349.267 222.632 349.427 223.168 349.213 223.657L347.175 228.305C346.961 228.793 346.438 229.03 346.028 228.85C345.598 228.661 345.437 228.125 345.652 227.637L347.69 222.989Z" fill="#231F20"/>
<path d="M341.179 225.676L343.218 221.027C343.663 220.012 343.25 218.829 342.293 218.41C341.336 217.99 340.186 218.487 339.741 219.503L337.703 224.151C337.258 225.167 337.671 226.349 338.628 226.769C339.585 227.188 340.734 226.691 341.179 225.676ZM340.718 219.931C340.932 219.443 341.455 219.206 341.865 219.386C342.275 219.566 342.455 220.111 342.241 220.599L340.203 225.247C339.989 225.736 339.466 225.972 339.056 225.792C338.646 225.612 338.465 225.068 338.679 224.579L340.718 219.931Z" fill="#231F20"/>
<path d="M334.207 222.618L336.245 217.97C336.69 216.954 336.277 215.772 335.32 215.352C334.363 214.933 333.214 215.43 332.768 216.446L330.73 221.094C330.285 222.109 330.698 223.292 331.655 223.711C332.592 224.122 333.761 223.634 334.207 222.618ZM333.725 216.865C333.94 216.377 334.462 216.14 334.873 216.32C335.302 216.509 335.463 217.045 335.249 217.533L333.211 222.181C332.997 222.67 332.474 222.906 332.064 222.726C331.634 222.538 331.473 222.002 331.687 221.513L333.725 216.865Z" fill="#231F20"/>
<path d="M327.215 219.552L329.253 214.904C329.699 213.888 329.286 212.706 328.329 212.286C327.372 211.867 326.222 212.364 325.777 213.38L323.739 218.028C323.293 219.043 323.706 220.226 324.663 220.645C325.62 221.065 326.77 220.568 327.215 219.552ZM326.734 213.799C326.948 213.311 327.471 213.074 327.881 213.254C328.291 213.434 328.471 213.979 328.257 214.467L326.219 219.116C326.005 219.604 325.482 219.84 325.072 219.66C324.662 219.481 324.481 218.936 324.696 218.448L326.734 213.799Z" fill="#231F20"/>
<path d="M320.223 216.486L322.261 211.838C322.706 210.822 322.293 209.64 321.336 209.22C320.379 208.8 319.23 209.298 318.785 210.313L316.746 214.961C316.301 215.977 316.714 217.159 317.671 217.579C318.628 217.999 319.777 217.501 320.223 216.486ZM319.761 210.741C319.975 210.253 320.498 210.017 320.908 210.196C321.318 210.376 321.499 210.921 321.284 211.409L319.246 216.058C319.032 216.546 318.509 216.782 318.099 216.603C317.689 216.423 317.509 215.878 317.723 215.39L319.761 210.741Z" fill="#231F20"/>
<path d="M258.969 325.128C258.646 324.986 258.498 324.609 258.639 324.285L307.705 212.15L309.07 209.87C309.182 209.682 309.382 209.565 309.601 209.559L311.186 209.516C311.28 209.513 311.374 209.531 311.461 209.569L317.866 212.378C318.189 212.52 318.567 212.372 318.709 212.049L319.358 210.569C319.685 209.823 320.512 209.479 321.197 209.779C321.882 210.08 322.189 210.921 321.862 211.667L321.213 213.147C321.071 213.471 321.219 213.848 321.542 213.99L324.851 215.441C325.175 215.583 325.552 215.435 325.694 215.112L326.343 213.632C326.67 212.886 327.497 212.542 328.182 212.842C328.867 213.143 329.175 213.984 328.847 214.73L328.199 216.21C328.057 216.534 328.204 216.911 328.528 217.053L331.837 218.504C332.16 218.646 332.538 218.498 332.68 218.175L333.328 216.695C333.655 215.949 334.483 215.605 335.168 215.906C335.852 216.206 336.16 217.048 335.833 217.793L335.184 219.273C335.042 219.597 335.189 219.974 335.513 220.116L338.822 221.567C339.146 221.709 339.523 221.561 339.665 221.238L340.314 219.758C340.641 219.012 341.468 218.668 342.153 218.969C342.838 219.269 343.145 220.111 342.818 220.856L342.17 222.336C342.028 222.66 342.175 223.037 342.499 223.179L345.807 224.63C346.131 224.772 346.508 224.624 346.65 224.301L347.299 222.821C347.626 222.075 348.454 221.731 349.138 222.032C349.823 222.332 350.131 223.174 349.804 223.919L349.155 225.399C349.013 225.723 349.16 226.1 349.484 226.242L352.793 227.693C353.116 227.835 353.494 227.688 353.636 227.364L354.285 225.884C354.612 225.138 355.439 224.794 356.124 225.095C356.809 225.395 357.116 226.237 356.789 226.983L356.14 228.462C355.998 228.786 356.146 229.163 356.469 229.305L359.778 230.756C360.102 230.898 360.479 230.751 360.621 230.427L361.27 228.947C361.597 228.201 362.424 227.857 363.109 228.158C363.794 228.458 364.102 229.3 363.775 230.046L363.126 231.525C362.984 231.849 363.131 232.226 363.455 232.368L366.764 233.819C367.087 233.961 367.465 233.814 367.607 233.49L368.255 232.01C368.582 231.264 369.41 230.92 370.095 231.221C370.78 231.521 371.087 232.363 370.76 233.109L370.111 234.588C369.969 234.912 370.117 235.289 370.44 235.431L373.749 236.882C374.073 237.024 374.45 236.877 374.592 236.553L375.241 235.073C375.568 234.327 376.395 233.983 377.08 234.284C377.765 234.584 378.072 235.426 377.745 236.172L377.091 237.664C376.951 237.982 377.092 238.354 377.408 238.501L381.046 240.189C381.361 240.335 381.502 240.705 381.364 241.024L332.797 353.205C332.767 353.275 332.707 353.328 332.633 353.351V353.351C332.558 353.374 332.496 353.43 332.467 353.503L331.434 356.078C331.299 356.413 330.915 356.57 330.584 356.426L258.969 325.128Z" fill="white"/>
<path d="M332.505 249.701L314.623 256.66L316.412 261.323L329.474 256.399L332.326 263.22L346.905 257.849L348.275 261.234L351.901 253.219L343.811 249.559L345.058 253.115L335.255 256.748L332.505 249.701Z" stroke="black" stroke-width="1.2" stroke-linejoin="round"/>
<path d="M331.737 356.711L382.325 241.343C382.445 241.069 382.324 240.76 382.051 240.64L309.475 208.816C309.201 208.696 308.892 208.817 308.772 209.091L258.185 324.458C258.065 324.732 258.185 325.041 258.459 325.161L331.035 356.985C331.289 357.096 331.617 356.984 331.737 356.711ZM381.134 241.403L330.975 355.794L259.375 324.398L309.535 210.007L381.134 241.403Z" fill="#231F20"/>
<path d="M331.757 356.719L333.298 353.204C333.418 352.93 333.298 352.621 333.024 352.501L264.061 322.262L312.893 210.898C313.013 210.624 312.892 210.315 312.619 210.195L309.475 208.816C309.201 208.696 308.892 208.817 308.772 209.091L258.185 324.458C258.065 324.732 258.185 325.041 258.459 325.161L331.054 356.993C331.328 357.113 331.637 356.993 331.757 356.719ZM332.108 353.264L330.994 355.803L259.395 324.407L309.554 210.016L311.722 210.966L262.89 322.33C262.77 322.604 262.891 322.913 263.164 323.033L332.108 353.264Z" fill="#231F20"/>
<path d="M296.083 267.724C297.504 267.967 333.009 285.185 350.584 293.764" stroke="black" stroke-linecap="round"/>
<path d="M291.752 277.223C293.173 277.466 328.678 294.684 346.253 303.263" stroke="black" stroke-linecap="round"/>
<path d="M287.422 286.722C288.843 286.965 324.348 304.183 341.923 312.762" stroke="black" stroke-linecap="round"/>
<path d="M283.091 296.223C284.512 296.466 320.017 313.684 337.592 322.263" stroke="black" stroke-linecap="round"/>
</g>
<defs>
<filter id="filter0_dddddd_2_1821" x="366.026" y="133.151" width="109.22" height="140.42" filterUnits="userSpaceOnUse" color-interpolation-filters="sRGB">
<feFlood flood-opacity="0" result="BackgroundImageFix"/>
<feColorMatrix in="SourceAlpha" type="matrix" values="0 0 0 0 0 0 0 0 0 0 0 0 0 0 0 0 0 0 127 0" result="hardAlpha"/>
<feOffset dy="1.34304"/>
<feGaussianBlur stdDeviation="0.239829"/>
<feColorMatrix type="matrix" values="0 0 0 0 0 0 0 0 0 0 0 0 0 0 0 0 0 0 0.030926 0"/>
<feBlend mode="normal" in2="BackgroundImageFix" result="effect1_dropShadow_2_1821"/>
<feColorMatrix in="SourceAlpha" type="matrix" values="0 0 0 0 0 0 0 0 0 0 0 0 0 0 0 0 0 0 127 0" result="hardAlpha"/>
<feOffset dy="3.22751"/>
<feGaussianBlur stdDeviation="0.576342"/>
<feColorMatrix type="matrix" values="0 0 0 0 0 0 0 0 0 0 0 0 0 0 0 0 0 0 0.0444282 0"/>
<feBlend mode="normal" in2="effect1_dropShadow_2_1821" result="effect2_dropShadow_2_1821"/>
<feColorMatrix in="SourceAlpha" type="matrix" values="0 0 0 0 0 0 0 0 0 0 0 0 0 0 0 0 0 0 127 0" result="hardAlpha"/>
<feOffset dy="6.07712"/>
<feGaussianBlur stdDeviation="1.0852"/>
<feColorMatrix type="matrix" values="0 0 0 0 0 0 0 0 0 0 0 0 0 0 0 0 0 0 0.055 0"/>
<feBlend mode="normal" in2="effect2_dropShadow_2_1821" result="effect3_dropShadow_2_1821"/>
<feColorMatrix in="SourceAlpha" type="matrix" values="0 0 0 0 0 0 0 0 0 0 0 0 0 0 0 0 0 0 127 0" result="hardAlpha"/>
<feOffset dy="10.8406"/>
<feGaussianBlur stdDeviation="1.93581"/>
<feColorMatrix type="matrix" values="0 0 0 0 0 0 0 0 0 0 0 0 0 0 0 0 0 0 0.0655718 0"/>
<feBlend mode="normal" in2="effect3_dropShadow_2_1821" result="effect4_dropShadow_2_1821"/>
<feColorMatrix in="SourceAlpha" type="matrix" values="0 0 0 0 0 0 0 0 0 0 0 0 0 0 0 0 0 0 127 0" result="hardAlpha"/>
<feOffset dy="20.2761"/>
<feGaussianBlur stdDeviation="3.62072"/>
<feColorMatrix type="matrix" values="0 0 0 0 0 0 0 0 0 0 0 0 0 0 0 0 0 0 0.079074 0"/>
<feBlend mode="normal" in2="effect4_dropShadow_2_1821" result="effect5_dropShadow_2_1821"/>
<feColorMatrix in="SourceAlpha" type="matrix" values="0 0 0 0 0 0 0 0 0 0 0 0 0 0 0 0 0 0 127 0" result="hardAlpha"/>
<feOffset dy="48.5333"/>
<feGaussianBlur stdDeviation="8.66666"/>
<feColorMatrix type="matrix" values="0 0 0 0 0 0 0 0 0 0 0 0 0 0 0 0 0 0 0.11 0"/>
<feBlend mode="normal" in2="effect5_dropShadow_2_1821" result="effect6_dropShadow_2_1821"/>
<feBlend mode="normal" in="SourceGraphic" in2="effect6_dropShadow_2_1821" result="shape"/>
</filter>
<filter id="filter1_dddddd_2_1821" x="-17.3333" y="157.187" width="135.995" height="167.195" filterUnits="userSpaceOnUse" color-interpolation-filters="sRGB">
<feFlood flood-opacity="0" result="BackgroundImageFix"/>
<feColorMatrix in="SourceAlpha" type="matrix" values="0 0 0 0 0 0 0 0 0 0 0 0 0 0 0 0 0 0 127 0" result="hardAlpha"/>
<feOffset dy="1.34304"/>
<feGaussianBlur stdDeviation="0.239829"/>
<feColorMatrix type="matrix" values="0 0 0 0 0 0 0 0 0 0 0 0 0 0 0 0 0 0 0.030926 0"/>
<feBlend mode="normal" in2="BackgroundImageFix" result="effect1_dropShadow_2_1821"/>
<feColorMatrix in="SourceAlpha" type="matrix" values="0 0 0 0 0 0 0 0 0 0 0 0 0 0 0 0 0 0 127 0" result="hardAlpha"/>
<feOffset dy="3.22751"/>
<feGaussianBlur stdDeviation="0.576342"/>
<feColorMatrix type="matrix" values="0 0 0 0 0 0 0 0 0 0 0 0 0 0 0 0 0 0 0.0444282 0"/>
<feBlend mode="normal" in2="effect1_dropShadow_2_1821" result="effect2_dropShadow_2_1821"/>
<feColorMatrix in="SourceAlpha" type="matrix" values="0 0 0 0 0 0 0 0 0 0 0 0 0 0 0 0 0 0 127 0" result="hardAlpha"/>
<feOffset dy="6.07712"/>
<feGaussianBlur stdDeviation="1.0852"/>
<feColorMatrix type="matrix" values="0 0 0 0 0 0 0 0 0 0 0 0 0 0 0 0 0 0 0.055 0"/>
<feBlend mode="normal" in2="effect2_dropShadow_2_1821" result="effect3_dropShadow_2_1821"/>
<feColorMatrix in="SourceAlpha" type="matrix" values="0 0 0 0 0 0 0 0 0 0 0 0 0 0 0 0 0 0 127 0" result="hardAlpha"/>
<feOffset dy="10.8406"/>
<feGaussianBlur stdDeviation="1.93581"/>
<feColorMatrix type="matrix" values="0 0 0 0 0 0 0 0 0 0 0 0 0 0 0 0 0 0 0.0655718 0"/>
<feBlend mode="normal" in2="effect3_dropShadow_2_1821" result="effect4_dropShadow_2_1821"/>
<feColorMatrix in="SourceAlpha" type="matrix" values="0 0 0 0 0 0 0 0 0 0 0 0 0 0 0 0 0 0 127 0" result="hardAlpha"/>
<feOffset dy="20.2761"/>
<feGaussianBlur stdDeviation="3.62072"/>
<feColorMatrix type="matrix" values="0 0 0 0 0 0 0 0 0 0 0 0 0 0 0 0 0 0 0.079074 0"/>
<feBlend mode="normal" in2="effect4_dropShadow_2_1821" result="effect5_dropShadow_2_1821"/>
<feColorMatrix in="SourceAlpha" type="matrix" values="0 0 0 0 0 0 0 0 0 0 0 0 0 0 0 0 0 0 127 0" result="hardAlpha"/>
<feOffset dy="48.5333"/>
<feGaussianBlur stdDeviation="8.66666"/>
<feColorMatrix type="matrix" values="0 0 0 0 0 0 0 0 0 0 0 0 0 0 0 0 0 0 0.11 0"/>
<feBlend mode="normal" in2="effect5_dropShadow_2_1821" result="effect6_dropShadow_2_1821"/>
<feBlend mode="normal" in="SourceGraphic" in2="effect6_dropShadow_2_1821" result="shape"/>
</filter>
<filter id="filter2_ddddd_2_1821" x="14.3191" y="97.7473" width="88.125" height="101.16" filterUnits="userSpaceOnUse" color-interpolation-filters="sRGB">
<feFlood flood-opacity="0" result="BackgroundImageFix"/>
<feColorMatrix in="SourceAlpha" type="matrix" values="0 0 0 0 0 0 0 0 0 0 0 0 0 0 0 0 0 0 127 0" result="hardAlpha"/>
<feOffset dy="1.34304"/>
<feGaussianBlur stdDeviation="0.239829"/>
<feColorMatrix type="matrix" values="0 0 0 0 0 0 0 0 0 0 0 0 0 0 0 0 0 0 0.030926 0"/>
<feBlend mode="normal" in2="BackgroundImageFix" result="effect1_dropShadow_2_1821"/>
<feColorMatrix in="SourceAlpha" type="matrix" values="0 0 0 0 0 0 0 0 0 0 0 0 0 0 0 0 0 0 127 0" result="hardAlpha"/>
<feOffset dy="3.22751"/>
<feGaussianBlur stdDeviation="0.576342"/>
<feColorMatrix type="matrix" values="0 0 0 0 0 0 0 0 0 0 0 0 0 0 0 0 0 0 0.0444282 0"/>
<feBlend mode="normal" in2="effect1_dropShadow_2_1821" result="effect2_dropShadow_2_1821"/>
<feColorMatrix in="SourceAlpha" type="matrix" values="0 0 0 0 0 0 0 0 0 0 0 0 0 0 0 0 0 0 127 0" result="hardAlpha"/>
<feOffset dy="6.07712"/>
<feGaussianBlur stdDeviation="1.0852"/>
<feColorMatrix type="matrix" values="0 0 0 0 0 0 0 0 0 0 0 0 0 0 0 0 0 0 0.055 0"/>
<feBlend mode="normal" in2="effect2_dropShadow_2_1821" result="effect3_dropShadow_2_1821"/>
<feColorMatrix in="SourceAlpha" type="matrix" values="0 0 0 0 0 0 0 0 0 0 0 0 0 0 0 0 0 0 127 0" result="hardAlpha"/>
<feOffset dy="10.8406"/>
<feGaussianBlur stdDeviation="1.93581"/>
<feColorMatrix type="matrix" values="0 0 0 0 0 0 0 0 0 0 0 0 0 0 0 0 0 0 0.0655718 0"/>
<feBlend mode="normal" in2="effect3_dropShadow_2_1821" result="effect4_dropShadow_2_1821"/>
<feColorMatrix in="SourceAlpha" type="matrix" values="0 0 0 0 0 0 0 0 0 0 0 0 0 0 0 0 0 0 127 0" result="hardAlpha"/>
<feOffset dy="20.2761"/>
<feGaussianBlur stdDeviation="3.62072"/>
<feColorMatrix type="matrix" values="0 0 0 0 0 0 0 0 0 0 0 0 0 0 0 0 0 0 0.079074 0"/>
<feBlend mode="normal" in2="effect4_dropShadow_2_1821" result="effect5_dropShadow_2_1821"/>
<feBlend mode="normal" in="SourceGraphic" in2="effect5_dropShadow_2_1821" result="shape"/>
</filter>
<filter id="filter3_dddddd_2_1821" x="338.538" y="48.7952" width="79.7086" height="110.908" filterUnits="userSpaceOnUse" color-interpolation-filters="sRGB">
<feFlood flood-opacity="0" result="BackgroundImageFix"/>
<feColorMatrix in="SourceAlpha" type="matrix" values="0 0 0 0 0 0 0 0 0 0 0 0 0 0 0 0 0 0 127 0" result="hardAlpha"/>
<feOffset dy="1.34304"/>
<feGaussianBlur stdDeviation="0.239829"/>
<feColorMatrix type="matrix" values="0 0 0 0 0 0 0 0 0 0 0 0 0 0 0 0 0 0 0.030926 0"/>
<feBlend mode="normal" in2="BackgroundImageFix" result="effect1_dropShadow_2_1821"/>
<feColorMatrix in="SourceAlpha" type="matrix" values="0 0 0 0 0 0 0 0 0 0 0 0 0 0 0 0 0 0 127 0" result="hardAlpha"/>
<feOffset dy="3.22751"/>
<feGaussianBlur stdDeviation="0.576342"/>
<feColorMatrix type="matrix" values="0 0 0 0 0 0 0 0 0 0 0 0 0 0 0 0 0 0 0.0444282 0"/>
<feBlend mode="normal" in2="effect1_dropShadow_2_1821" result="effect2_dropShadow_2_1821"/>
<feColorMatrix in="SourceAlpha" type="matrix" values="0 0 0 0 0 0 0 0 0 0 0 0 0 0 0 0 0 0 127 0" result="hardAlpha"/>
<feOffset dy="6.07712"/>
<feGaussianBlur stdDeviation="1.0852"/>
<feColorMatrix type="matrix" values="0 0 0 0 0 0 0 0 0 0 0 0 0 0 0 0 0 0 0.055 0"/>
<feBlend mode="normal" in2="effect2_dropShadow_2_1821" result="effect3_dropShadow_2_1821"/>
<feColorMatrix in="SourceAlpha" type="matrix" values="0 0 0 0 0 0 0 0 0 0 0 0 0 0 0 0 0 0 127 0" result="hardAlpha"/>
<feOffset dy="10.8406"/>
<feGaussianBlur stdDeviation="1.93581"/>
<feColorMatrix type="matrix" values="0 0 0 0 0 0 0 0 0 0 0 0 0 0 0 0 0 0 0.0655718 0"/>
<feBlend mode="normal" in2="effect3_dropShadow_2_1821" result="effect4_dropShadow_2_1821"/>
<feColorMatrix in="SourceAlpha" type="matrix" values="0 0 0 0 0 0 0 0 0 0 0 0 0 0 0 0 0 0 127 0" result="hardAlpha"/>
<feOffset dy="20.2761"/>
<feGaussianBlur stdDeviation="3.62072"/>
<feColorMatrix type="matrix" values="0 0 0 0 0 0 0 0 0 0 0 0 0 0 0 0 0 0 0.079074 0"/>
<feBlend mode="normal" in2="effect4_dropShadow_2_1821" result="effect5_dropShadow_2_1821"/>
<feColorMatrix in="SourceAlpha" type="matrix" values="0 0 0 0 0 0 0 0 0 0 0 0 0 0 0 0 0 0 127 0" result="hardAlpha"/>
<feOffset dy="48.5333"/>
<feGaussianBlur stdDeviation="8.66666"/>
<feColorMatrix type="matrix" values="0 0 0 0 0 0 0 0 0 0 0 0 0 0 0 0 0 0 0.11 0"/>
<feBlend mode="normal" in2="effect5_dropShadow_2_1821" result="effect6_dropShadow_2_1821"/>
<feBlend mode="normal" in="SourceGraphic" in2="effect6_dropShadow_2_1821" result="shape"/>
</filter>
<filter id="filter4_ddddd_2_1821" x="284.85" y="429.277" width="90.1582" height="103.193" filterUnits="userSpaceOnUse" color-interpolation-filters="sRGB">
<feFlood flood-opacity="0" result="BackgroundImageFix"/>
<feColorMatrix in="SourceAlpha" type="matrix" values="0 0 0 0 0 0 0 0 0 0 0 0 0 0 0 0 0 0 127 0" result="hardAlpha"/>
<feOffset dy="1.34304"/>
<feGaussianBlur stdDeviation="0.239829"/>
<feColorMatrix type="matrix" values="0 0 0 0 0 0 0 0 0 0 0 0 0 0 0 0 0 0 0.030926 0"/>
<feBlend mode="normal" in2="BackgroundImageFix" result="effect1_dropShadow_2_1821"/>
<feColorMatrix in="SourceAlpha" type="matrix" values="0 0 0 0 0 0 0 0 0 0 0 0 0 0 0 0 0 0 127 0" result="hardAlpha"/>
<feOffset dy="3.22751"/>
<feGaussianBlur stdDeviation="0.576342"/>
<feColorMatrix type="matrix" values="0 0 0 0 0 0 0 0 0 0 0 0 0 0 0 0 0 0 0.0444282 0"/>
<feBlend mode="normal" in2="effect1_dropShadow_2_1821" result="effect2_dropShadow_2_1821"/>
<feColorMatrix in="SourceAlpha" type="matrix" values="0 0 0 0 0 0 0 0 0 0 0 0 0 0 0 0 0 0 127 0" result="hardAlpha"/>
<feOffset dy="6.07712"/>
<feGaussianBlur stdDeviation="1.0852"/>
<feColorMatrix type="matrix" values="0 0 0 0 0 0 0 0 0 0 0 0 0 0 0 0 0 0 0.055 0"/>
<feBlend mode="normal" in2="effect2_dropShadow_2_1821" result="effect3_dropShadow_2_1821"/>
<feColorMatrix in="SourceAlpha" type="matrix" values="0 0 0 0 0 0 0 0 0 0 0 0 0 0 0 0 0 0 127 0" result="hardAlpha"/>
<feOffset dy="10.8406"/>
<feGaussianBlur stdDeviation="1.93581"/>
<feColorMatrix type="matrix" values="0 0 0 0 0 0 0 0 0 0 0 0 0 0 0 0 0 0 0.0655718 0"/>
<feBlend mode="normal" in2="effect3_dropShadow_2_1821" result="effect4_dropShadow_2_1821"/>
<feColorMatrix in="SourceAlpha" type="matrix" values="0 0 0 0 0 0 0 0 0 0 0 0 0 0 0 0 0 0 127 0" result="hardAlpha"/>
<feOffset dy="20.2761"/>
<feGaussianBlur stdDeviation="3.62072"/>
<feColorMatrix type="matrix" values="0 0 0 0 0 0 0 0 0 0 0 0 0 0 0 0 0 0 0.079074 0"/>
<feBlend mode="normal" in2="effect4_dropShadow_2_1821" result="effect5_dropShadow_2_1821"/>
<feBlend mode="normal" in="SourceGraphic" in2="effect5_dropShadow_2_1821" result="shape"/>
</filter>
<filter id="filter5_ddddd_2_1821" x="178.342" y="366.277" width="105.977" height="119.354" filterUnits="userSpaceOnUse" color-interpolation-filters="sRGB">
<feFlood flood-opacity="0" result="BackgroundImageFix"/>
<feColorMatrix in="SourceAlpha" type="matrix" values="0 0 0 0 0 0 0 0 0 0 0 0 0 0 0 0 0 0 127 0" result="hardAlpha"/>
<feOffset dy="1.37835"/>
<feGaussianBlur stdDeviation="0.246134"/>
<feColorMatrix type="matrix" values="0 0 0 0 0 0 0 0 0 0 0 0 0 0 0 0 0 0 0.030926 0"/>
<feBlend mode="normal" in2="BackgroundImageFix" result="effect1_dropShadow_2_1821"/>
<feColorMatrix in="SourceAlpha" type="matrix" values="0 0 0 0 0 0 0 0 0 0 0 0 0 0 0 0 0 0 127 0" result="hardAlpha"/>
<feOffset dy="3.31237"/>
<feGaussianBlur stdDeviation="0.591495"/>
<feColorMatrix type="matrix" values="0 0 0 0 0 0 0 0 0 0 0 0 0 0 0 0 0 0 0.0444282 0"/>
<feBlend mode="normal" in2="effect1_dropShadow_2_1821" result="effect2_dropShadow_2_1821"/>
<feColorMatrix in="SourceAlpha" type="matrix" values="0 0 0 0 0 0 0 0 0 0 0 0 0 0 0 0 0 0 127 0" result="hardAlpha"/>
<feOffset dy="6.2369"/>
<feGaussianBlur stdDeviation="1.11373"/>
<feColorMatrix type="matrix" values="0 0 0 0 0 0 0 0 0 0 0 0 0 0 0 0 0 0 0.055 0"/>
<feBlend mode="normal" in2="effect2_dropShadow_2_1821" result="effect3_dropShadow_2_1821"/>
<feColorMatrix in="SourceAlpha" type="matrix" values="0 0 0 0 0 0 0 0 0 0 0 0 0 0 0 0 0 0 127 0" result="hardAlpha"/>
<feOffset dy="11.1256"/>
<feGaussianBlur stdDeviation="1.98671"/>
<feColorMatrix type="matrix" values="0 0 0 0 0 0 0 0 0 0 0 0 0 0 0 0 0 0 0.0655718 0"/>
<feBlend mode="normal" in2="effect3_dropShadow_2_1821" result="effect4_dropShadow_2_1821"/>
<feColorMatrix in="SourceAlpha" type="matrix" values="0 0 0 0 0 0 0 0 0 0 0 0 0 0 0 0 0 0 127 0" result="hardAlpha"/>
<feOffset dy="20.8091"/>
<feGaussianBlur stdDeviation="3.71592"/>
<feColorMatrix type="matrix" values="0 0 0 0 0 0 0 0 0 0 0 0 0 0 0 0 0 0 0.079074 0"/>
<feBlend mode="normal" in2="effect4_dropShadow_2_1821" result="effect5_dropShadow_2_1821"/>
<feBlend mode="normal" in="SourceGraphic" in2="effect5_dropShadow_2_1821" result="shape"/>
</filter>
<filter id="filter6_dddddd_2_1821" x="122.03" y="121.277" width="150.814" height="216.69" filterUnits="userSpaceOnUse" color-interpolation-filters="sRGB">
<feFlood flood-opacity="0" result="BackgroundImageFix"/>
<feColorMatrix in="SourceAlpha" type="matrix" values="0 0 0 0 0 0 0 0 0 0 0 0 0 0 0 0 0 0 127 0" result="hardAlpha"/>
<feOffset dy="1.32191"/>
<feGaussianBlur stdDeviation="0.236056"/>
<feColorMatrix type="matrix" values="0 0 0 0 0 0 0 0 0 0 0 0 0 0 0 0 0 0 0.030926 0"/>
<feBlend mode="normal" in2="BackgroundImageFix" result="effect1_dropShadow_2_1821"/>
<feColorMatrix in="SourceAlpha" type="matrix" values="0 0 0 0 0 0 0 0 0 0 0 0 0 0 0 0 0 0 127 0" result="hardAlpha"/>
<feOffset dy="3.17674"/>
<feGaussianBlur stdDeviation="0.567276"/>
<feColorMatrix type="matrix" values="0 0 0 0 0 0 0 0 0 0 0 0 0 0 0 0 0 0 0.0444282 0"/>
<feBlend mode="normal" in2="effect1_dropShadow_2_1821" result="effect2_dropShadow_2_1821"/>
<feColorMatrix in="SourceAlpha" type="matrix" values="0 0 0 0 0 0 0 0 0 0 0 0 0 0 0 0 0 0 127 0" result="hardAlpha"/>
<feOffset dy="5.98153"/>
<feGaussianBlur stdDeviation="1.06813"/>
<feColorMatrix type="matrix" values="0 0 0 0 0 0 0 0 0 0 0 0 0 0 0 0 0 0 0.055 0"/>
<feBlend mode="normal" in2="effect2_dropShadow_2_1821" result="effect3_dropShadow_2_1821"/>
<feColorMatrix in="SourceAlpha" type="matrix" values="0 0 0 0 0 0 0 0 0 0 0 0 0 0 0 0 0 0 127 0" result="hardAlpha"/>
<feOffset dy="10.67"/>
<feGaussianBlur stdDeviation="1.90536"/>
<feColorMatrix type="matrix" values="0 0 0 0 0 0 0 0 0 0 0 0 0 0 0 0 0 0 0.0655718 0"/>
<feBlend mode="normal" in2="effect3_dropShadow_2_1821" result="effect4_dropShadow_2_1821"/>
<feColorMatrix in="SourceAlpha" type="matrix" values="0 0 0 0 0 0 0 0 0 0 0 0 0 0 0 0 0 0 127 0" result="hardAlpha"/>
<feOffset dy="19.9571"/>
<feGaussianBlur stdDeviation="3.56377"/>
<feColorMatrix type="matrix" values="0 0 0 0 0 0 0 0 0 0 0 0 0 0 0 0 0 0 0.079074 0"/>
<feBlend mode="normal" in2="effect4_dropShadow_2_1821" result="effect5_dropShadow_2_1821"/>
<feColorMatrix in="SourceAlpha" type="matrix" values="0 0 0 0 0 0 0 0 0 0 0 0 0 0 0 0 0 0 127 0" result="hardAlpha"/>
<feOffset dy="47.7699"/>
<feGaussianBlur stdDeviation="8.53033"/>
<feColorMatrix type="matrix" values="0 0 0 0 0 0 0 0 0 0 0 0 0 0 0 0 0 0 0.11 0"/>
<feBlend mode="normal" in2="effect5_dropShadow_2_1821" result="effect6_dropShadow_2_1821"/>
<feBlend mode="normal" in="SourceGraphic" in2="effect6_dropShadow_2_1821" result="shape"/>
</filter>
<filter id="filter7_dddddd_2_1821" x="238.901" y="204.179" width="163.642" height="220.87" filterUnits="userSpaceOnUse" color-interpolation-filters="sRGB">
<feFlood flood-opacity="0" result="BackgroundImageFix"/>
<feColorMatrix in="SourceAlpha" type="matrix" values="0 0 0 0 0 0 0 0 0 0 0 0 0 0 0 0 0 0 127 0" result="hardAlpha"/>
<feOffset dy="1.32191"/>
<feGaussianBlur stdDeviation="0.236056"/>
<feColorMatrix type="matrix" values="0 0 0 0 0 0 0 0 0 0 0 0 0 0 0 0 0 0 0.030926 0"/>
<feBlend mode="normal" in2="BackgroundImageFix" result="effect1_dropShadow_2_1821"/>
<feColorMatrix in="SourceAlpha" type="matrix" values="0 0 0 0 0 0 0 0 0 0 0 0 0 0 0 0 0 0 127 0" result="hardAlpha"/>
<feOffset dy="3.17674"/>
<feGaussianBlur stdDeviation="0.567276"/>
<feColorMatrix type="matrix" values="0 0 0 0 0 0 0 0 0 0 0 0 0 0 0 0 0 0 0.0444282 0"/>
<feBlend mode="normal" in2="effect1_dropShadow_2_1821" result="effect2_dropShadow_2_1821"/>
<feColorMatrix in="SourceAlpha" type="matrix" values="0 0 0 0 0 0 0 0 0 0 0 0 0 0 0 0 0 0 127 0" result="hardAlpha"/>
<feOffset dy="5.98153"/>
<feGaussianBlur stdDeviation="1.06813"/>
<feColorMatrix type="matrix" values="0 0 0 0 0 0 0 0 0 0 0 0 0 0 0 0 0 0 0.055 0"/>
<feBlend mode="normal" in2="effect2_dropShadow_2_1821" result="effect3_dropShadow_2_1821"/>
<feColorMatrix in="SourceAlpha" type="matrix" values="0 0 0 0 0 0 0 0 0 0 0 0 0 0 0 0 0 0 127 0" result="hardAlpha"/>
<feOffset dy="10.67"/>
<feGaussianBlur stdDeviation="1.90536"/>
<feColorMatrix type="matrix" values="0 0 0 0 0 0 0 0 0 0 0 0 0 0 0 0 0 0 0.0655718 0"/>
<feBlend mode="normal" in2="effect3_dropShadow_2_1821" result="effect4_dropShadow_2_1821"/>
<feColorMatrix in="SourceAlpha" type="matrix" values="0 0 0 0 0 0 0 0 0 0 0 0 0 0 0 0 0 0 127 0" result="hardAlpha"/>
<feOffset dy="19.9571"/>
<feGaussianBlur stdDeviation="3.56377"/>
<feColorMatrix type="matrix" values="0 0 0 0 0 0 0 0 0 0 0 0 0 0 0 0 0 0 0.079074 0"/>
<feBlend mode="normal" in2="effect4_dropShadow_2_1821" result="effect5_dropShadow_2_1821"/>
<feColorMatrix in="SourceAlpha" type="matrix" values="0 0 0 0 0 0 0 0 0 0 0 0 0 0 0 0 0 0 127 0" result="hardAlpha"/>
<feOffset dy="47.7699"/>
<feGaussianBlur stdDeviation="8.53033"/>
<feColorMatrix type="matrix" values="0 0 0 0 0 0 0 0 0 0 0 0 0 0 0 0 0 0 0.11 0"/>
<feBlend mode="normal" in2="effect5_dropShadow_2_1821" result="effect6_dropShadow_2_1821"/>
<feBlend mode="normal" in="SourceGraphic" in2="effect6_dropShadow_2_1821" result="shape"/>
</filter>
<linearGradient id="paint0_linear_2_1821" x1="247.028" y1="55.5171" x2="247.028" y2="426.948" gradientUnits="userSpaceOnUse">
<stop offset="0.513542" stop-color="#4547EB"/>
<stop offset="0.9875" stop-color="#2E30CD"/>
</linearGradient>
<clipPath id="clip0_2_1821">
<rect width="50" height="41.9575" fill="white" transform="translate(398.303 146.893) rotate(5.71313)"/>
</clipPath>
<clipPath id="clip1_2_1821">
<rect width="24" height="20.1396" fill="white" transform="translate(367.578 60.0896) rotate(7.84605)"/>
</clipPath>
<clipPath id="clip2_2_1821">
<rect width="25.6266" height="21.5372" fill="white" transform="translate(174.091 164.317) rotate(-15.9453)"/>
</clipPath>
</defs>
</svg>
