<svg width="13" height="13" viewBox="0 0 13 13" fill="none" xmlns="http://www.w3.org/2000/svg">
<path d="M10.4049 0.824074L4.94321 8.31841L2.58803 5.1558C2.35235 4.84175 2.00607 4.63769 1.62536 4.5885C1.24465 4.53931 0.860689 4.64902 0.557953 4.8935C0.255218 5.13797 0.0585021 5.49719 0.0110824 5.89213C-0.0363374 6.28706 0.0694227 6.68536 0.305097 6.9994L3.81619 11.6609C3.95226 11.8395 4.12577 11.9836 4.32355 12.0823C4.52133 12.181 4.73819 12.2317 4.95766 12.2304C5.17832 12.2299 5.39593 12.1769 5.59379 12.0756C5.79165 11.9743 5.96452 11.8273 6.09912 11.6459L12.7023 2.65269C12.936 2.33467 13.0384 1.93335 12.987 1.53701C12.9355 1.14067 12.7343 0.781779 12.4278 0.539289C12.1212 0.296799 11.7343 0.190574 11.3522 0.243981C10.9702 0.297389 10.6242 0.506055 10.3905 0.824074H10.4049Z" fill="white"/>
</svg>
